<?xml version="1.0" encoding="utf-8" standalone="no"?>
<!DOCTYPE svg PUBLIC "-//W3C//DTD SVG 1.1//EN"
  "http://www.w3.org/Graphics/SVG/1.1/DTD/svg11.dtd">
<svg height="310.86825pt" version="1.1" viewBox="0 0 408.10125 310.86825" width="408.10125pt" xmlns="http://www.w3.org/2000/svg" xmlns:xlink="http://www.w3.org/1999/xlink">
 <metadata>
  <rdf:RDF xmlns:cc="http://creativecommons.org/ns#" xmlns:dc="http://purl.org/dc/elements/1.1/" xmlns:rdf="http://www.w3.org/1999/02/22-rdf-syntax-ns#">
   <cc:Work>
    <dc:type rdf:resource="http://purl.org/dc/dcmitype/StillImage"/>
    <dc:date>2021-10-23T15:21:47.704122</dc:date>
    <dc:format>image/svg+xml</dc:format>
    <dc:creator>
     <cc:Agent>
      <dc:title>Matplotlib v3.4.3, https://matplotlib.org/</dc:title>
     </cc:Agent>
    </dc:creator>
   </cc:Work>
  </rdf:RDF>
 </metadata>
 <defs>
  <style type="text/css">*{stroke-linecap:butt;stroke-linejoin:round;}</style>
 </defs>
 <g id="figure_1">
  <g id="patch_1">
   <path d="M 0 310.86825 
L 408.10125 310.86825 
L 408.10125 0 
L 0 0 
z
" style="fill:#ffffff;"/>
  </g>
  <g id="axes_1">
   <g id="patch_2">
    <path d="M 43.78125 273.312 
L 400.90125 273.312 
L 400.90125 7.2 
L 43.78125 7.2 
z
" style="fill:#ffffff;"/>
   </g>
   <g id="patch_3">
    <path clip-path="url(#peab0b779c4)" d="M 62.40186 273.312 
L 65.584732 273.312 
L 65.584732 271.909883 
L 62.40186 271.909883 
z
" style="fill:#1f77b4;opacity:0.5;"/>
   </g>
   <g id="patch_4">
    <path clip-path="url(#peab0b779c4)" d="M 65.584732 273.312 
L 68.767604 273.312 
L 68.767604 272.610942 
L 65.584732 272.610942 
z
" style="fill:#1f77b4;opacity:0.5;"/>
   </g>
   <g id="patch_5">
    <path clip-path="url(#peab0b779c4)" d="M 68.767604 273.312 
L 71.950476 273.312 
L 71.950476 271.559354 
L 68.767604 271.559354 
z
" style="fill:#1f77b4;opacity:0.5;"/>
   </g>
   <g id="patch_6">
    <path clip-path="url(#peab0b779c4)" d="M 71.950476 273.312 
L 75.133347 273.312 
L 75.133347 272.610942 
L 71.950476 272.610942 
z
" style="fill:#1f77b4;opacity:0.5;"/>
   </g>
   <g id="patch_7">
    <path clip-path="url(#peab0b779c4)" d="M 75.133347 273.312 
L 78.316219 273.312 
L 78.316219 272.260413 
L 75.133347 272.260413 
z
" style="fill:#1f77b4;opacity:0.5;"/>
   </g>
   <g id="patch_8">
    <path clip-path="url(#peab0b779c4)" d="M 78.316219 273.312 
L 81.499091 273.312 
L 81.499091 272.260413 
L 78.316219 272.260413 
z
" style="fill:#1f77b4;opacity:0.5;"/>
   </g>
   <g id="patch_9">
    <path clip-path="url(#peab0b779c4)" d="M 81.499091 273.312 
L 84.681963 273.312 
L 84.681963 270.157238 
L 81.499091 270.157238 
z
" style="fill:#1f77b4;opacity:0.5;"/>
   </g>
   <g id="patch_10">
    <path clip-path="url(#peab0b779c4)" d="M 84.681963 273.312 
L 87.864835 273.312 
L 87.864835 271.208825 
L 84.681963 271.208825 
z
" style="fill:#1f77b4;opacity:0.5;"/>
   </g>
   <g id="patch_11">
    <path clip-path="url(#peab0b779c4)" d="M 87.864835 273.312 
L 91.047707 273.312 
L 91.047707 271.909883 
L 87.864835 271.909883 
z
" style="fill:#1f77b4;opacity:0.5;"/>
   </g>
   <g id="patch_12">
    <path clip-path="url(#peab0b779c4)" d="M 91.047707 273.312 
L 94.230579 273.312 
L 94.230579 270.157238 
L 91.047707 270.157238 
z
" style="fill:#1f77b4;opacity:0.5;"/>
   </g>
   <g id="patch_13">
    <path clip-path="url(#peab0b779c4)" d="M 94.230579 273.312 
L 97.41345 273.312 
L 97.41345 269.456179 
L 94.230579 269.456179 
z
" style="fill:#1f77b4;opacity:0.5;"/>
   </g>
   <g id="patch_14">
    <path clip-path="url(#peab0b779c4)" d="M 97.41345 273.312 
L 100.596322 273.312 
L 100.596322 269.806709 
L 97.41345 269.806709 
z
" style="fill:#1f77b4;opacity:0.5;"/>
   </g>
   <g id="patch_15">
    <path clip-path="url(#peab0b779c4)" d="M 100.596322 273.312 
L 103.779194 273.312 
L 103.779194 268.404592 
L 100.596322 268.404592 
z
" style="fill:#1f77b4;opacity:0.5;"/>
   </g>
   <g id="patch_16">
    <path clip-path="url(#peab0b779c4)" d="M 103.779194 273.312 
L 106.962066 273.312 
L 106.962066 268.054063 
L 103.779194 268.054063 
z
" style="fill:#1f77b4;opacity:0.5;"/>
   </g>
   <g id="patch_17">
    <path clip-path="url(#peab0b779c4)" d="M 106.962066 273.312 
L 110.144938 273.312 
L 110.144938 263.497184 
L 106.962066 263.497184 
z
" style="fill:#1f77b4;opacity:0.5;"/>
   </g>
   <g id="patch_18">
    <path clip-path="url(#peab0b779c4)" d="M 110.144938 273.312 
L 113.32781 273.312 
L 113.32781 262.095067 
L 110.144938 262.095067 
z
" style="fill:#1f77b4;opacity:0.5;"/>
   </g>
   <g id="patch_19">
    <path clip-path="url(#peab0b779c4)" d="M 113.32781 273.312 
L 116.510682 273.312 
L 116.510682 265.950888 
L 113.32781 265.950888 
z
" style="fill:#1f77b4;opacity:0.5;"/>
   </g>
   <g id="patch_20">
    <path clip-path="url(#peab0b779c4)" d="M 116.510682 273.312 
L 119.693553 273.312 
L 119.693553 262.796126 
L 116.510682 262.796126 
z
" style="fill:#1f77b4;opacity:0.5;"/>
   </g>
   <g id="patch_21">
    <path clip-path="url(#peab0b779c4)" d="M 119.693553 273.312 
L 122.876425 273.312 
L 122.876425 255.435014 
L 119.693553 255.435014 
z
" style="fill:#1f77b4;opacity:0.5;"/>
   </g>
   <g id="patch_22">
    <path clip-path="url(#peab0b779c4)" d="M 122.876425 273.312 
L 126.059297 273.312 
L 126.059297 252.280251 
L 122.876425 252.280251 
z
" style="fill:#1f77b4;opacity:0.5;"/>
   </g>
   <g id="patch_23">
    <path clip-path="url(#peab0b779c4)" d="M 126.059297 273.312 
L 129.242169 273.312 
L 129.242169 247.022314 
L 126.059297 247.022314 
z
" style="fill:#1f77b4;opacity:0.5;"/>
   </g>
   <g id="patch_24">
    <path clip-path="url(#peab0b779c4)" d="M 129.242169 273.312 
L 132.425041 273.312 
L 132.425041 238.960144 
L 129.242169 238.960144 
z
" style="fill:#1f77b4;opacity:0.5;"/>
   </g>
   <g id="patch_25">
    <path clip-path="url(#peab0b779c4)" d="M 132.425041 273.312 
L 135.607913 273.312 
L 135.607913 225.640036 
L 132.425041 225.640036 
z
" style="fill:#1f77b4;opacity:0.5;"/>
   </g>
   <g id="patch_26">
    <path clip-path="url(#peab0b779c4)" d="M 135.607913 273.312 
L 138.790785 273.312 
L 138.790785 189.886063 
L 135.607913 189.886063 
z
" style="fill:#1f77b4;opacity:0.5;"/>
   </g>
   <g id="patch_27">
    <path clip-path="url(#peab0b779c4)" d="M 138.790785 273.312 
L 141.973656 273.312 
L 141.973656 95.944252 
L 138.790785 95.944252 
z
" style="fill:#1f77b4;opacity:0.5;"/>
   </g>
   <g id="patch_28">
    <path clip-path="url(#peab0b779c4)" d="M 141.973656 273.312 
L 145.156528 273.312 
L 145.156528 91.737902 
L 141.973656 91.737902 
z
" style="fill:#1f77b4;opacity:0.5;"/>
   </g>
   <g id="patch_29">
    <path clip-path="url(#peab0b779c4)" d="M 145.156528 273.312 
L 148.3394 273.312 
L 148.3394 173.761722 
L 145.156528 173.761722 
z
" style="fill:#1f77b4;opacity:0.5;"/>
   </g>
   <g id="patch_30">
    <path clip-path="url(#peab0b779c4)" d="M 148.3394 273.312 
L 151.522272 273.312 
L 151.522272 234.403265 
L 148.3394 234.403265 
z
" style="fill:#1f77b4;opacity:0.5;"/>
   </g>
   <g id="patch_31">
    <path clip-path="url(#peab0b779c4)" d="M 151.522272 273.312 
L 154.705144 273.312 
L 154.705144 258.589776 
L 151.522272 258.589776 
z
" style="fill:#1f77b4;opacity:0.5;"/>
   </g>
   <g id="patch_32">
    <path clip-path="url(#peab0b779c4)" d="M 154.705144 273.312 
L 157.888016 273.312 
L 157.888016 266.301417 
L 154.705144 266.301417 
z
" style="fill:#1f77b4;opacity:0.5;"/>
   </g>
   <g id="patch_33">
    <path clip-path="url(#peab0b779c4)" d="M 157.888016 273.312 
L 161.070888 273.312 
L 161.070888 264.8993 
L 157.888016 264.8993 
z
" style="fill:#1f77b4;opacity:0.5;"/>
   </g>
   <g id="patch_34">
    <path clip-path="url(#peab0b779c4)" d="M 161.070888 273.312 
L 164.253759 273.312 
L 164.253759 264.198242 
L 161.070888 264.198242 
z
" style="fill:#1f77b4;opacity:0.5;"/>
   </g>
   <g id="patch_35">
    <path clip-path="url(#peab0b779c4)" d="M 164.253759 273.312 
L 167.436631 273.312 
L 167.436631 258.589776 
L 164.253759 258.589776 
z
" style="fill:#1f77b4;opacity:0.5;"/>
   </g>
   <g id="patch_36">
    <path clip-path="url(#peab0b779c4)" d="M 167.436631 273.312 
L 170.619503 273.312 
L 170.619503 260.342422 
L 167.436631 260.342422 
z
" style="fill:#1f77b4;opacity:0.5;"/>
   </g>
   <g id="patch_37">
    <path clip-path="url(#peab0b779c4)" d="M 170.619503 273.312 
L 173.802375 273.312 
L 173.802375 254.733955 
L 170.619503 254.733955 
z
" style="fill:#1f77b4;opacity:0.5;"/>
   </g>
   <g id="patch_38">
    <path clip-path="url(#peab0b779c4)" d="M 173.802375 273.312 
L 176.985247 273.312 
L 176.985247 255.435014 
L 173.802375 255.435014 
z
" style="fill:#1f77b4;opacity:0.5;"/>
   </g>
   <g id="patch_39">
    <path clip-path="url(#peab0b779c4)" d="M 176.985247 273.312 
L 180.168119 273.312 
L 180.168119 258.239247 
L 176.985247 258.239247 
z
" style="fill:#1f77b4;opacity:0.5;"/>
   </g>
   <g id="patch_40">
    <path clip-path="url(#peab0b779c4)" d="M 180.168119 273.312 
L 183.350991 273.312 
L 183.350991 252.98131 
L 180.168119 252.98131 
z
" style="fill:#1f77b4;opacity:0.5;"/>
   </g>
   <g id="patch_41">
    <path clip-path="url(#peab0b779c4)" d="M 183.350991 273.312 
L 186.533862 273.312 
L 186.533862 244.919139 
L 183.350991 244.919139 
z
" style="fill:#1f77b4;opacity:0.5;"/>
   </g>
   <g id="patch_42">
    <path clip-path="url(#peab0b779c4)" d="M 186.533862 273.312 
L 189.716734 273.312 
L 189.716734 227.743211 
L 186.533862 227.743211 
z
" style="fill:#1f77b4;opacity:0.5;"/>
   </g>
   <g id="patch_43">
    <path clip-path="url(#peab0b779c4)" d="M 189.716734 273.312 
L 192.899606 273.312 
L 192.899606 210.917812 
L 189.716734 210.917812 
z
" style="fill:#1f77b4;opacity:0.5;"/>
   </g>
   <g id="patch_44">
    <path clip-path="url(#peab0b779c4)" d="M 192.899606 273.312 
L 196.082478 273.312 
L 196.082478 177.617543 
L 192.899606 177.617543 
z
" style="fill:#1f77b4;opacity:0.5;"/>
   </g>
   <g id="patch_45">
    <path clip-path="url(#peab0b779c4)" d="M 196.082478 273.312 
L 199.26535 273.312 
L 199.26535 88.58314 
L 196.082478 88.58314 
z
" style="fill:#1f77b4;opacity:0.5;"/>
   </g>
   <g id="patch_46">
    <path clip-path="url(#peab0b779c4)" d="M 199.26535 273.312 
L 202.448222 273.312 
L 202.448222 21.632073 
L 199.26535 21.632073 
z
" style="fill:#1f77b4;opacity:0.5;"/>
   </g>
   <g id="patch_47">
    <path clip-path="url(#peab0b779c4)" d="M 202.448222 273.312 
L 205.631094 273.312 
L 205.631094 44.766996 
L 202.448222 44.766996 
z
" style="fill:#1f77b4;opacity:0.5;"/>
   </g>
   <g id="patch_48">
    <path clip-path="url(#peab0b779c4)" d="M 205.631094 273.312 
L 208.813965 273.312 
L 208.813965 102.954835 
L 205.631094 102.954835 
z
" style="fill:#1f77b4;opacity:0.5;"/>
   </g>
   <g id="patch_49">
    <path clip-path="url(#peab0b779c4)" d="M 208.813965 273.312 
L 211.996837 273.312 
L 211.996837 148.874153 
L 208.813965 148.874153 
z
" style="fill:#1f77b4;opacity:0.5;"/>
   </g>
   <g id="patch_50">
    <path clip-path="url(#peab0b779c4)" d="M 211.996837 273.312 
L 215.179709 273.312 
L 215.179709 202.505112 
L 211.996837 202.505112 
z
" style="fill:#1f77b4;opacity:0.5;"/>
   </g>
   <g id="patch_51">
    <path clip-path="url(#peab0b779c4)" d="M 215.179709 273.312 
L 218.362581 273.312 
L 218.362581 210.567283 
L 215.179709 210.567283 
z
" style="fill:#1f77b4;opacity:0.5;"/>
   </g>
   <g id="patch_52">
    <path clip-path="url(#peab0b779c4)" d="M 218.362581 273.312 
L 221.545453 273.312 
L 221.545453 231.599032 
L 218.362581 231.599032 
z
" style="fill:#1f77b4;opacity:0.5;"/>
   </g>
   <g id="patch_53">
    <path clip-path="url(#peab0b779c4)" d="M 221.545453 273.312 
L 224.728325 273.312 
L 224.728325 218.629453 
L 221.545453 218.629453 
z
" style="fill:#1f77b4;opacity:0.5;"/>
   </g>
   <g id="patch_54">
    <path clip-path="url(#peab0b779c4)" d="M 224.728325 273.312 
L 227.911197 273.312 
L 227.911197 226.341094 
L 224.728325 226.341094 
z
" style="fill:#1f77b4;opacity:0.5;"/>
   </g>
   <g id="patch_55">
    <path clip-path="url(#peab0b779c4)" d="M 227.911197 273.312 
L 231.094068 273.312 
L 231.094068 219.330511 
L 227.911197 219.330511 
z
" style="fill:#1f77b4;opacity:0.5;"/>
   </g>
   <g id="patch_56">
    <path clip-path="url(#peab0b779c4)" d="M 231.094068 273.312 
L 234.27694 273.312 
L 234.27694 219.330511 
L 231.094068 219.330511 
z
" style="fill:#1f77b4;opacity:0.5;"/>
   </g>
   <g id="patch_57">
    <path clip-path="url(#peab0b779c4)" d="M 234.27694 273.312 
L 237.459812 273.312 
L 237.459812 218.629453 
L 234.27694 218.629453 
z
" style="fill:#1f77b4;opacity:0.5;"/>
   </g>
   <g id="patch_58">
    <path clip-path="url(#peab0b779c4)" d="M 237.459812 273.312 
L 240.642684 273.312 
L 240.642684 208.814637 
L 237.459812 208.814637 
z
" style="fill:#1f77b4;opacity:0.5;"/>
   </g>
   <g id="patch_59">
    <path clip-path="url(#peab0b779c4)" d="M 240.642684 273.312 
L 243.825556 273.312 
L 243.825556 204.257758 
L 240.642684 204.257758 
z
" style="fill:#1f77b4;opacity:0.5;"/>
   </g>
   <g id="patch_60">
    <path clip-path="url(#peab0b779c4)" d="M 243.825556 273.312 
L 247.008428 273.312 
L 247.008428 208.814637 
L 243.825556 208.814637 
z
" style="fill:#1f77b4;opacity:0.5;"/>
   </g>
   <g id="patch_61">
    <path clip-path="url(#peab0b779c4)" d="M 247.008428 273.312 
L 250.1913 273.312 
L 250.1913 199.35035 
L 247.008428 199.35035 
z
" style="fill:#1f77b4;opacity:0.5;"/>
   </g>
   <g id="patch_62">
    <path clip-path="url(#peab0b779c4)" d="M 250.1913 273.312 
L 253.374171 273.312 
L 253.374171 207.061991 
L 250.1913 207.061991 
z
" style="fill:#1f77b4;opacity:0.5;"/>
   </g>
   <g id="patch_63">
    <path clip-path="url(#peab0b779c4)" d="M 253.374171 273.312 
L 256.557043 273.312 
L 256.557043 214.773633 
L 253.374171 214.773633 
z
" style="fill:#1f77b4;opacity:0.5;"/>
   </g>
   <g id="patch_64">
    <path clip-path="url(#peab0b779c4)" d="M 256.557043 273.312 
L 259.739915 273.312 
L 259.739915 221.784215 
L 256.557043 221.784215 
z
" style="fill:#1f77b4;opacity:0.5;"/>
   </g>
   <g id="patch_65">
    <path clip-path="url(#peab0b779c4)" d="M 259.739915 273.312 
L 262.922787 273.312 
L 262.922787 217.577866 
L 259.739915 217.577866 
z
" style="fill:#1f77b4;opacity:0.5;"/>
   </g>
   <g id="patch_66">
    <path clip-path="url(#peab0b779c4)" d="M 262.922787 273.312 
L 266.105659 273.312 
L 266.105659 229.145328 
L 262.922787 229.145328 
z
" style="fill:#1f77b4;opacity:0.5;"/>
   </g>
   <g id="patch_67">
    <path clip-path="url(#peab0b779c4)" d="M 266.105659 273.312 
L 269.288531 273.312 
L 269.288531 236.15591 
L 266.105659 236.15591 
z
" style="fill:#1f77b4;opacity:0.5;"/>
   </g>
   <g id="patch_68">
    <path clip-path="url(#peab0b779c4)" d="M 269.288531 273.312 
L 272.471403 273.312 
L 272.471403 233.001148 
L 269.288531 233.001148 
z
" style="fill:#1f77b4;opacity:0.5;"/>
   </g>
   <g id="patch_69">
    <path clip-path="url(#peab0b779c4)" d="M 272.471403 273.312 
L 275.654274 273.312 
L 275.654274 244.56861 
L 272.471403 244.56861 
z
" style="fill:#1f77b4;opacity:0.5;"/>
   </g>
   <g id="patch_70">
    <path clip-path="url(#peab0b779c4)" d="M 275.654274 273.312 
L 278.837146 273.312 
L 278.837146 249.125489 
L 275.654274 249.125489 
z
" style="fill:#1f77b4;opacity:0.5;"/>
   </g>
   <g id="patch_71">
    <path clip-path="url(#peab0b779c4)" d="M 278.837146 273.312 
L 282.020018 273.312 
L 282.020018 243.517023 
L 278.837146 243.517023 
z
" style="fill:#1f77b4;opacity:0.5;"/>
   </g>
   <g id="patch_72">
    <path clip-path="url(#peab0b779c4)" d="M 282.020018 273.312 
L 285.20289 273.312 
L 285.20289 252.280251 
L 282.020018 252.280251 
z
" style="fill:#1f77b4;opacity:0.5;"/>
   </g>
   <g id="patch_73">
    <path clip-path="url(#peab0b779c4)" d="M 285.20289 273.312 
L 288.385762 273.312 
L 288.385762 256.136072 
L 285.20289 256.136072 
z
" style="fill:#1f77b4;opacity:0.5;"/>
   </g>
   <g id="patch_74">
    <path clip-path="url(#peab0b779c4)" d="M 288.385762 273.312 
L 291.568634 273.312 
L 291.568634 253.682368 
L 288.385762 253.682368 
z
" style="fill:#1f77b4;opacity:0.5;"/>
   </g>
   <g id="patch_75">
    <path clip-path="url(#peab0b779c4)" d="M 291.568634 273.312 
L 294.751505 273.312 
L 294.751505 257.888718 
L 291.568634 257.888718 
z
" style="fill:#1f77b4;opacity:0.5;"/>
   </g>
   <g id="patch_76">
    <path clip-path="url(#peab0b779c4)" d="M 294.751505 273.312 
L 297.934377 273.312 
L 297.934377 257.187659 
L 294.751505 257.187659 
z
" style="fill:#1f77b4;opacity:0.5;"/>
   </g>
   <g id="patch_77">
    <path clip-path="url(#peab0b779c4)" d="M 297.934377 273.312 
L 301.117249 273.312 
L 301.117249 259.641363 
L 297.934377 259.641363 
z
" style="fill:#1f77b4;opacity:0.5;"/>
   </g>
   <g id="patch_78">
    <path clip-path="url(#peab0b779c4)" d="M 301.117249 273.312 
L 304.300121 273.312 
L 304.300121 262.445596 
L 301.117249 262.445596 
z
" style="fill:#1f77b4;opacity:0.5;"/>
   </g>
   <g id="patch_79">
    <path clip-path="url(#peab0b779c4)" d="M 304.300121 273.312 
L 307.482993 273.312 
L 307.482993 262.796126 
L 304.300121 262.796126 
z
" style="fill:#1f77b4;opacity:0.5;"/>
   </g>
   <g id="patch_80">
    <path clip-path="url(#peab0b779c4)" d="M 307.482993 273.312 
L 310.665865 273.312 
L 310.665865 263.146655 
L 307.482993 263.146655 
z
" style="fill:#1f77b4;opacity:0.5;"/>
   </g>
   <g id="patch_81">
    <path clip-path="url(#peab0b779c4)" d="M 310.665865 273.312 
L 313.848737 273.312 
L 313.848737 265.24983 
L 310.665865 265.24983 
z
" style="fill:#1f77b4;opacity:0.5;"/>
   </g>
   <g id="patch_82">
    <path clip-path="url(#peab0b779c4)" d="M 313.848737 273.312 
L 317.031608 273.312 
L 317.031608 264.8993 
L 313.848737 264.8993 
z
" style="fill:#1f77b4;opacity:0.5;"/>
   </g>
   <g id="patch_83">
    <path clip-path="url(#peab0b779c4)" d="M 317.031608 273.312 
L 320.21448 273.312 
L 320.21448 265.600359 
L 317.031608 265.600359 
z
" style="fill:#1f77b4;opacity:0.5;"/>
   </g>
   <g id="patch_84">
    <path clip-path="url(#peab0b779c4)" d="M 320.21448 273.312 
L 323.397352 273.312 
L 323.397352 266.301417 
L 320.21448 266.301417 
z
" style="fill:#1f77b4;opacity:0.5;"/>
   </g>
   <g id="patch_85">
    <path clip-path="url(#peab0b779c4)" d="M 323.397352 273.312 
L 326.580224 273.312 
L 326.580224 265.24983 
L 323.397352 265.24983 
z
" style="fill:#1f77b4;opacity:0.5;"/>
   </g>
   <g id="patch_86">
    <path clip-path="url(#peab0b779c4)" d="M 326.580224 273.312 
L 329.763096 273.312 
L 329.763096 267.002475 
L 326.580224 267.002475 
z
" style="fill:#1f77b4;opacity:0.5;"/>
   </g>
   <g id="patch_87">
    <path clip-path="url(#peab0b779c4)" d="M 329.763096 273.312 
L 332.945968 273.312 
L 332.945968 267.703534 
L 329.763096 267.703534 
z
" style="fill:#1f77b4;opacity:0.5;"/>
   </g>
   <g id="patch_88">
    <path clip-path="url(#peab0b779c4)" d="M 332.945968 273.312 
L 336.12884 273.312 
L 336.12884 270.507767 
L 332.945968 270.507767 
z
" style="fill:#1f77b4;opacity:0.5;"/>
   </g>
   <g id="patch_89">
    <path clip-path="url(#peab0b779c4)" d="M 336.12884 273.312 
L 339.311711 273.312 
L 339.311711 267.353005 
L 336.12884 267.353005 
z
" style="fill:#1f77b4;opacity:0.5;"/>
   </g>
   <g id="patch_90">
    <path clip-path="url(#peab0b779c4)" d="M 339.311711 273.312 
L 342.494583 273.312 
L 342.494583 267.353005 
L 339.311711 267.353005 
z
" style="fill:#1f77b4;opacity:0.5;"/>
   </g>
   <g id="patch_91">
    <path clip-path="url(#peab0b779c4)" d="M 342.494583 273.312 
L 345.677455 273.312 
L 345.677455 269.456179 
L 342.494583 269.456179 
z
" style="fill:#1f77b4;opacity:0.5;"/>
   </g>
   <g id="patch_92">
    <path clip-path="url(#peab0b779c4)" d="M 345.677455 273.312 
L 348.860327 273.312 
L 348.860327 270.507767 
L 345.677455 270.507767 
z
" style="fill:#1f77b4;opacity:0.5;"/>
   </g>
   <g id="patch_93">
    <path clip-path="url(#peab0b779c4)" d="M 348.860327 273.312 
L 352.043199 273.312 
L 352.043199 269.806709 
L 348.860327 269.806709 
z
" style="fill:#1f77b4;opacity:0.5;"/>
   </g>
   <g id="patch_94">
    <path clip-path="url(#peab0b779c4)" d="M 352.043199 273.312 
L 355.226071 273.312 
L 355.226071 269.806709 
L 352.043199 269.806709 
z
" style="fill:#1f77b4;opacity:0.5;"/>
   </g>
   <g id="patch_95">
    <path clip-path="url(#peab0b779c4)" d="M 355.226071 273.312 
L 358.408943 273.312 
L 358.408943 270.858296 
L 355.226071 270.858296 
z
" style="fill:#1f77b4;opacity:0.5;"/>
   </g>
   <g id="patch_96">
    <path clip-path="url(#peab0b779c4)" d="M 358.408943 273.312 
L 361.591814 273.312 
L 361.591814 271.559354 
L 358.408943 271.559354 
z
" style="fill:#1f77b4;opacity:0.5;"/>
   </g>
   <g id="patch_97">
    <path clip-path="url(#peab0b779c4)" d="M 361.591814 273.312 
L 364.774686 273.312 
L 364.774686 271.909883 
L 361.591814 271.909883 
z
" style="fill:#1f77b4;opacity:0.5;"/>
   </g>
   <g id="patch_98">
    <path clip-path="url(#peab0b779c4)" d="M 364.774686 273.312 
L 367.957558 273.312 
L 367.957558 271.559354 
L 364.774686 271.559354 
z
" style="fill:#1f77b4;opacity:0.5;"/>
   </g>
   <g id="patch_99">
    <path clip-path="url(#peab0b779c4)" d="M 367.957558 273.312 
L 371.14043 273.312 
L 371.14043 271.559354 
L 367.957558 271.559354 
z
" style="fill:#1f77b4;opacity:0.5;"/>
   </g>
   <g id="patch_100">
    <path clip-path="url(#peab0b779c4)" d="M 371.14043 273.312 
L 374.323302 273.312 
L 374.323302 272.260413 
L 371.14043 272.260413 
z
" style="fill:#1f77b4;opacity:0.5;"/>
   </g>
   <g id="patch_101">
    <path clip-path="url(#peab0b779c4)" d="M 374.323302 273.312 
L 377.506174 273.312 
L 377.506174 272.260413 
L 374.323302 272.260413 
z
" style="fill:#1f77b4;opacity:0.5;"/>
   </g>
   <g id="patch_102">
    <path clip-path="url(#peab0b779c4)" d="M 377.506174 273.312 
L 380.689046 273.312 
L 380.689046 272.961471 
L 377.506174 272.961471 
z
" style="fill:#1f77b4;opacity:0.5;"/>
   </g>
   <g id="matplotlib.axis_1">
    <g id="xtick_1">
     <g id="line2d_1">
      <path clip-path="url(#peab0b779c4)" d="M 86.325198 273.312 
L 86.325198 7.2 
" style="fill:none;stroke:#b0b0b0;stroke-linecap:square;stroke-width:0.8;"/>
     </g>
     <g id="line2d_2">
      <defs>
       <path d="M 0 0 
L 0 3.5 
" id="m02226dbb22" style="stroke:#000000;stroke-width:0.8;"/>
      </defs>
      <g>
       <use style="stroke:#000000;stroke-width:0.8;" x="86.325198" xlink:href="#m02226dbb22" y="273.312"/>
      </g>
     </g>
     <g id="text_1">
      <!-- 0.5 -->
      <g transform="translate(78.373635 287.910437)scale(0.1 -0.1)">
       <defs>
        <path d="M 2034 4250 
Q 1547 4250 1301 3770 
Q 1056 3291 1056 2328 
Q 1056 1369 1301 889 
Q 1547 409 2034 409 
Q 2525 409 2770 889 
Q 3016 1369 3016 2328 
Q 3016 3291 2770 3770 
Q 2525 4250 2034 4250 
z
M 2034 4750 
Q 2819 4750 3233 4129 
Q 3647 3509 3647 2328 
Q 3647 1150 3233 529 
Q 2819 -91 2034 -91 
Q 1250 -91 836 529 
Q 422 1150 422 2328 
Q 422 3509 836 4129 
Q 1250 4750 2034 4750 
z
" id="DejaVuSans-30" transform="scale(0.015625)"/>
        <path d="M 684 794 
L 1344 794 
L 1344 0 
L 684 0 
L 684 794 
z
" id="DejaVuSans-2e" transform="scale(0.015625)"/>
        <path d="M 691 4666 
L 3169 4666 
L 3169 4134 
L 1269 4134 
L 1269 2991 
Q 1406 3038 1543 3061 
Q 1681 3084 1819 3084 
Q 2600 3084 3056 2656 
Q 3513 2228 3513 1497 
Q 3513 744 3044 326 
Q 2575 -91 1722 -91 
Q 1428 -91 1123 -41 
Q 819 9 494 109 
L 494 744 
Q 775 591 1075 516 
Q 1375 441 1709 441 
Q 2250 441 2565 725 
Q 2881 1009 2881 1497 
Q 2881 1984 2565 2268 
Q 2250 2553 1709 2553 
Q 1456 2553 1204 2497 
Q 953 2441 691 2322 
L 691 4666 
z
" id="DejaVuSans-35" transform="scale(0.015625)"/>
       </defs>
       <use xlink:href="#DejaVuSans-30"/>
       <use x="63.623047" xlink:href="#DejaVuSans-2e"/>
       <use x="95.410156" xlink:href="#DejaVuSans-35"/>
      </g>
     </g>
    </g>
    <g id="xtick_2">
     <g id="line2d_3">
      <path clip-path="url(#peab0b779c4)" d="M 143.873096 273.312 
L 143.873096 7.2 
" style="fill:none;stroke:#b0b0b0;stroke-linecap:square;stroke-width:0.8;"/>
     </g>
     <g id="line2d_4">
      <g>
       <use style="stroke:#000000;stroke-width:0.8;" x="143.873096" xlink:href="#m02226dbb22" y="273.312"/>
      </g>
     </g>
     <g id="text_2">
      <!-- 1.0 -->
      <g transform="translate(135.921534 287.910437)scale(0.1 -0.1)">
       <defs>
        <path d="M 794 531 
L 1825 531 
L 1825 4091 
L 703 3866 
L 703 4441 
L 1819 4666 
L 2450 4666 
L 2450 531 
L 3481 531 
L 3481 0 
L 794 0 
L 794 531 
z
" id="DejaVuSans-31" transform="scale(0.015625)"/>
       </defs>
       <use xlink:href="#DejaVuSans-31"/>
       <use x="63.623047" xlink:href="#DejaVuSans-2e"/>
       <use x="95.410156" xlink:href="#DejaVuSans-30"/>
      </g>
     </g>
    </g>
    <g id="xtick_3">
     <g id="line2d_5">
      <path clip-path="url(#peab0b779c4)" d="M 201.420995 273.312 
L 201.420995 7.2 
" style="fill:none;stroke:#b0b0b0;stroke-linecap:square;stroke-width:0.8;"/>
     </g>
     <g id="line2d_6">
      <g>
       <use style="stroke:#000000;stroke-width:0.8;" x="201.420995" xlink:href="#m02226dbb22" y="273.312"/>
      </g>
     </g>
     <g id="text_3">
      <!-- 1.5 -->
      <g transform="translate(193.469432 287.910437)scale(0.1 -0.1)">
       <use xlink:href="#DejaVuSans-31"/>
       <use x="63.623047" xlink:href="#DejaVuSans-2e"/>
       <use x="95.410156" xlink:href="#DejaVuSans-35"/>
      </g>
     </g>
    </g>
    <g id="xtick_4">
     <g id="line2d_7">
      <path clip-path="url(#peab0b779c4)" d="M 258.968893 273.312 
L 258.968893 7.2 
" style="fill:none;stroke:#b0b0b0;stroke-linecap:square;stroke-width:0.8;"/>
     </g>
     <g id="line2d_8">
      <g>
       <use style="stroke:#000000;stroke-width:0.8;" x="258.968893" xlink:href="#m02226dbb22" y="273.312"/>
      </g>
     </g>
     <g id="text_4">
      <!-- 2.0 -->
      <g transform="translate(251.017331 287.910437)scale(0.1 -0.1)">
       <defs>
        <path d="M 1228 531 
L 3431 531 
L 3431 0 
L 469 0 
L 469 531 
Q 828 903 1448 1529 
Q 2069 2156 2228 2338 
Q 2531 2678 2651 2914 
Q 2772 3150 2772 3378 
Q 2772 3750 2511 3984 
Q 2250 4219 1831 4219 
Q 1534 4219 1204 4116 
Q 875 4013 500 3803 
L 500 4441 
Q 881 4594 1212 4672 
Q 1544 4750 1819 4750 
Q 2544 4750 2975 4387 
Q 3406 4025 3406 3419 
Q 3406 3131 3298 2873 
Q 3191 2616 2906 2266 
Q 2828 2175 2409 1742 
Q 1991 1309 1228 531 
z
" id="DejaVuSans-32" transform="scale(0.015625)"/>
       </defs>
       <use xlink:href="#DejaVuSans-32"/>
       <use x="63.623047" xlink:href="#DejaVuSans-2e"/>
       <use x="95.410156" xlink:href="#DejaVuSans-30"/>
      </g>
     </g>
    </g>
    <g id="xtick_5">
     <g id="line2d_9">
      <path clip-path="url(#peab0b779c4)" d="M 316.516792 273.312 
L 316.516792 7.2 
" style="fill:none;stroke:#b0b0b0;stroke-linecap:square;stroke-width:0.8;"/>
     </g>
     <g id="line2d_10">
      <g>
       <use style="stroke:#000000;stroke-width:0.8;" x="316.516792" xlink:href="#m02226dbb22" y="273.312"/>
      </g>
     </g>
     <g id="text_5">
      <!-- 2.5 -->
      <g transform="translate(308.56523 287.910437)scale(0.1 -0.1)">
       <use xlink:href="#DejaVuSans-32"/>
       <use x="63.623047" xlink:href="#DejaVuSans-2e"/>
       <use x="95.410156" xlink:href="#DejaVuSans-35"/>
      </g>
     </g>
    </g>
    <g id="xtick_6">
     <g id="line2d_11">
      <path clip-path="url(#peab0b779c4)" d="M 374.064691 273.312 
L 374.064691 7.2 
" style="fill:none;stroke:#b0b0b0;stroke-linecap:square;stroke-width:0.8;"/>
     </g>
     <g id="line2d_12">
      <g>
       <use style="stroke:#000000;stroke-width:0.8;" x="374.064691" xlink:href="#m02226dbb22" y="273.312"/>
      </g>
     </g>
     <g id="text_6">
      <!-- 3.0 -->
      <g transform="translate(366.113128 287.910437)scale(0.1 -0.1)">
       <defs>
        <path d="M 2597 2516 
Q 3050 2419 3304 2112 
Q 3559 1806 3559 1356 
Q 3559 666 3084 287 
Q 2609 -91 1734 -91 
Q 1441 -91 1130 -33 
Q 819 25 488 141 
L 488 750 
Q 750 597 1062 519 
Q 1375 441 1716 441 
Q 2309 441 2620 675 
Q 2931 909 2931 1356 
Q 2931 1769 2642 2001 
Q 2353 2234 1838 2234 
L 1294 2234 
L 1294 2753 
L 1863 2753 
Q 2328 2753 2575 2939 
Q 2822 3125 2822 3475 
Q 2822 3834 2567 4026 
Q 2313 4219 1838 4219 
Q 1578 4219 1281 4162 
Q 984 4106 628 3988 
L 628 4550 
Q 988 4650 1302 4700 
Q 1616 4750 1894 4750 
Q 2613 4750 3031 4423 
Q 3450 4097 3450 3541 
Q 3450 3153 3228 2886 
Q 3006 2619 2597 2516 
z
" id="DejaVuSans-33" transform="scale(0.015625)"/>
       </defs>
       <use xlink:href="#DejaVuSans-33"/>
       <use x="63.623047" xlink:href="#DejaVuSans-2e"/>
       <use x="95.410156" xlink:href="#DejaVuSans-30"/>
      </g>
     </g>
    </g>
    <g id="text_7">
     <!-- M(pi0,pi0) -->
     <g transform="translate(197.0475 301.588562)scale(0.1 -0.1)">
      <defs>
       <path d="M 628 4666 
L 1569 4666 
L 2759 1491 
L 3956 4666 
L 4897 4666 
L 4897 0 
L 4281 0 
L 4281 4097 
L 3078 897 
L 2444 897 
L 1241 4097 
L 1241 0 
L 628 0 
L 628 4666 
z
" id="DejaVuSans-4d" transform="scale(0.015625)"/>
       <path d="M 1984 4856 
Q 1566 4138 1362 3434 
Q 1159 2731 1159 2009 
Q 1159 1288 1364 580 
Q 1569 -128 1984 -844 
L 1484 -844 
Q 1016 -109 783 600 
Q 550 1309 550 2009 
Q 550 2706 781 3412 
Q 1013 4119 1484 4856 
L 1984 4856 
z
" id="DejaVuSans-28" transform="scale(0.015625)"/>
       <path d="M 1159 525 
L 1159 -1331 
L 581 -1331 
L 581 3500 
L 1159 3500 
L 1159 2969 
Q 1341 3281 1617 3432 
Q 1894 3584 2278 3584 
Q 2916 3584 3314 3078 
Q 3713 2572 3713 1747 
Q 3713 922 3314 415 
Q 2916 -91 2278 -91 
Q 1894 -91 1617 61 
Q 1341 213 1159 525 
z
M 3116 1747 
Q 3116 2381 2855 2742 
Q 2594 3103 2138 3103 
Q 1681 3103 1420 2742 
Q 1159 2381 1159 1747 
Q 1159 1113 1420 752 
Q 1681 391 2138 391 
Q 2594 391 2855 752 
Q 3116 1113 3116 1747 
z
" id="DejaVuSans-70" transform="scale(0.015625)"/>
       <path d="M 603 3500 
L 1178 3500 
L 1178 0 
L 603 0 
L 603 3500 
z
M 603 4863 
L 1178 4863 
L 1178 4134 
L 603 4134 
L 603 4863 
z
" id="DejaVuSans-69" transform="scale(0.015625)"/>
       <path d="M 750 794 
L 1409 794 
L 1409 256 
L 897 -744 
L 494 -744 
L 750 256 
L 750 794 
z
" id="DejaVuSans-2c" transform="scale(0.015625)"/>
       <path d="M 513 4856 
L 1013 4856 
Q 1481 4119 1714 3412 
Q 1947 2706 1947 2009 
Q 1947 1309 1714 600 
Q 1481 -109 1013 -844 
L 513 -844 
Q 928 -128 1133 580 
Q 1338 1288 1338 2009 
Q 1338 2731 1133 3434 
Q 928 4138 513 4856 
z
" id="DejaVuSans-29" transform="scale(0.015625)"/>
      </defs>
      <use xlink:href="#DejaVuSans-4d"/>
      <use x="86.279297" xlink:href="#DejaVuSans-28"/>
      <use x="125.292969" xlink:href="#DejaVuSans-70"/>
      <use x="188.769531" xlink:href="#DejaVuSans-69"/>
      <use x="216.552734" xlink:href="#DejaVuSans-30"/>
      <use x="280.175781" xlink:href="#DejaVuSans-2c"/>
      <use x="311.962891" xlink:href="#DejaVuSans-70"/>
      <use x="375.439453" xlink:href="#DejaVuSans-69"/>
      <use x="403.222656" xlink:href="#DejaVuSans-30"/>
      <use x="466.845703" xlink:href="#DejaVuSans-29"/>
     </g>
    </g>
   </g>
   <g id="matplotlib.axis_2">
    <g id="ytick_1">
     <g id="line2d_13">
      <path clip-path="url(#peab0b779c4)" d="M 43.78125 273.312 
L 400.90125 273.312 
" style="fill:none;stroke:#b0b0b0;stroke-linecap:square;stroke-width:0.8;"/>
     </g>
     <g id="line2d_14">
      <defs>
       <path d="M 0 0 
L -3.5 0 
" id="m7b8ff11d5b" style="stroke:#000000;stroke-width:0.8;"/>
      </defs>
      <g>
       <use style="stroke:#000000;stroke-width:0.8;" x="43.78125" xlink:href="#m7b8ff11d5b" y="273.312"/>
      </g>
     </g>
     <g id="text_8">
      <!-- 0.0 -->
      <g transform="translate(20.878125 277.111219)scale(0.1 -0.1)">
       <use xlink:href="#DejaVuSans-30"/>
       <use x="63.623047" xlink:href="#DejaVuSans-2e"/>
       <use x="95.410156" xlink:href="#DejaVuSans-30"/>
      </g>
     </g>
    </g>
    <g id="ytick_2">
     <g id="line2d_15">
      <path clip-path="url(#peab0b779c4)" d="M 43.78125 224.844142 
L 400.90125 224.844142 
" style="fill:none;stroke:#b0b0b0;stroke-linecap:square;stroke-width:0.8;"/>
     </g>
     <g id="line2d_16">
      <g>
       <use style="stroke:#000000;stroke-width:0.8;" x="43.78125" xlink:href="#m7b8ff11d5b" y="224.844142"/>
      </g>
     </g>
     <g id="text_9">
      <!-- 0.5 -->
      <g transform="translate(20.878125 228.643361)scale(0.1 -0.1)">
       <use xlink:href="#DejaVuSans-30"/>
       <use x="63.623047" xlink:href="#DejaVuSans-2e"/>
       <use x="95.410156" xlink:href="#DejaVuSans-35"/>
      </g>
     </g>
    </g>
    <g id="ytick_3">
     <g id="line2d_17">
      <path clip-path="url(#peab0b779c4)" d="M 43.78125 176.376284 
L 400.90125 176.376284 
" style="fill:none;stroke:#b0b0b0;stroke-linecap:square;stroke-width:0.8;"/>
     </g>
     <g id="line2d_18">
      <g>
       <use style="stroke:#000000;stroke-width:0.8;" x="43.78125" xlink:href="#m7b8ff11d5b" y="176.376284"/>
      </g>
     </g>
     <g id="text_10">
      <!-- 1.0 -->
      <g transform="translate(20.878125 180.175502)scale(0.1 -0.1)">
       <use xlink:href="#DejaVuSans-31"/>
       <use x="63.623047" xlink:href="#DejaVuSans-2e"/>
       <use x="95.410156" xlink:href="#DejaVuSans-30"/>
      </g>
     </g>
    </g>
    <g id="ytick_4">
     <g id="line2d_19">
      <path clip-path="url(#peab0b779c4)" d="M 43.78125 127.908426 
L 400.90125 127.908426 
" style="fill:none;stroke:#b0b0b0;stroke-linecap:square;stroke-width:0.8;"/>
     </g>
     <g id="line2d_20">
      <g>
       <use style="stroke:#000000;stroke-width:0.8;" x="43.78125" xlink:href="#m7b8ff11d5b" y="127.908426"/>
      </g>
     </g>
     <g id="text_11">
      <!-- 1.5 -->
      <g transform="translate(20.878125 131.707644)scale(0.1 -0.1)">
       <use xlink:href="#DejaVuSans-31"/>
       <use x="63.623047" xlink:href="#DejaVuSans-2e"/>
       <use x="95.410156" xlink:href="#DejaVuSans-35"/>
      </g>
     </g>
    </g>
    <g id="ytick_5">
     <g id="line2d_21">
      <path clip-path="url(#peab0b779c4)" d="M 43.78125 79.440567 
L 400.90125 79.440567 
" style="fill:none;stroke:#b0b0b0;stroke-linecap:square;stroke-width:0.8;"/>
     </g>
     <g id="line2d_22">
      <g>
       <use style="stroke:#000000;stroke-width:0.8;" x="43.78125" xlink:href="#m7b8ff11d5b" y="79.440567"/>
      </g>
     </g>
     <g id="text_12">
      <!-- 2.0 -->
      <g transform="translate(20.878125 83.239786)scale(0.1 -0.1)">
       <use xlink:href="#DejaVuSans-32"/>
       <use x="63.623047" xlink:href="#DejaVuSans-2e"/>
       <use x="95.410156" xlink:href="#DejaVuSans-30"/>
      </g>
     </g>
    </g>
    <g id="ytick_6">
     <g id="line2d_23">
      <path clip-path="url(#peab0b779c4)" d="M 43.78125 30.972709 
L 400.90125 30.972709 
" style="fill:none;stroke:#b0b0b0;stroke-linecap:square;stroke-width:0.8;"/>
     </g>
     <g id="line2d_24">
      <g>
       <use style="stroke:#000000;stroke-width:0.8;" x="43.78125" xlink:href="#m7b8ff11d5b" y="30.972709"/>
      </g>
     </g>
     <g id="text_13">
      <!-- 2.5 -->
      <g transform="translate(20.878125 34.771928)scale(0.1 -0.1)">
       <use xlink:href="#DejaVuSans-32"/>
       <use x="63.623047" xlink:href="#DejaVuSans-2e"/>
       <use x="95.410156" xlink:href="#DejaVuSans-35"/>
      </g>
     </g>
    </g>
    <g id="text_14">
     <!-- normalized intensity -->
     <g transform="translate(14.798438 191.305219)rotate(-90)scale(0.1 -0.1)">
      <defs>
       <path d="M 3513 2113 
L 3513 0 
L 2938 0 
L 2938 2094 
Q 2938 2591 2744 2837 
Q 2550 3084 2163 3084 
Q 1697 3084 1428 2787 
Q 1159 2491 1159 1978 
L 1159 0 
L 581 0 
L 581 3500 
L 1159 3500 
L 1159 2956 
Q 1366 3272 1645 3428 
Q 1925 3584 2291 3584 
Q 2894 3584 3203 3211 
Q 3513 2838 3513 2113 
z
" id="DejaVuSans-6e" transform="scale(0.015625)"/>
       <path d="M 1959 3097 
Q 1497 3097 1228 2736 
Q 959 2375 959 1747 
Q 959 1119 1226 758 
Q 1494 397 1959 397 
Q 2419 397 2687 759 
Q 2956 1122 2956 1747 
Q 2956 2369 2687 2733 
Q 2419 3097 1959 3097 
z
M 1959 3584 
Q 2709 3584 3137 3096 
Q 3566 2609 3566 1747 
Q 3566 888 3137 398 
Q 2709 -91 1959 -91 
Q 1206 -91 779 398 
Q 353 888 353 1747 
Q 353 2609 779 3096 
Q 1206 3584 1959 3584 
z
" id="DejaVuSans-6f" transform="scale(0.015625)"/>
       <path d="M 2631 2963 
Q 2534 3019 2420 3045 
Q 2306 3072 2169 3072 
Q 1681 3072 1420 2755 
Q 1159 2438 1159 1844 
L 1159 0 
L 581 0 
L 581 3500 
L 1159 3500 
L 1159 2956 
Q 1341 3275 1631 3429 
Q 1922 3584 2338 3584 
Q 2397 3584 2469 3576 
Q 2541 3569 2628 3553 
L 2631 2963 
z
" id="DejaVuSans-72" transform="scale(0.015625)"/>
       <path d="M 3328 2828 
Q 3544 3216 3844 3400 
Q 4144 3584 4550 3584 
Q 5097 3584 5394 3201 
Q 5691 2819 5691 2113 
L 5691 0 
L 5113 0 
L 5113 2094 
Q 5113 2597 4934 2840 
Q 4756 3084 4391 3084 
Q 3944 3084 3684 2787 
Q 3425 2491 3425 1978 
L 3425 0 
L 2847 0 
L 2847 2094 
Q 2847 2600 2669 2842 
Q 2491 3084 2119 3084 
Q 1678 3084 1418 2786 
Q 1159 2488 1159 1978 
L 1159 0 
L 581 0 
L 581 3500 
L 1159 3500 
L 1159 2956 
Q 1356 3278 1631 3431 
Q 1906 3584 2284 3584 
Q 2666 3584 2933 3390 
Q 3200 3197 3328 2828 
z
" id="DejaVuSans-6d" transform="scale(0.015625)"/>
       <path d="M 2194 1759 
Q 1497 1759 1228 1600 
Q 959 1441 959 1056 
Q 959 750 1161 570 
Q 1363 391 1709 391 
Q 2188 391 2477 730 
Q 2766 1069 2766 1631 
L 2766 1759 
L 2194 1759 
z
M 3341 1997 
L 3341 0 
L 2766 0 
L 2766 531 
Q 2569 213 2275 61 
Q 1981 -91 1556 -91 
Q 1019 -91 701 211 
Q 384 513 384 1019 
Q 384 1609 779 1909 
Q 1175 2209 1959 2209 
L 2766 2209 
L 2766 2266 
Q 2766 2663 2505 2880 
Q 2244 3097 1772 3097 
Q 1472 3097 1187 3025 
Q 903 2953 641 2809 
L 641 3341 
Q 956 3463 1253 3523 
Q 1550 3584 1831 3584 
Q 2591 3584 2966 3190 
Q 3341 2797 3341 1997 
z
" id="DejaVuSans-61" transform="scale(0.015625)"/>
       <path d="M 603 4863 
L 1178 4863 
L 1178 0 
L 603 0 
L 603 4863 
z
" id="DejaVuSans-6c" transform="scale(0.015625)"/>
       <path d="M 353 3500 
L 3084 3500 
L 3084 2975 
L 922 459 
L 3084 459 
L 3084 0 
L 275 0 
L 275 525 
L 2438 3041 
L 353 3041 
L 353 3500 
z
" id="DejaVuSans-7a" transform="scale(0.015625)"/>
       <path d="M 3597 1894 
L 3597 1613 
L 953 1613 
Q 991 1019 1311 708 
Q 1631 397 2203 397 
Q 2534 397 2845 478 
Q 3156 559 3463 722 
L 3463 178 
Q 3153 47 2828 -22 
Q 2503 -91 2169 -91 
Q 1331 -91 842 396 
Q 353 884 353 1716 
Q 353 2575 817 3079 
Q 1281 3584 2069 3584 
Q 2775 3584 3186 3129 
Q 3597 2675 3597 1894 
z
M 3022 2063 
Q 3016 2534 2758 2815 
Q 2500 3097 2075 3097 
Q 1594 3097 1305 2825 
Q 1016 2553 972 2059 
L 3022 2063 
z
" id="DejaVuSans-65" transform="scale(0.015625)"/>
       <path d="M 2906 2969 
L 2906 4863 
L 3481 4863 
L 3481 0 
L 2906 0 
L 2906 525 
Q 2725 213 2448 61 
Q 2172 -91 1784 -91 
Q 1150 -91 751 415 
Q 353 922 353 1747 
Q 353 2572 751 3078 
Q 1150 3584 1784 3584 
Q 2172 3584 2448 3432 
Q 2725 3281 2906 2969 
z
M 947 1747 
Q 947 1113 1208 752 
Q 1469 391 1925 391 
Q 2381 391 2643 752 
Q 2906 1113 2906 1747 
Q 2906 2381 2643 2742 
Q 2381 3103 1925 3103 
Q 1469 3103 1208 2742 
Q 947 2381 947 1747 
z
" id="DejaVuSans-64" transform="scale(0.015625)"/>
       <path id="DejaVuSans-20" transform="scale(0.015625)"/>
       <path d="M 1172 4494 
L 1172 3500 
L 2356 3500 
L 2356 3053 
L 1172 3053 
L 1172 1153 
Q 1172 725 1289 603 
Q 1406 481 1766 481 
L 2356 481 
L 2356 0 
L 1766 0 
Q 1100 0 847 248 
Q 594 497 594 1153 
L 594 3053 
L 172 3053 
L 172 3500 
L 594 3500 
L 594 4494 
L 1172 4494 
z
" id="DejaVuSans-74" transform="scale(0.015625)"/>
       <path d="M 2834 3397 
L 2834 2853 
Q 2591 2978 2328 3040 
Q 2066 3103 1784 3103 
Q 1356 3103 1142 2972 
Q 928 2841 928 2578 
Q 928 2378 1081 2264 
Q 1234 2150 1697 2047 
L 1894 2003 
Q 2506 1872 2764 1633 
Q 3022 1394 3022 966 
Q 3022 478 2636 193 
Q 2250 -91 1575 -91 
Q 1294 -91 989 -36 
Q 684 19 347 128 
L 347 722 
Q 666 556 975 473 
Q 1284 391 1588 391 
Q 1994 391 2212 530 
Q 2431 669 2431 922 
Q 2431 1156 2273 1281 
Q 2116 1406 1581 1522 
L 1381 1569 
Q 847 1681 609 1914 
Q 372 2147 372 2553 
Q 372 3047 722 3315 
Q 1072 3584 1716 3584 
Q 2034 3584 2315 3537 
Q 2597 3491 2834 3397 
z
" id="DejaVuSans-73" transform="scale(0.015625)"/>
       <path d="M 2059 -325 
Q 1816 -950 1584 -1140 
Q 1353 -1331 966 -1331 
L 506 -1331 
L 506 -850 
L 844 -850 
Q 1081 -850 1212 -737 
Q 1344 -625 1503 -206 
L 1606 56 
L 191 3500 
L 800 3500 
L 1894 763 
L 2988 3500 
L 3597 3500 
L 2059 -325 
z
" id="DejaVuSans-79" transform="scale(0.015625)"/>
      </defs>
      <use xlink:href="#DejaVuSans-6e"/>
      <use x="63.378906" xlink:href="#DejaVuSans-6f"/>
      <use x="124.560547" xlink:href="#DejaVuSans-72"/>
      <use x="163.923828" xlink:href="#DejaVuSans-6d"/>
      <use x="261.335938" xlink:href="#DejaVuSans-61"/>
      <use x="322.615234" xlink:href="#DejaVuSans-6c"/>
      <use x="350.398438" xlink:href="#DejaVuSans-69"/>
      <use x="378.181641" xlink:href="#DejaVuSans-7a"/>
      <use x="430.671875" xlink:href="#DejaVuSans-65"/>
      <use x="492.195312" xlink:href="#DejaVuSans-64"/>
      <use x="555.671875" xlink:href="#DejaVuSans-20"/>
      <use x="587.458984" xlink:href="#DejaVuSans-69"/>
      <use x="615.242188" xlink:href="#DejaVuSans-6e"/>
      <use x="678.621094" xlink:href="#DejaVuSans-74"/>
      <use x="717.830078" xlink:href="#DejaVuSans-65"/>
      <use x="779.353516" xlink:href="#DejaVuSans-6e"/>
      <use x="842.732422" xlink:href="#DejaVuSans-73"/>
      <use x="894.832031" xlink:href="#DejaVuSans-69"/>
      <use x="922.615234" xlink:href="#DejaVuSans-74"/>
      <use x="961.824219" xlink:href="#DejaVuSans-79"/>
     </g>
    </g>
   </g>
   <g id="patch_103">
    <path clip-path="url(#peab0b779c4)" d="M 60.013977 273.312 
L 60.013977 272.775063 
L 63.260523 272.775063 
L 63.260523 272.445144 
L 66.507068 272.445144 
L 66.507068 272.234815 
L 69.753614 272.234815 
L 69.753614 271.823198 
L 73.000159 271.823198 
L 73.000159 271.591347 
L 76.246705 271.591347 
L 76.246705 271.383825 
L 79.49325 271.383825 
L 79.49325 270.968015 
L 82.739795 270.968015 
L 82.739795 270.589791 
L 85.986341 270.589791 
L 85.986341 270.302347 
L 89.232886 270.302347 
L 89.232886 269.864702 
L 92.479432 269.864702 
L 92.479432 269.348146 
L 95.725977 269.348146 
L 95.725977 268.608611 
L 98.972523 268.608611 
L 98.972523 268.243387 
L 102.219068 268.243387 
L 102.219068 267.551409 
L 105.465614 267.551409 
L 105.465614 266.321257 
L 108.712159 266.321257 
L 108.712159 265.296848 
L 111.958705 265.296848 
L 111.958705 263.760249 
L 115.20525 263.760249 
L 115.20525 261.894767 
L 118.451795 261.894767 
L 118.451795 259.02358 
L 121.698341 259.02358 
L 121.698341 256.684712 
L 124.944886 256.684712 
L 124.944886 249.387634 
L 128.191432 249.387634 
L 128.191432 240.907324 
L 131.437977 240.907324 
L 131.437977 226.752541 
L 134.684523 226.752541 
L 134.684523 192.674853 
L 137.931068 192.674853 
L 137.931068 132.143451 
L 141.177614 132.143451 
L 141.177614 84.320707 
L 144.424159 84.320707 
L 144.424159 155.524662 
L 147.670705 155.524662 
L 147.670705 228.310392 
L 150.91725 228.310392 
L 150.91725 255.470755 
L 154.163795 255.470755 
L 154.163795 263.550848 
L 157.410341 263.550848 
L 157.410341 265.5106 
L 160.656886 265.5106 
L 160.656886 264.317113 
L 163.903432 264.317113 
L 163.903432 261.749625 
L 167.149977 261.749625 
L 167.149977 258.510768 
L 170.396523 258.510768 
L 170.396523 254.680026 
L 173.643068 254.680026 
L 173.643068 255.401444 
L 176.889614 255.401444 
L 176.889614 254.751352 
L 180.136159 254.751352 
L 180.136159 252.835227 
L 183.382705 252.835227 
L 183.382705 245.4231 
L 186.62925 245.4231 
L 186.62925 235.085397 
L 189.875795 235.085397 
L 189.875795 210.141376 
L 193.122341 210.141376 
L 193.122341 165.884925 
L 196.368886 165.884925 
L 196.368886 90.122556 
L 199.615432 90.122556 
L 199.615432 19.872 
L 202.861977 19.872 
L 202.861977 39.857877 
L 206.108523 39.857877 
L 206.108523 113.861164 
L 209.355068 113.861164 
L 209.355068 169.170928 
L 212.601614 169.170928 
L 212.601614 200.567716 
L 215.848159 200.567716 
L 215.848159 213.727573 
L 219.094705 213.727573 
L 219.094705 224.384255 
L 222.34125 224.384255 
L 222.34125 225.235691 
L 225.587795 225.235691 
L 225.587795 224.014819 
L 228.834341 224.014819 
L 228.834341 221.628594 
L 232.080886 221.628594 
L 232.080886 218.020508 
L 235.327432 218.020508 
L 235.327432 213.15246 
L 238.573977 213.15246 
L 238.573977 206.305053 
L 241.820523 206.305053 
L 241.820523 203.370966 
L 245.067068 203.370966 
L 245.067068 202.250705 
L 248.313614 202.250705 
L 248.313614 205.012582 
L 251.560159 205.012582 
L 251.560159 212.787276 
L 254.806705 212.787276 
L 254.806705 214.5367 
L 258.05325 214.5367 
L 258.05325 220.308194 
L 261.299795 220.308194 
L 261.299795 225.158573 
L 264.546341 225.158573 
L 264.546341 231.208075 
L 267.792886 231.208075 
L 267.792886 238.371796 
L 271.039432 238.371796 
L 271.039432 239.090193 
L 274.285977 239.090193 
L 274.285977 243.021381 
L 277.532523 243.021381 
L 277.532523 248.353056 
L 280.779068 248.353056 
L 280.779068 249.771226 
L 284.025614 249.771226 
L 284.025614 252.358761 
L 287.272159 252.358761 
L 287.272159 255.181945 
L 290.518705 255.181945 
L 290.518705 256.142042 
L 293.76525 256.142042 
L 293.76525 258.144359 
L 297.011795 258.144359 
L 297.011795 258.500979 
L 300.258341 258.500979 
L 300.258341 260.80725 
L 303.504886 260.80725 
L 303.504886 262.167509 
L 306.751432 262.167509 
L 306.751432 262.748896 
L 309.997977 262.748896 
L 309.997977 263.994244 
L 313.244523 263.994244 
L 313.244523 264.606301 
L 316.491068 264.606301 
L 316.491068 265.727134 
L 322.984159 265.674132 
L 322.984159 266.45267 
L 326.230705 266.45267 
L 326.230705 267.502893 
L 329.47725 267.502893 
L 329.47725 268.083856 
L 332.723795 268.083856 
L 332.723795 268.486194 
L 335.970341 268.486194 
L 335.970341 269.207236 
L 339.216886 269.207236 
L 339.216886 269.369075 
L 342.463432 269.369075 
L 342.463432 269.853796 
L 345.709977 269.853796 
L 345.709977 270.25031 
L 348.956523 270.25031 
L 348.956523 270.653321 
L 352.203068 270.653321 
L 352.203068 271.146034 
L 358.696159 271.166153 
L 358.696159 271.640337 
L 361.942705 271.640337 
L 361.942705 271.82541 
L 365.18925 271.82541 
L 365.18925 271.983318 
L 368.435795 271.983318 
L 368.435795 272.32758 
L 371.682341 272.32758 
L 371.682341 272.48425 
L 374.928886 272.48425 
L 374.928886 272.758925 
L 378.175432 272.758925 
L 378.175432 273.015168 
L 381.421977 273.015168 
L 381.421977 273.18952 
L 384.668523 273.18952 
L 384.668523 273.312 
L 384.668523 273.312 
" style="fill:none;stroke:#ff0000;stroke-linejoin:miter;"/>
   </g>
   <g id="patch_104">
    <path d="M 43.78125 273.312 
L 43.78125 7.2 
" style="fill:none;stroke:#000000;stroke-linecap:square;stroke-linejoin:miter;stroke-width:0.8;"/>
   </g>
   <g id="patch_105">
    <path d="M 400.90125 273.312 
L 400.90125 7.2 
" style="fill:none;stroke:#000000;stroke-linecap:square;stroke-linejoin:miter;stroke-width:0.8;"/>
   </g>
   <g id="patch_106">
    <path d="M 43.78125 273.312 
L 400.90125 273.312 
" style="fill:none;stroke:#000000;stroke-linecap:square;stroke-linejoin:miter;stroke-width:0.8;"/>
   </g>
   <g id="patch_107">
    <path d="M 43.78125 7.2 
L 400.90125 7.2 
" style="fill:none;stroke:#000000;stroke-linecap:square;stroke-linejoin:miter;stroke-width:0.8;"/>
   </g>
   <g id="legend_1">
    <g id="patch_108">
     <path d="M 339.37625 44.55625 
L 393.90125 44.55625 
Q 395.90125 44.55625 395.90125 42.55625 
L 395.90125 14.2 
Q 395.90125 12.2 393.90125 12.2 
L 339.37625 12.2 
Q 337.37625 12.2 337.37625 14.2 
L 337.37625 42.55625 
Q 337.37625 44.55625 339.37625 44.55625 
z
" style="fill:#ffffff;opacity:0.8;stroke:#cccccc;stroke-linejoin:miter;"/>
    </g>
    <g id="patch_109">
     <path d="M 341.37625 23.798437 
L 361.37625 23.798437 
L 361.37625 16.798437 
L 341.37625 16.798437 
z
" style="fill:#1f77b4;opacity:0.5;"/>
    </g>
    <g id="text_15">
     <!-- data -->
     <g transform="translate(369.37625 23.798437)scale(0.1 -0.1)">
      <use xlink:href="#DejaVuSans-64"/>
      <use x="63.476562" xlink:href="#DejaVuSans-61"/>
      <use x="124.755859" xlink:href="#DejaVuSans-74"/>
      <use x="163.964844" xlink:href="#DejaVuSans-61"/>
     </g>
    </g>
    <g id="patch_110">
     <path d="M 341.37625 38.476562 
L 361.37625 38.476562 
L 361.37625 31.476562 
L 341.37625 31.476562 
z
" style="fill:none;stroke:#ff0000;stroke-linejoin:miter;"/>
    </g>
    <g id="text_16">
     <!-- fit -->
     <g transform="translate(369.37625 38.476562)scale(0.1 -0.1)">
      <defs>
       <path d="M 2375 4863 
L 2375 4384 
L 1825 4384 
Q 1516 4384 1395 4259 
Q 1275 4134 1275 3809 
L 1275 3500 
L 2222 3500 
L 2222 3053 
L 1275 3053 
L 1275 0 
L 697 0 
L 697 3053 
L 147 3053 
L 147 3500 
L 697 3500 
L 697 3744 
Q 697 4328 969 4595 
Q 1241 4863 1831 4863 
L 2375 4863 
z
" id="DejaVuSans-66" transform="scale(0.015625)"/>
      </defs>
      <use xlink:href="#DejaVuSans-66"/>
      <use x="35.205078" xlink:href="#DejaVuSans-69"/>
      <use x="62.988281" xlink:href="#DejaVuSans-74"/>
     </g>
    </g>
   </g>
  </g>
 </g>
 <defs>
  <clipPath id="peab0b779c4">
   <rect height="266.112" width="357.12" x="43.78125" y="7.2"/>
  </clipPath>
 </defs>
</svg>
