<?xml version="1.0" encoding="utf-8" standalone="no"?>
<!DOCTYPE svg PUBLIC "-//W3C//DTD SVG 1.1//EN"
  "http://www.w3.org/Graphics/SVG/1.1/DTD/svg11.dtd">
<svg height="326.80825pt" version="1.1" viewBox="0 0 391.245 326.80825" width="391.245pt" xmlns="http://www.w3.org/2000/svg" xmlns:xlink="http://www.w3.org/1999/xlink">
 <metadata>
  <rdf:RDF xmlns:cc="http://creativecommons.org/ns#" xmlns:dc="http://purl.org/dc/elements/1.1/" xmlns:rdf="http://www.w3.org/1999/02/22-rdf-syntax-ns#">
   <cc:Work>
    <dc:type rdf:resource="http://purl.org/dc/dcmitype/StillImage"/>
    <dc:date>2021-10-23T15:18:43.939014</dc:date>
    <dc:format>image/svg+xml</dc:format>
    <dc:creator>
     <cc:Agent>
      <dc:title>Matplotlib v3.4.3, https://matplotlib.org/</dc:title>
     </cc:Agent>
    </dc:creator>
   </cc:Work>
  </rdf:RDF>
 </metadata>
 <defs>
  <style type="text/css">*{stroke-linecap:butt;stroke-linejoin:round;}</style>
 </defs>
 <g id="figure_1">
  <g id="patch_1">
   <path d="M 0 326.80825 
L 391.245 326.80825 
L 391.245 0 
L 0 0 
z
" style="fill:#ffffff;"/>
  </g>
  <g id="axes_1">
   <g id="patch_2">
    <path d="M 26.925 288.430125 
L 384.045 288.430125 
L 384.045 22.318125 
L 26.925 22.318125 
z
" style="fill:#ffffff;"/>
   </g>
   <g id="patch_3">
    <path clip-path="url(#pc6cf4b4abe)" d="M 50.808406 288.430125 
L 52.732026 288.430125 
L 52.732026 278.292525 
L 50.808406 278.292525 
z
" style="fill:#1f77b4;opacity:0.5;"/>
   </g>
   <g id="patch_4">
    <path clip-path="url(#pc6cf4b4abe)" d="M 52.732026 288.430125 
L 54.655646 288.430125 
L 54.655646 288.430125 
L 52.732026 288.430125 
z
" style="fill:#1f77b4;opacity:0.5;"/>
   </g>
   <g id="patch_5">
    <path clip-path="url(#pc6cf4b4abe)" d="M 54.655646 288.430125 
L 56.579266 288.430125 
L 56.579266 288.430125 
L 54.655646 288.430125 
z
" style="fill:#1f77b4;opacity:0.5;"/>
   </g>
   <g id="patch_6">
    <path clip-path="url(#pc6cf4b4abe)" d="M 56.579266 288.430125 
L 58.502887 288.430125 
L 58.502887 288.430125 
L 56.579266 288.430125 
z
" style="fill:#1f77b4;opacity:0.5;"/>
   </g>
   <g id="patch_7">
    <path clip-path="url(#pc6cf4b4abe)" d="M 58.502887 288.430125 
L 60.426507 288.430125 
L 60.426507 288.430125 
L 58.502887 288.430125 
z
" style="fill:#1f77b4;opacity:0.5;"/>
   </g>
   <g id="patch_8">
    <path clip-path="url(#pc6cf4b4abe)" d="M 60.426507 288.430125 
L 62.350127 288.430125 
L 62.350127 288.430125 
L 60.426507 288.430125 
z
" style="fill:#1f77b4;opacity:0.5;"/>
   </g>
   <g id="patch_9">
    <path clip-path="url(#pc6cf4b4abe)" d="M 62.350127 288.430125 
L 64.273747 288.430125 
L 64.273747 288.430125 
L 62.350127 288.430125 
z
" style="fill:#1f77b4;opacity:0.5;"/>
   </g>
   <g id="patch_10">
    <path clip-path="url(#pc6cf4b4abe)" d="M 64.273747 288.430125 
L 66.197367 288.430125 
L 66.197367 288.430125 
L 64.273747 288.430125 
z
" style="fill:#1f77b4;opacity:0.5;"/>
   </g>
   <g id="patch_11">
    <path clip-path="url(#pc6cf4b4abe)" d="M 66.197367 288.430125 
L 68.120987 288.430125 
L 68.120987 288.430125 
L 66.197367 288.430125 
z
" style="fill:#1f77b4;opacity:0.5;"/>
   </g>
   <g id="patch_12">
    <path clip-path="url(#pc6cf4b4abe)" d="M 68.120987 288.430125 
L 70.044607 288.430125 
L 70.044607 288.430125 
L 68.120987 288.430125 
z
" style="fill:#1f77b4;opacity:0.5;"/>
   </g>
   <g id="patch_13">
    <path clip-path="url(#pc6cf4b4abe)" d="M 70.044607 288.430125 
L 71.968228 288.430125 
L 71.968228 288.430125 
L 70.044607 288.430125 
z
" style="fill:#1f77b4;opacity:0.5;"/>
   </g>
   <g id="patch_14">
    <path clip-path="url(#pc6cf4b4abe)" d="M 71.968228 288.430125 
L 73.891848 288.430125 
L 73.891848 288.430125 
L 71.968228 288.430125 
z
" style="fill:#1f77b4;opacity:0.5;"/>
   </g>
   <g id="patch_15">
    <path clip-path="url(#pc6cf4b4abe)" d="M 73.891848 288.430125 
L 75.815468 288.430125 
L 75.815468 288.430125 
L 73.891848 288.430125 
z
" style="fill:#1f77b4;opacity:0.5;"/>
   </g>
   <g id="patch_16">
    <path clip-path="url(#pc6cf4b4abe)" d="M 75.815468 288.430125 
L 77.739088 288.430125 
L 77.739088 288.430125 
L 75.815468 288.430125 
z
" style="fill:#1f77b4;opacity:0.5;"/>
   </g>
   <g id="patch_17">
    <path clip-path="url(#pc6cf4b4abe)" d="M 77.739088 288.430125 
L 79.662708 288.430125 
L 79.662708 288.430125 
L 77.739088 288.430125 
z
" style="fill:#1f77b4;opacity:0.5;"/>
   </g>
   <g id="patch_18">
    <path clip-path="url(#pc6cf4b4abe)" d="M 79.662708 288.430125 
L 81.586328 288.430125 
L 81.586328 288.430125 
L 79.662708 288.430125 
z
" style="fill:#1f77b4;opacity:0.5;"/>
   </g>
   <g id="patch_19">
    <path clip-path="url(#pc6cf4b4abe)" d="M 81.586328 288.430125 
L 83.509948 288.430125 
L 83.509948 288.430125 
L 81.586328 288.430125 
z
" style="fill:#1f77b4;opacity:0.5;"/>
   </g>
   <g id="patch_20">
    <path clip-path="url(#pc6cf4b4abe)" d="M 83.509948 288.430125 
L 85.433569 288.430125 
L 85.433569 288.430125 
L 83.509948 288.430125 
z
" style="fill:#1f77b4;opacity:0.5;"/>
   </g>
   <g id="patch_21">
    <path clip-path="url(#pc6cf4b4abe)" d="M 85.433569 288.430125 
L 87.357189 288.430125 
L 87.357189 288.430125 
L 85.433569 288.430125 
z
" style="fill:#1f77b4;opacity:0.5;"/>
   </g>
   <g id="patch_22">
    <path clip-path="url(#pc6cf4b4abe)" d="M 87.357189 288.430125 
L 89.280809 288.430125 
L 89.280809 278.292525 
L 87.357189 278.292525 
z
" style="fill:#1f77b4;opacity:0.5;"/>
   </g>
   <g id="patch_23">
    <path clip-path="url(#pc6cf4b4abe)" d="M 89.280809 288.430125 
L 91.204429 288.430125 
L 91.204429 288.430125 
L 89.280809 288.430125 
z
" style="fill:#1f77b4;opacity:0.5;"/>
   </g>
   <g id="patch_24">
    <path clip-path="url(#pc6cf4b4abe)" d="M 91.204429 288.430125 
L 93.128049 288.430125 
L 93.128049 278.292525 
L 91.204429 278.292525 
z
" style="fill:#1f77b4;opacity:0.5;"/>
   </g>
   <g id="patch_25">
    <path clip-path="url(#pc6cf4b4abe)" d="M 93.128049 288.430125 
L 95.051669 288.430125 
L 95.051669 288.430125 
L 93.128049 288.430125 
z
" style="fill:#1f77b4;opacity:0.5;"/>
   </g>
   <g id="patch_26">
    <path clip-path="url(#pc6cf4b4abe)" d="M 95.051669 288.430125 
L 96.97529 288.430125 
L 96.97529 288.430125 
L 95.051669 288.430125 
z
" style="fill:#1f77b4;opacity:0.5;"/>
   </g>
   <g id="patch_27">
    <path clip-path="url(#pc6cf4b4abe)" d="M 96.97529 288.430125 
L 98.89891 288.430125 
L 98.89891 288.430125 
L 96.97529 288.430125 
z
" style="fill:#1f77b4;opacity:0.5;"/>
   </g>
   <g id="patch_28">
    <path clip-path="url(#pc6cf4b4abe)" d="M 98.89891 288.430125 
L 100.82253 288.430125 
L 100.82253 288.430125 
L 98.89891 288.430125 
z
" style="fill:#1f77b4;opacity:0.5;"/>
   </g>
   <g id="patch_29">
    <path clip-path="url(#pc6cf4b4abe)" d="M 100.82253 288.430125 
L 102.74615 288.430125 
L 102.74615 278.292525 
L 100.82253 278.292525 
z
" style="fill:#1f77b4;opacity:0.5;"/>
   </g>
   <g id="patch_30">
    <path clip-path="url(#pc6cf4b4abe)" d="M 102.74615 288.430125 
L 104.66977 288.430125 
L 104.66977 288.430125 
L 102.74615 288.430125 
z
" style="fill:#1f77b4;opacity:0.5;"/>
   </g>
   <g id="patch_31">
    <path clip-path="url(#pc6cf4b4abe)" d="M 104.66977 288.430125 
L 106.59339 288.430125 
L 106.59339 288.430125 
L 104.66977 288.430125 
z
" style="fill:#1f77b4;opacity:0.5;"/>
   </g>
   <g id="patch_32">
    <path clip-path="url(#pc6cf4b4abe)" d="M 106.59339 288.430125 
L 108.51701 288.430125 
L 108.51701 278.292525 
L 106.59339 278.292525 
z
" style="fill:#1f77b4;opacity:0.5;"/>
   </g>
   <g id="patch_33">
    <path clip-path="url(#pc6cf4b4abe)" d="M 108.51701 288.430125 
L 110.440631 288.430125 
L 110.440631 268.154925 
L 108.51701 268.154925 
z
" style="fill:#1f77b4;opacity:0.5;"/>
   </g>
   <g id="patch_34">
    <path clip-path="url(#pc6cf4b4abe)" d="M 110.440631 288.430125 
L 112.364251 288.430125 
L 112.364251 268.154925 
L 110.440631 268.154925 
z
" style="fill:#1f77b4;opacity:0.5;"/>
   </g>
   <g id="patch_35">
    <path clip-path="url(#pc6cf4b4abe)" d="M 112.364251 288.430125 
L 114.287871 288.430125 
L 114.287871 258.017325 
L 112.364251 258.017325 
z
" style="fill:#1f77b4;opacity:0.5;"/>
   </g>
   <g id="patch_36">
    <path clip-path="url(#pc6cf4b4abe)" d="M 114.287871 288.430125 
L 116.211491 288.430125 
L 116.211491 247.879725 
L 114.287871 247.879725 
z
" style="fill:#1f77b4;opacity:0.5;"/>
   </g>
   <g id="patch_37">
    <path clip-path="url(#pc6cf4b4abe)" d="M 116.211491 288.430125 
L 118.135111 288.430125 
L 118.135111 268.154925 
L 116.211491 268.154925 
z
" style="fill:#1f77b4;opacity:0.5;"/>
   </g>
   <g id="patch_38">
    <path clip-path="url(#pc6cf4b4abe)" d="M 118.135111 288.430125 
L 120.058731 288.430125 
L 120.058731 217.466925 
L 118.135111 217.466925 
z
" style="fill:#1f77b4;opacity:0.5;"/>
   </g>
   <g id="patch_39">
    <path clip-path="url(#pc6cf4b4abe)" d="M 120.058731 288.430125 
L 121.982351 288.430125 
L 121.982351 217.466925 
L 120.058731 217.466925 
z
" style="fill:#1f77b4;opacity:0.5;"/>
   </g>
   <g id="patch_40">
    <path clip-path="url(#pc6cf4b4abe)" d="M 121.982351 288.430125 
L 123.905972 288.430125 
L 123.905972 166.778925 
L 121.982351 166.778925 
z
" style="fill:#1f77b4;opacity:0.5;"/>
   </g>
   <g id="patch_41">
    <path clip-path="url(#pc6cf4b4abe)" d="M 123.905972 288.430125 
L 125.829592 288.430125 
L 125.829592 75.540525 
L 123.905972 75.540525 
z
" style="fill:#1f77b4;opacity:0.5;"/>
   </g>
   <g id="patch_42">
    <path clip-path="url(#pc6cf4b4abe)" d="M 125.829592 288.430125 
L 127.753212 288.430125 
L 127.753212 126.228525 
L 125.829592 126.228525 
z
" style="fill:#1f77b4;opacity:0.5;"/>
   </g>
   <g id="patch_43">
    <path clip-path="url(#pc6cf4b4abe)" d="M 127.753212 288.430125 
L 129.676832 288.430125 
L 129.676832 34.990125 
L 127.753212 34.990125 
z
" style="fill:#1f77b4;opacity:0.5;"/>
   </g>
   <g id="patch_44">
    <path clip-path="url(#pc6cf4b4abe)" d="M 129.676832 288.430125 
L 131.600452 288.430125 
L 131.600452 207.329325 
L 129.676832 207.329325 
z
" style="fill:#1f77b4;opacity:0.5;"/>
   </g>
   <g id="patch_45">
    <path clip-path="url(#pc6cf4b4abe)" d="M 131.600452 288.430125 
L 133.524072 288.430125 
L 133.524072 207.329325 
L 131.600452 207.329325 
z
" style="fill:#1f77b4;opacity:0.5;"/>
   </g>
   <g id="patch_46">
    <path clip-path="url(#pc6cf4b4abe)" d="M 133.524072 288.430125 
L 135.447692 288.430125 
L 135.447692 217.466925 
L 133.524072 217.466925 
z
" style="fill:#1f77b4;opacity:0.5;"/>
   </g>
   <g id="patch_47">
    <path clip-path="url(#pc6cf4b4abe)" d="M 135.447692 288.430125 
L 137.371313 288.430125 
L 137.371313 247.879725 
L 135.447692 247.879725 
z
" style="fill:#1f77b4;opacity:0.5;"/>
   </g>
   <g id="patch_48">
    <path clip-path="url(#pc6cf4b4abe)" d="M 137.371313 288.430125 
L 139.294933 288.430125 
L 139.294933 247.879725 
L 137.371313 247.879725 
z
" style="fill:#1f77b4;opacity:0.5;"/>
   </g>
   <g id="patch_49">
    <path clip-path="url(#pc6cf4b4abe)" d="M 139.294933 288.430125 
L 141.218553 288.430125 
L 141.218553 268.154925 
L 139.294933 268.154925 
z
" style="fill:#1f77b4;opacity:0.5;"/>
   </g>
   <g id="patch_50">
    <path clip-path="url(#pc6cf4b4abe)" d="M 141.218553 288.430125 
L 143.142173 288.430125 
L 143.142173 268.154925 
L 141.218553 268.154925 
z
" style="fill:#1f77b4;opacity:0.5;"/>
   </g>
   <g id="patch_51">
    <path clip-path="url(#pc6cf4b4abe)" d="M 143.142173 288.430125 
L 145.065793 288.430125 
L 145.065793 278.292525 
L 143.142173 278.292525 
z
" style="fill:#1f77b4;opacity:0.5;"/>
   </g>
   <g id="patch_52">
    <path clip-path="url(#pc6cf4b4abe)" d="M 145.065793 288.430125 
L 146.989413 288.430125 
L 146.989413 278.292525 
L 145.065793 278.292525 
z
" style="fill:#1f77b4;opacity:0.5;"/>
   </g>
   <g id="patch_53">
    <path clip-path="url(#pc6cf4b4abe)" d="M 146.989413 288.430125 
L 148.913033 288.430125 
L 148.913033 278.292525 
L 146.989413 278.292525 
z
" style="fill:#1f77b4;opacity:0.5;"/>
   </g>
   <g id="patch_54">
    <path clip-path="url(#pc6cf4b4abe)" d="M 148.913033 288.430125 
L 150.836654 288.430125 
L 150.836654 258.017325 
L 148.913033 258.017325 
z
" style="fill:#1f77b4;opacity:0.5;"/>
   </g>
   <g id="patch_55">
    <path clip-path="url(#pc6cf4b4abe)" d="M 150.836654 288.430125 
L 152.760274 288.430125 
L 152.760274 278.292525 
L 150.836654 278.292525 
z
" style="fill:#1f77b4;opacity:0.5;"/>
   </g>
   <g id="patch_56">
    <path clip-path="url(#pc6cf4b4abe)" d="M 152.760274 288.430125 
L 154.683894 288.430125 
L 154.683894 278.292525 
L 152.760274 278.292525 
z
" style="fill:#1f77b4;opacity:0.5;"/>
   </g>
   <g id="patch_57">
    <path clip-path="url(#pc6cf4b4abe)" d="M 154.683894 288.430125 
L 156.607514 288.430125 
L 156.607514 288.430125 
L 154.683894 288.430125 
z
" style="fill:#1f77b4;opacity:0.5;"/>
   </g>
   <g id="patch_58">
    <path clip-path="url(#pc6cf4b4abe)" d="M 156.607514 288.430125 
L 158.531134 288.430125 
L 158.531134 288.430125 
L 156.607514 288.430125 
z
" style="fill:#1f77b4;opacity:0.5;"/>
   </g>
   <g id="patch_59">
    <path clip-path="url(#pc6cf4b4abe)" d="M 158.531134 288.430125 
L 160.454754 288.430125 
L 160.454754 278.292525 
L 158.531134 278.292525 
z
" style="fill:#1f77b4;opacity:0.5;"/>
   </g>
   <g id="patch_60">
    <path clip-path="url(#pc6cf4b4abe)" d="M 160.454754 288.430125 
L 162.378374 288.430125 
L 162.378374 288.430125 
L 160.454754 288.430125 
z
" style="fill:#1f77b4;opacity:0.5;"/>
   </g>
   <g id="patch_61">
    <path clip-path="url(#pc6cf4b4abe)" d="M 162.378374 288.430125 
L 164.301995 288.430125 
L 164.301995 288.430125 
L 162.378374 288.430125 
z
" style="fill:#1f77b4;opacity:0.5;"/>
   </g>
   <g id="patch_62">
    <path clip-path="url(#pc6cf4b4abe)" d="M 164.301995 288.430125 
L 166.225615 288.430125 
L 166.225615 278.292525 
L 164.301995 278.292525 
z
" style="fill:#1f77b4;opacity:0.5;"/>
   </g>
   <g id="matplotlib.axis_1">
    <g id="xtick_1">
     <g id="line2d_1">
      <path clip-path="url(#pc6cf4b4abe)" d="M 68.653125 288.430125 
L 68.653125 22.318125 
" style="fill:none;stroke:#b0b0b0;stroke-linecap:square;stroke-width:0.8;"/>
     </g>
     <g id="line2d_2">
      <defs>
       <path d="M 0 0 
L 0 3.5 
" id="me90e02fe8b" style="stroke:#000000;stroke-width:0.8;"/>
      </defs>
      <g>
       <use style="stroke:#000000;stroke-width:0.8;" x="68.653125" xlink:href="#me90e02fe8b" y="288.430125"/>
      </g>
     </g>
     <g id="text_1">
      <!-- 0.5 -->
      <g transform="translate(60.701563 303.028562)scale(0.1 -0.1)">
       <defs>
        <path d="M 2034 4250 
Q 1547 4250 1301 3770 
Q 1056 3291 1056 2328 
Q 1056 1369 1301 889 
Q 1547 409 2034 409 
Q 2525 409 2770 889 
Q 3016 1369 3016 2328 
Q 3016 3291 2770 3770 
Q 2525 4250 2034 4250 
z
M 2034 4750 
Q 2819 4750 3233 4129 
Q 3647 3509 3647 2328 
Q 3647 1150 3233 529 
Q 2819 -91 2034 -91 
Q 1250 -91 836 529 
Q 422 1150 422 2328 
Q 422 3509 836 4129 
Q 1250 4750 2034 4750 
z
" id="DejaVuSans-30" transform="scale(0.015625)"/>
        <path d="M 684 794 
L 1344 794 
L 1344 0 
L 684 0 
L 684 794 
z
" id="DejaVuSans-2e" transform="scale(0.015625)"/>
        <path d="M 691 4666 
L 3169 4666 
L 3169 4134 
L 1269 4134 
L 1269 2991 
Q 1406 3038 1543 3061 
Q 1681 3084 1819 3084 
Q 2600 3084 3056 2656 
Q 3513 2228 3513 1497 
Q 3513 744 3044 326 
Q 2575 -91 1722 -91 
Q 1428 -91 1123 -41 
Q 819 9 494 109 
L 494 744 
Q 775 591 1075 516 
Q 1375 441 1709 441 
Q 2250 441 2565 725 
Q 2881 1009 2881 1497 
Q 2881 1984 2565 2268 
Q 2250 2553 1709 2553 
Q 1456 2553 1204 2497 
Q 953 2441 691 2322 
L 691 4666 
z
" id="DejaVuSans-35" transform="scale(0.015625)"/>
       </defs>
       <use xlink:href="#DejaVuSans-30"/>
       <use x="63.623047" xlink:href="#DejaVuSans-2e"/>
       <use x="95.410156" xlink:href="#DejaVuSans-35"/>
      </g>
     </g>
    </g>
    <g id="xtick_2">
     <g id="line2d_3">
      <path clip-path="url(#pc6cf4b4abe)" d="M 127.881387 288.430125 
L 127.881387 22.318125 
" style="fill:none;stroke:#b0b0b0;stroke-linecap:square;stroke-width:0.8;"/>
     </g>
     <g id="line2d_4">
      <g>
       <use style="stroke:#000000;stroke-width:0.8;" x="127.881387" xlink:href="#me90e02fe8b" y="288.430125"/>
      </g>
     </g>
     <g id="text_2">
      <!-- 1.0 -->
      <g transform="translate(119.929824 303.028562)scale(0.1 -0.1)">
       <defs>
        <path d="M 794 531 
L 1825 531 
L 1825 4091 
L 703 3866 
L 703 4441 
L 1819 4666 
L 2450 4666 
L 2450 531 
L 3481 531 
L 3481 0 
L 794 0 
L 794 531 
z
" id="DejaVuSans-31" transform="scale(0.015625)"/>
       </defs>
       <use xlink:href="#DejaVuSans-31"/>
       <use x="63.623047" xlink:href="#DejaVuSans-2e"/>
       <use x="95.410156" xlink:href="#DejaVuSans-30"/>
      </g>
     </g>
    </g>
    <g id="xtick_3">
     <g id="line2d_5">
      <path clip-path="url(#pc6cf4b4abe)" d="M 187.109648 288.430125 
L 187.109648 22.318125 
" style="fill:none;stroke:#b0b0b0;stroke-linecap:square;stroke-width:0.8;"/>
     </g>
     <g id="line2d_6">
      <g>
       <use style="stroke:#000000;stroke-width:0.8;" x="187.109648" xlink:href="#me90e02fe8b" y="288.430125"/>
      </g>
     </g>
     <g id="text_3">
      <!-- 1.5 -->
      <g transform="translate(179.158086 303.028562)scale(0.1 -0.1)">
       <use xlink:href="#DejaVuSans-31"/>
       <use x="63.623047" xlink:href="#DejaVuSans-2e"/>
       <use x="95.410156" xlink:href="#DejaVuSans-35"/>
      </g>
     </g>
    </g>
    <g id="xtick_4">
     <g id="line2d_7">
      <path clip-path="url(#pc6cf4b4abe)" d="M 246.33791 288.430125 
L 246.33791 22.318125 
" style="fill:none;stroke:#b0b0b0;stroke-linecap:square;stroke-width:0.8;"/>
     </g>
     <g id="line2d_8">
      <g>
       <use style="stroke:#000000;stroke-width:0.8;" x="246.33791" xlink:href="#me90e02fe8b" y="288.430125"/>
      </g>
     </g>
     <g id="text_4">
      <!-- 2.0 -->
      <g transform="translate(238.386347 303.028562)scale(0.1 -0.1)">
       <defs>
        <path d="M 1228 531 
L 3431 531 
L 3431 0 
L 469 0 
L 469 531 
Q 828 903 1448 1529 
Q 2069 2156 2228 2338 
Q 2531 2678 2651 2914 
Q 2772 3150 2772 3378 
Q 2772 3750 2511 3984 
Q 2250 4219 1831 4219 
Q 1534 4219 1204 4116 
Q 875 4013 500 3803 
L 500 4441 
Q 881 4594 1212 4672 
Q 1544 4750 1819 4750 
Q 2544 4750 2975 4387 
Q 3406 4025 3406 3419 
Q 3406 3131 3298 2873 
Q 3191 2616 2906 2266 
Q 2828 2175 2409 1742 
Q 1991 1309 1228 531 
z
" id="DejaVuSans-32" transform="scale(0.015625)"/>
       </defs>
       <use xlink:href="#DejaVuSans-32"/>
       <use x="63.623047" xlink:href="#DejaVuSans-2e"/>
       <use x="95.410156" xlink:href="#DejaVuSans-30"/>
      </g>
     </g>
    </g>
    <g id="xtick_5">
     <g id="line2d_9">
      <path clip-path="url(#pc6cf4b4abe)" d="M 305.566171 288.430125 
L 305.566171 22.318125 
" style="fill:none;stroke:#b0b0b0;stroke-linecap:square;stroke-width:0.8;"/>
     </g>
     <g id="line2d_10">
      <g>
       <use style="stroke:#000000;stroke-width:0.8;" x="305.566171" xlink:href="#me90e02fe8b" y="288.430125"/>
      </g>
     </g>
     <g id="text_5">
      <!-- 2.5 -->
      <g transform="translate(297.614609 303.028562)scale(0.1 -0.1)">
       <use xlink:href="#DejaVuSans-32"/>
       <use x="63.623047" xlink:href="#DejaVuSans-2e"/>
       <use x="95.410156" xlink:href="#DejaVuSans-35"/>
      </g>
     </g>
    </g>
    <g id="xtick_6">
     <g id="line2d_11">
      <path clip-path="url(#pc6cf4b4abe)" d="M 364.794433 288.430125 
L 364.794433 22.318125 
" style="fill:none;stroke:#b0b0b0;stroke-linecap:square;stroke-width:0.8;"/>
     </g>
     <g id="line2d_12">
      <g>
       <use style="stroke:#000000;stroke-width:0.8;" x="364.794433" xlink:href="#me90e02fe8b" y="288.430125"/>
      </g>
     </g>
     <g id="text_6">
      <!-- 3.0 -->
      <g transform="translate(356.84287 303.028562)scale(0.1 -0.1)">
       <defs>
        <path d="M 2597 2516 
Q 3050 2419 3304 2112 
Q 3559 1806 3559 1356 
Q 3559 666 3084 287 
Q 2609 -91 1734 -91 
Q 1441 -91 1130 -33 
Q 819 25 488 141 
L 488 750 
Q 750 597 1062 519 
Q 1375 441 1716 441 
Q 2309 441 2620 675 
Q 2931 909 2931 1356 
Q 2931 1769 2642 2001 
Q 2353 2234 1838 2234 
L 1294 2234 
L 1294 2753 
L 1863 2753 
Q 2328 2753 2575 2939 
Q 2822 3125 2822 3475 
Q 2822 3834 2567 4026 
Q 2313 4219 1838 4219 
Q 1578 4219 1281 4162 
Q 984 4106 628 3988 
L 628 4550 
Q 988 4650 1302 4700 
Q 1616 4750 1894 4750 
Q 2613 4750 3031 4423 
Q 3450 4097 3450 3541 
Q 3450 3153 3228 2886 
Q 3006 2619 2597 2516 
z
" id="DejaVuSans-33" transform="scale(0.015625)"/>
       </defs>
       <use xlink:href="#DejaVuSans-33"/>
       <use x="63.623047" xlink:href="#DejaVuSans-2e"/>
       <use x="95.410156" xlink:href="#DejaVuSans-30"/>
      </g>
     </g>
    </g>
    <g id="text_7">
     <!-- $M(\pi^0,\pi^0)$ [GeV] -->
     <g transform="translate(167.635 317.528562)scale(0.1 -0.1)">
      <defs>
       <path d="M 1081 4666 
L 2028 4666 
L 2572 1522 
L 4378 4666 
L 5350 4666 
L 4441 0 
L 3828 0 
L 4622 4091 
L 2791 897 
L 2175 897 
L 1581 4103 
L 788 0 
L 172 0 
L 1081 4666 
z
" id="DejaVuSans-Oblique-4d" transform="scale(0.015625)"/>
       <path d="M 1984 4856 
Q 1566 4138 1362 3434 
Q 1159 2731 1159 2009 
Q 1159 1288 1364 580 
Q 1569 -128 1984 -844 
L 1484 -844 
Q 1016 -109 783 600 
Q 550 1309 550 2009 
Q 550 2706 781 3412 
Q 1013 4119 1484 4856 
L 1984 4856 
z
" id="DejaVuSans-28" transform="scale(0.015625)"/>
       <path d="M 584 3500 
L 3938 3500 
L 3825 2925 
L 3384 2925 
L 2966 775 
Q 2922 550 2981 450 
Q 3038 353 3209 353 
Q 3256 353 3325 363 
Q 3397 369 3419 372 
L 3338 -44 
Q 3222 -84 3103 -103 
Q 2981 -122 2866 -122 
Q 2491 -122 2388 81 
Q 2284 288 2391 838 
L 2797 2925 
L 1506 2925 
L 938 0 
L 350 0 
L 919 2925 
L 472 2925 
L 584 3500 
z
" id="DejaVuSans-Oblique-3c0" transform="scale(0.015625)"/>
       <path d="M 750 794 
L 1409 794 
L 1409 256 
L 897 -744 
L 494 -744 
L 750 256 
L 750 794 
z
" id="DejaVuSans-2c" transform="scale(0.015625)"/>
       <path d="M 513 4856 
L 1013 4856 
Q 1481 4119 1714 3412 
Q 1947 2706 1947 2009 
Q 1947 1309 1714 600 
Q 1481 -109 1013 -844 
L 513 -844 
Q 928 -128 1133 580 
Q 1338 1288 1338 2009 
Q 1338 2731 1133 3434 
Q 928 4138 513 4856 
z
" id="DejaVuSans-29" transform="scale(0.015625)"/>
       <path id="DejaVuSans-20" transform="scale(0.015625)"/>
       <path d="M 550 4863 
L 1875 4863 
L 1875 4416 
L 1125 4416 
L 1125 -397 
L 1875 -397 
L 1875 -844 
L 550 -844 
L 550 4863 
z
" id="DejaVuSans-5b" transform="scale(0.015625)"/>
       <path d="M 3809 666 
L 3809 1919 
L 2778 1919 
L 2778 2438 
L 4434 2438 
L 4434 434 
Q 4069 175 3628 42 
Q 3188 -91 2688 -91 
Q 1594 -91 976 548 
Q 359 1188 359 2328 
Q 359 3472 976 4111 
Q 1594 4750 2688 4750 
Q 3144 4750 3555 4637 
Q 3966 4525 4313 4306 
L 4313 3634 
Q 3963 3931 3569 4081 
Q 3175 4231 2741 4231 
Q 1884 4231 1454 3753 
Q 1025 3275 1025 2328 
Q 1025 1384 1454 906 
Q 1884 428 2741 428 
Q 3075 428 3337 486 
Q 3600 544 3809 666 
z
" id="DejaVuSans-47" transform="scale(0.015625)"/>
       <path d="M 3597 1894 
L 3597 1613 
L 953 1613 
Q 991 1019 1311 708 
Q 1631 397 2203 397 
Q 2534 397 2845 478 
Q 3156 559 3463 722 
L 3463 178 
Q 3153 47 2828 -22 
Q 2503 -91 2169 -91 
Q 1331 -91 842 396 
Q 353 884 353 1716 
Q 353 2575 817 3079 
Q 1281 3584 2069 3584 
Q 2775 3584 3186 3129 
Q 3597 2675 3597 1894 
z
M 3022 2063 
Q 3016 2534 2758 2815 
Q 2500 3097 2075 3097 
Q 1594 3097 1305 2825 
Q 1016 2553 972 2059 
L 3022 2063 
z
" id="DejaVuSans-65" transform="scale(0.015625)"/>
       <path d="M 1831 0 
L 50 4666 
L 709 4666 
L 2188 738 
L 3669 4666 
L 4325 4666 
L 2547 0 
L 1831 0 
z
" id="DejaVuSans-56" transform="scale(0.015625)"/>
       <path d="M 1947 4863 
L 1947 -844 
L 622 -844 
L 622 -397 
L 1369 -397 
L 1369 4416 
L 622 4416 
L 622 4863 
L 1947 4863 
z
" id="DejaVuSans-5d" transform="scale(0.015625)"/>
      </defs>
      <use transform="translate(0 0.765625)" xlink:href="#DejaVuSans-Oblique-4d"/>
      <use transform="translate(86.279297 0.765625)" xlink:href="#DejaVuSans-28"/>
      <use transform="translate(125.292969 0.765625)" xlink:href="#DejaVuSans-Oblique-3c0"/>
      <use transform="translate(189.964193 39.046875)scale(0.7)" xlink:href="#DejaVuSans-30"/>
      <use transform="translate(237.234701 0.765625)" xlink:href="#DejaVuSans-2c"/>
      <use transform="translate(288.504232 0.765625)" xlink:href="#DejaVuSans-Oblique-3c0"/>
      <use transform="translate(353.175456 39.046875)scale(0.7)" xlink:href="#DejaVuSans-30"/>
      <use transform="translate(400.445964 0.765625)" xlink:href="#DejaVuSans-29"/>
      <use transform="translate(439.459635 0.765625)" xlink:href="#DejaVuSans-20"/>
      <use transform="translate(471.246745 0.765625)" xlink:href="#DejaVuSans-5b"/>
      <use transform="translate(510.260417 0.765625)" xlink:href="#DejaVuSans-47"/>
      <use transform="translate(587.750651 0.765625)" xlink:href="#DejaVuSans-65"/>
      <use transform="translate(649.274089 0.765625)" xlink:href="#DejaVuSans-56"/>
      <use transform="translate(717.682292 0.765625)" xlink:href="#DejaVuSans-5d"/>
     </g>
    </g>
   </g>
   <g id="matplotlib.axis_2">
    <g id="ytick_1">
     <g id="line2d_13">
      <path clip-path="url(#pc6cf4b4abe)" d="M 26.925 288.430125 
L 384.045 288.430125 
" style="fill:none;stroke:#b0b0b0;stroke-linecap:square;stroke-width:0.8;"/>
     </g>
     <g id="line2d_14">
      <defs>
       <path d="M 0 0 
L -3.5 0 
" id="m71a53a2d63" style="stroke:#000000;stroke-width:0.8;"/>
      </defs>
      <g>
       <use style="stroke:#000000;stroke-width:0.8;" x="26.925" xlink:href="#m71a53a2d63" y="288.430125"/>
      </g>
     </g>
     <g id="text_8">
      <!-- 0 -->
      <g transform="translate(13.5625 292.229344)scale(0.1 -0.1)">
       <use xlink:href="#DejaVuSans-30"/>
      </g>
     </g>
    </g>
    <g id="ytick_2">
     <g id="line2d_15">
      <path clip-path="url(#pc6cf4b4abe)" d="M 26.925 238.713409 
L 384.045 238.713409 
" style="fill:none;stroke:#b0b0b0;stroke-linecap:square;stroke-width:0.8;"/>
     </g>
     <g id="line2d_16">
      <g>
       <use style="stroke:#000000;stroke-width:0.8;" x="26.925" xlink:href="#m71a53a2d63" y="238.713409"/>
      </g>
     </g>
     <g id="text_9">
      <!-- 2 -->
      <g transform="translate(13.5625 242.512628)scale(0.1 -0.1)">
       <use xlink:href="#DejaVuSans-32"/>
      </g>
     </g>
    </g>
    <g id="ytick_3">
     <g id="line2d_17">
      <path clip-path="url(#pc6cf4b4abe)" d="M 26.925 188.996694 
L 384.045 188.996694 
" style="fill:none;stroke:#b0b0b0;stroke-linecap:square;stroke-width:0.8;"/>
     </g>
     <g id="line2d_18">
      <g>
       <use style="stroke:#000000;stroke-width:0.8;" x="26.925" xlink:href="#m71a53a2d63" y="188.996694"/>
      </g>
     </g>
     <g id="text_10">
      <!-- 4 -->
      <g transform="translate(13.5625 192.795913)scale(0.1 -0.1)">
       <defs>
        <path d="M 2419 4116 
L 825 1625 
L 2419 1625 
L 2419 4116 
z
M 2253 4666 
L 3047 4666 
L 3047 1625 
L 3713 1625 
L 3713 1100 
L 3047 1100 
L 3047 0 
L 2419 0 
L 2419 1100 
L 313 1100 
L 313 1709 
L 2253 4666 
z
" id="DejaVuSans-34" transform="scale(0.015625)"/>
       </defs>
       <use xlink:href="#DejaVuSans-34"/>
      </g>
     </g>
    </g>
    <g id="ytick_4">
     <g id="line2d_19">
      <path clip-path="url(#pc6cf4b4abe)" d="M 26.925 139.279978 
L 384.045 139.279978 
" style="fill:none;stroke:#b0b0b0;stroke-linecap:square;stroke-width:0.8;"/>
     </g>
     <g id="line2d_20">
      <g>
       <use style="stroke:#000000;stroke-width:0.8;" x="26.925" xlink:href="#m71a53a2d63" y="139.279978"/>
      </g>
     </g>
     <g id="text_11">
      <!-- 6 -->
      <g transform="translate(13.5625 143.079197)scale(0.1 -0.1)">
       <defs>
        <path d="M 2113 2584 
Q 1688 2584 1439 2293 
Q 1191 2003 1191 1497 
Q 1191 994 1439 701 
Q 1688 409 2113 409 
Q 2538 409 2786 701 
Q 3034 994 3034 1497 
Q 3034 2003 2786 2293 
Q 2538 2584 2113 2584 
z
M 3366 4563 
L 3366 3988 
Q 3128 4100 2886 4159 
Q 2644 4219 2406 4219 
Q 1781 4219 1451 3797 
Q 1122 3375 1075 2522 
Q 1259 2794 1537 2939 
Q 1816 3084 2150 3084 
Q 2853 3084 3261 2657 
Q 3669 2231 3669 1497 
Q 3669 778 3244 343 
Q 2819 -91 2113 -91 
Q 1303 -91 875 529 
Q 447 1150 447 2328 
Q 447 3434 972 4092 
Q 1497 4750 2381 4750 
Q 2619 4750 2861 4703 
Q 3103 4656 3366 4563 
z
" id="DejaVuSans-36" transform="scale(0.015625)"/>
       </defs>
       <use xlink:href="#DejaVuSans-36"/>
      </g>
     </g>
    </g>
    <g id="ytick_5">
     <g id="line2d_21">
      <path clip-path="url(#pc6cf4b4abe)" d="M 26.925 89.563263 
L 384.045 89.563263 
" style="fill:none;stroke:#b0b0b0;stroke-linecap:square;stroke-width:0.8;"/>
     </g>
     <g id="line2d_22">
      <g>
       <use style="stroke:#000000;stroke-width:0.8;" x="26.925" xlink:href="#m71a53a2d63" y="89.563263"/>
      </g>
     </g>
     <g id="text_12">
      <!-- 8 -->
      <g transform="translate(13.5625 93.362482)scale(0.1 -0.1)">
       <defs>
        <path d="M 2034 2216 
Q 1584 2216 1326 1975 
Q 1069 1734 1069 1313 
Q 1069 891 1326 650 
Q 1584 409 2034 409 
Q 2484 409 2743 651 
Q 3003 894 3003 1313 
Q 3003 1734 2745 1975 
Q 2488 2216 2034 2216 
z
M 1403 2484 
Q 997 2584 770 2862 
Q 544 3141 544 3541 
Q 544 4100 942 4425 
Q 1341 4750 2034 4750 
Q 2731 4750 3128 4425 
Q 3525 4100 3525 3541 
Q 3525 3141 3298 2862 
Q 3072 2584 2669 2484 
Q 3125 2378 3379 2068 
Q 3634 1759 3634 1313 
Q 3634 634 3220 271 
Q 2806 -91 2034 -91 
Q 1263 -91 848 271 
Q 434 634 434 1313 
Q 434 1759 690 2068 
Q 947 2378 1403 2484 
z
M 1172 3481 
Q 1172 3119 1398 2916 
Q 1625 2713 2034 2713 
Q 2441 2713 2670 2916 
Q 2900 3119 2900 3481 
Q 2900 3844 2670 4047 
Q 2441 4250 2034 4250 
Q 1625 4250 1398 4047 
Q 1172 3844 1172 3481 
z
" id="DejaVuSans-38" transform="scale(0.015625)"/>
       </defs>
       <use xlink:href="#DejaVuSans-38"/>
      </g>
     </g>
    </g>
    <g id="ytick_6">
     <g id="line2d_23">
      <path clip-path="url(#pc6cf4b4abe)" d="M 26.925 39.846547 
L 384.045 39.846547 
" style="fill:none;stroke:#b0b0b0;stroke-linecap:square;stroke-width:0.8;"/>
     </g>
     <g id="line2d_24">
      <g>
       <use style="stroke:#000000;stroke-width:0.8;" x="26.925" xlink:href="#m71a53a2d63" y="39.846547"/>
      </g>
     </g>
     <g id="text_13">
      <!-- 10 -->
      <g transform="translate(7.2 43.645766)scale(0.1 -0.1)">
       <use xlink:href="#DejaVuSans-31"/>
       <use x="63.623047" xlink:href="#DejaVuSans-30"/>
      </g>
     </g>
    </g>
   </g>
   <g id="patch_63">
    <path clip-path="url(#pc6cf4b4abe)" d="M 43.157727 288.430125 
L 43.157727 287.987541 
L 48.568636 287.987541 
L 48.568636 288.174153 
L 53.979545 288.174153 
L 53.979545 287.739651 
L 59.390455 287.739651 
L 59.390455 288.003229 
L 64.801364 288.003229 
L 64.801364 287.984082 
L 70.212273 287.984082 
L 70.212273 287.518241 
L 75.623182 287.518241 
L 75.623182 286.528044 
L 81.034091 286.528044 
L 81.034091 286.845906 
L 86.445 286.845906 
L 86.445 285.802625 
L 91.855909 285.802625 
L 91.855909 285.946167 
L 97.266818 285.946167 
L 97.266818 282.750393 
L 102.677727 282.750393 
L 102.677727 280.507592 
L 108.088636 280.507592 
L 108.088636 274.342674 
L 113.499545 274.342674 
L 113.499545 257.573119 
L 118.910455 257.573119 
L 118.910455 181.611871 
L 124.321364 181.611871 
L 124.321364 70.607847 
L 129.732273 70.607847 
L 129.732273 211.874894 
L 135.143182 211.874894 
L 135.143182 256.500406 
L 140.554091 256.500406 
L 140.554091 274.246961 
L 145.965 274.246961 
L 145.965 280.932167 
L 151.375909 280.932167 
L 151.375909 285.008257 
L 156.786818 285.008257 
L 156.786818 284.848797 
L 162.197727 284.848797 
L 162.197727 285.987592 
L 167.608636 285.987592 
L 167.608636 286.600897 
L 173.019545 286.600897 
L 173.019545 287.163172 
L 178.430455 287.163172 
L 178.430455 287.50908 
L 183.841364 287.50908 
L 183.841364 287.546056 
L 189.252273 287.546056 
L 189.252273 287.738824 
L 194.663182 287.738824 
L 194.663182 287.841785 
L 200.074091 287.841785 
L 200.074091 288.08807 
L 205.485 288.08807 
L 205.485 288.031225 
L 210.895909 288.031225 
L 210.895909 288.043779 
L 216.306818 288.043779 
L 216.306818 288.091393 
L 221.717727 288.091393 
L 221.717727 288.194831 
L 227.128636 288.194831 
L 227.128636 288.161295 
L 232.539545 288.161295 
L 232.539545 288.223617 
L 237.950455 288.223617 
L 237.950455 288.285374 
L 243.361364 288.285374 
L 243.361364 288.30008 
L 248.772273 288.30008 
L 248.772273 288.318665 
L 254.183182 288.318665 
L 254.183182 288.309706 
L 259.594091 288.309706 
L 259.594091 288.336936 
L 265.005 288.336936 
L 265.005 288.316815 
L 270.415909 288.316815 
L 270.415909 288.354205 
L 275.826818 288.354205 
L 275.826818 288.375173 
L 281.237727 288.375173 
L 281.237727 288.359148 
L 286.648636 288.359148 
L 286.648636 288.372229 
L 292.059545 288.372229 
L 292.059545 288.374839 
L 297.470455 288.374839 
L 297.470455 288.38399 
L 302.881364 288.38399 
L 302.881364 288.388612 
L 308.292273 288.388612 
L 308.292273 288.408252 
L 313.703182 288.408252 
L 313.703182 288.396856 
L 319.114091 288.396856 
L 319.114091 288.407324 
L 324.525 288.407324 
L 324.525 288.413051 
L 329.935909 288.413051 
L 329.935909 288.412725 
L 335.346818 288.412725 
L 335.346818 288.417347 
L 340.757727 288.417347 
L 340.757727 288.422116 
L 346.168636 288.422116 
L 346.168636 288.422877 
L 351.579545 288.422877 
L 351.579545 288.419728 
L 356.990455 288.419728 
L 356.990455 288.423923 
L 362.401364 288.423923 
L 362.401364 288.428027 
L 367.812273 288.428027 
L 367.812273 288.430125 
" style="fill:none;stroke:#ff0000;stroke-linejoin:miter;"/>
   </g>
   <g id="patch_64">
    <path d="M 26.925 288.430125 
L 26.925 22.318125 
" style="fill:none;stroke:#000000;stroke-linecap:square;stroke-linejoin:miter;stroke-width:0.8;"/>
   </g>
   <g id="patch_65">
    <path d="M 384.045 288.430125 
L 384.045 22.318125 
" style="fill:none;stroke:#000000;stroke-linecap:square;stroke-linejoin:miter;stroke-width:0.8;"/>
   </g>
   <g id="patch_66">
    <path d="M 26.925 288.430125 
L 384.045 288.430125 
" style="fill:none;stroke:#000000;stroke-linecap:square;stroke-linejoin:miter;stroke-width:0.8;"/>
   </g>
   <g id="patch_67">
    <path d="M 26.925 22.318125 
L 384.045 22.318125 
" style="fill:none;stroke:#000000;stroke-linecap:square;stroke-linejoin:miter;stroke-width:0.8;"/>
   </g>
   <g id="text_14">
    <!-- f0 resonance -->
    <g transform="translate(166.555313 16.318125)scale(0.12 -0.12)">
     <defs>
      <path d="M 2375 4863 
L 2375 4384 
L 1825 4384 
Q 1516 4384 1395 4259 
Q 1275 4134 1275 3809 
L 1275 3500 
L 2222 3500 
L 2222 3053 
L 1275 3053 
L 1275 0 
L 697 0 
L 697 3053 
L 147 3053 
L 147 3500 
L 697 3500 
L 697 3744 
Q 697 4328 969 4595 
Q 1241 4863 1831 4863 
L 2375 4863 
z
" id="DejaVuSans-66" transform="scale(0.015625)"/>
      <path d="M 2631 2963 
Q 2534 3019 2420 3045 
Q 2306 3072 2169 3072 
Q 1681 3072 1420 2755 
Q 1159 2438 1159 1844 
L 1159 0 
L 581 0 
L 581 3500 
L 1159 3500 
L 1159 2956 
Q 1341 3275 1631 3429 
Q 1922 3584 2338 3584 
Q 2397 3584 2469 3576 
Q 2541 3569 2628 3553 
L 2631 2963 
z
" id="DejaVuSans-72" transform="scale(0.015625)"/>
      <path d="M 2834 3397 
L 2834 2853 
Q 2591 2978 2328 3040 
Q 2066 3103 1784 3103 
Q 1356 3103 1142 2972 
Q 928 2841 928 2578 
Q 928 2378 1081 2264 
Q 1234 2150 1697 2047 
L 1894 2003 
Q 2506 1872 2764 1633 
Q 3022 1394 3022 966 
Q 3022 478 2636 193 
Q 2250 -91 1575 -91 
Q 1294 -91 989 -36 
Q 684 19 347 128 
L 347 722 
Q 666 556 975 473 
Q 1284 391 1588 391 
Q 1994 391 2212 530 
Q 2431 669 2431 922 
Q 2431 1156 2273 1281 
Q 2116 1406 1581 1522 
L 1381 1569 
Q 847 1681 609 1914 
Q 372 2147 372 2553 
Q 372 3047 722 3315 
Q 1072 3584 1716 3584 
Q 2034 3584 2315 3537 
Q 2597 3491 2834 3397 
z
" id="DejaVuSans-73" transform="scale(0.015625)"/>
      <path d="M 1959 3097 
Q 1497 3097 1228 2736 
Q 959 2375 959 1747 
Q 959 1119 1226 758 
Q 1494 397 1959 397 
Q 2419 397 2687 759 
Q 2956 1122 2956 1747 
Q 2956 2369 2687 2733 
Q 2419 3097 1959 3097 
z
M 1959 3584 
Q 2709 3584 3137 3096 
Q 3566 2609 3566 1747 
Q 3566 888 3137 398 
Q 2709 -91 1959 -91 
Q 1206 -91 779 398 
Q 353 888 353 1747 
Q 353 2609 779 3096 
Q 1206 3584 1959 3584 
z
" id="DejaVuSans-6f" transform="scale(0.015625)"/>
      <path d="M 3513 2113 
L 3513 0 
L 2938 0 
L 2938 2094 
Q 2938 2591 2744 2837 
Q 2550 3084 2163 3084 
Q 1697 3084 1428 2787 
Q 1159 2491 1159 1978 
L 1159 0 
L 581 0 
L 581 3500 
L 1159 3500 
L 1159 2956 
Q 1366 3272 1645 3428 
Q 1925 3584 2291 3584 
Q 2894 3584 3203 3211 
Q 3513 2838 3513 2113 
z
" id="DejaVuSans-6e" transform="scale(0.015625)"/>
      <path d="M 2194 1759 
Q 1497 1759 1228 1600 
Q 959 1441 959 1056 
Q 959 750 1161 570 
Q 1363 391 1709 391 
Q 2188 391 2477 730 
Q 2766 1069 2766 1631 
L 2766 1759 
L 2194 1759 
z
M 3341 1997 
L 3341 0 
L 2766 0 
L 2766 531 
Q 2569 213 2275 61 
Q 1981 -91 1556 -91 
Q 1019 -91 701 211 
Q 384 513 384 1019 
Q 384 1609 779 1909 
Q 1175 2209 1959 2209 
L 2766 2209 
L 2766 2266 
Q 2766 2663 2505 2880 
Q 2244 3097 1772 3097 
Q 1472 3097 1187 3025 
Q 903 2953 641 2809 
L 641 3341 
Q 956 3463 1253 3523 
Q 1550 3584 1831 3584 
Q 2591 3584 2966 3190 
Q 3341 2797 3341 1997 
z
" id="DejaVuSans-61" transform="scale(0.015625)"/>
      <path d="M 3122 3366 
L 3122 2828 
Q 2878 2963 2633 3030 
Q 2388 3097 2138 3097 
Q 1578 3097 1268 2742 
Q 959 2388 959 1747 
Q 959 1106 1268 751 
Q 1578 397 2138 397 
Q 2388 397 2633 464 
Q 2878 531 3122 666 
L 3122 134 
Q 2881 22 2623 -34 
Q 2366 -91 2075 -91 
Q 1284 -91 818 406 
Q 353 903 353 1747 
Q 353 2603 823 3093 
Q 1294 3584 2113 3584 
Q 2378 3584 2631 3529 
Q 2884 3475 3122 3366 
z
" id="DejaVuSans-63" transform="scale(0.015625)"/>
     </defs>
     <use xlink:href="#DejaVuSans-66"/>
     <use x="35.205078" xlink:href="#DejaVuSans-30"/>
     <use x="98.828125" xlink:href="#DejaVuSans-20"/>
     <use x="130.615234" xlink:href="#DejaVuSans-72"/>
     <use x="169.478516" xlink:href="#DejaVuSans-65"/>
     <use x="231.001953" xlink:href="#DejaVuSans-73"/>
     <use x="283.101562" xlink:href="#DejaVuSans-6f"/>
     <use x="344.283203" xlink:href="#DejaVuSans-6e"/>
     <use x="407.662109" xlink:href="#DejaVuSans-61"/>
     <use x="468.941406" xlink:href="#DejaVuSans-6e"/>
     <use x="532.320312" xlink:href="#DejaVuSans-63"/>
     <use x="587.300781" xlink:href="#DejaVuSans-65"/>
    </g>
   </g>
   <g id="legend_1">
    <g id="patch_68">
     <path d="M 322.52 59.674375 
L 377.045 59.674375 
Q 379.045 59.674375 379.045 57.674375 
L 379.045 29.318125 
Q 379.045 27.318125 377.045 27.318125 
L 322.52 27.318125 
Q 320.52 27.318125 320.52 29.318125 
L 320.52 57.674375 
Q 320.52 59.674375 322.52 59.674375 
z
" style="fill:#ffffff;opacity:0.8;stroke:#cccccc;stroke-linejoin:miter;"/>
    </g>
    <g id="patch_69">
     <path d="M 324.52 38.916562 
L 344.52 38.916562 
L 344.52 31.916562 
L 324.52 31.916562 
z
" style="fill:#1f77b4;opacity:0.5;"/>
    </g>
    <g id="text_15">
     <!-- data -->
     <g transform="translate(352.52 38.916562)scale(0.1 -0.1)">
      <defs>
       <path d="M 2906 2969 
L 2906 4863 
L 3481 4863 
L 3481 0 
L 2906 0 
L 2906 525 
Q 2725 213 2448 61 
Q 2172 -91 1784 -91 
Q 1150 -91 751 415 
Q 353 922 353 1747 
Q 353 2572 751 3078 
Q 1150 3584 1784 3584 
Q 2172 3584 2448 3432 
Q 2725 3281 2906 2969 
z
M 947 1747 
Q 947 1113 1208 752 
Q 1469 391 1925 391 
Q 2381 391 2643 752 
Q 2906 1113 2906 1747 
Q 2906 2381 2643 2742 
Q 2381 3103 1925 3103 
Q 1469 3103 1208 2742 
Q 947 2381 947 1747 
z
" id="DejaVuSans-64" transform="scale(0.015625)"/>
       <path d="M 1172 4494 
L 1172 3500 
L 2356 3500 
L 2356 3053 
L 1172 3053 
L 1172 1153 
Q 1172 725 1289 603 
Q 1406 481 1766 481 
L 2356 481 
L 2356 0 
L 1766 0 
Q 1100 0 847 248 
Q 594 497 594 1153 
L 594 3053 
L 172 3053 
L 172 3500 
L 594 3500 
L 594 4494 
L 1172 4494 
z
" id="DejaVuSans-74" transform="scale(0.015625)"/>
      </defs>
      <use xlink:href="#DejaVuSans-64"/>
      <use x="63.476562" xlink:href="#DejaVuSans-61"/>
      <use x="124.755859" xlink:href="#DejaVuSans-74"/>
      <use x="163.964844" xlink:href="#DejaVuSans-61"/>
     </g>
    </g>
    <g id="patch_70">
     <path d="M 324.52 53.594687 
L 344.52 53.594687 
L 344.52 46.594687 
L 324.52 46.594687 
z
" style="fill:none;stroke:#ff0000;stroke-linejoin:miter;"/>
    </g>
    <g id="text_16">
     <!-- fit -->
     <g transform="translate(352.52 53.594687)scale(0.1 -0.1)">
      <defs>
       <path d="M 603 3500 
L 1178 3500 
L 1178 0 
L 603 0 
L 603 3500 
z
M 603 4863 
L 1178 4863 
L 1178 4134 
L 603 4134 
L 603 4863 
z
" id="DejaVuSans-69" transform="scale(0.015625)"/>
      </defs>
      <use xlink:href="#DejaVuSans-66"/>
      <use x="35.205078" xlink:href="#DejaVuSans-69"/>
      <use x="62.988281" xlink:href="#DejaVuSans-74"/>
     </g>
    </g>
   </g>
  </g>
 </g>
 <defs>
  <clipPath id="pc6cf4b4abe">
   <rect height="266.112" width="357.12" x="26.925" y="22.318125"/>
  </clipPath>
 </defs>
</svg>
