<?xml version="1.0" encoding="utf-8" standalone="no"?>
<!DOCTYPE svg PUBLIC "-//W3C//DTD SVG 1.1//EN"
  "http://www.w3.org/Graphics/SVG/1.1/DTD/svg11.dtd">
<!-- Created with matplotlib (https://matplotlib.org/) -->
<svg height="311.146375pt" version="1.1" viewBox="0 0 408.10125 311.146375" width="408.10125pt" xmlns="http://www.w3.org/2000/svg" xmlns:xlink="http://www.w3.org/1999/xlink">
 <defs>
  <style type="text/css">
*{stroke-linecap:butt;stroke-linejoin:round;}
  </style>
 </defs>
 <g id="figure_1">
  <g id="patch_1">
   <path d="M 0 311.146375 
L 408.10125 311.146375 
L 408.10125 0 
L 0 0 
z
" style="fill:#ffffff;"/>
  </g>
  <g id="axes_1">
   <g id="patch_2">
    <path d="M 43.78125 273.312 
L 400.90125 273.312 
L 400.90125 7.2 
L 43.78125 7.2 
z
" style="fill:#ffffff;"/>
   </g>
   <g id="patch_3">
    <path clip-path="url(#p8c78e0d7c6)" d="M 65.436798 273.312 
L 68.613777 273.312 
L 68.613777 272.322 
L 65.436798 272.322 
z
" style="fill:#1f77b4;opacity:0.5;"/>
   </g>
   <g id="patch_4">
    <path clip-path="url(#p8c78e0d7c6)" d="M 68.613777 273.312 
L 71.790755 273.312 
L 71.790755 267.372 
L 68.613777 267.372 
z
" style="fill:#1f77b4;opacity:0.5;"/>
   </g>
   <g id="patch_5">
    <path clip-path="url(#p8c78e0d7c6)" d="M 71.790755 273.312 
L 74.967734 273.312 
L 74.967734 268.362 
L 71.790755 268.362 
z
" style="fill:#1f77b4;opacity:0.5;"/>
   </g>
   <g id="patch_6">
    <path clip-path="url(#p8c78e0d7c6)" d="M 74.967734 273.312 
L 78.144712 273.312 
L 78.144712 266.382 
L 74.967734 266.382 
z
" style="fill:#1f77b4;opacity:0.5;"/>
   </g>
   <g id="patch_7">
    <path clip-path="url(#p8c78e0d7c6)" d="M 78.144712 273.312 
L 81.321691 273.312 
L 81.321691 266.382 
L 78.144712 266.382 
z
" style="fill:#1f77b4;opacity:0.5;"/>
   </g>
   <g id="patch_8">
    <path clip-path="url(#p8c78e0d7c6)" d="M 81.321691 273.312 
L 84.49867 273.312 
L 84.49867 267.372 
L 81.321691 267.372 
z
" style="fill:#1f77b4;opacity:0.5;"/>
   </g>
   <g id="patch_9">
    <path clip-path="url(#p8c78e0d7c6)" d="M 84.49867 273.312 
L 87.675648 273.312 
L 87.675648 266.382 
L 84.49867 266.382 
z
" style="fill:#1f77b4;opacity:0.5;"/>
   </g>
   <g id="patch_10">
    <path clip-path="url(#p8c78e0d7c6)" d="M 87.675648 273.312 
L 90.852627 273.312 
L 90.852627 261.432 
L 87.675648 261.432 
z
" style="fill:#1f77b4;opacity:0.5;"/>
   </g>
   <g id="patch_11">
    <path clip-path="url(#p8c78e0d7c6)" d="M 90.852627 273.312 
L 94.029605 273.312 
L 94.029605 260.442 
L 90.852627 260.442 
z
" style="fill:#1f77b4;opacity:0.5;"/>
   </g>
   <g id="patch_12">
    <path clip-path="url(#p8c78e0d7c6)" d="M 94.029605 273.312 
L 97.206584 273.312 
L 97.206584 252.522 
L 94.029605 252.522 
z
" style="fill:#1f77b4;opacity:0.5;"/>
   </g>
   <g id="patch_13">
    <path clip-path="url(#p8c78e0d7c6)" d="M 97.206584 273.312 
L 100.383562 273.312 
L 100.383562 253.512 
L 97.206584 253.512 
z
" style="fill:#1f77b4;opacity:0.5;"/>
   </g>
   <g id="patch_14">
    <path clip-path="url(#p8c78e0d7c6)" d="M 100.383562 273.312 
L 103.560541 273.312 
L 103.560541 254.502 
L 100.383562 254.502 
z
" style="fill:#1f77b4;opacity:0.5;"/>
   </g>
   <g id="patch_15">
    <path clip-path="url(#p8c78e0d7c6)" d="M 103.560541 273.312 
L 106.73752 273.312 
L 106.73752 245.592 
L 103.560541 245.592 
z
" style="fill:#1f77b4;opacity:0.5;"/>
   </g>
   <g id="patch_16">
    <path clip-path="url(#p8c78e0d7c6)" d="M 106.73752 273.312 
L 109.914498 273.312 
L 109.914498 240.642 
L 106.73752 240.642 
z
" style="fill:#1f77b4;opacity:0.5;"/>
   </g>
   <g id="patch_17">
    <path clip-path="url(#p8c78e0d7c6)" d="M 109.914498 273.312 
L 113.091477 273.312 
L 113.091477 231.732 
L 109.914498 231.732 
z
" style="fill:#1f77b4;opacity:0.5;"/>
   </g>
   <g id="patch_18">
    <path clip-path="url(#p8c78e0d7c6)" d="M 113.091477 273.312 
L 116.268455 273.312 
L 116.268455 217.872 
L 113.091477 217.872 
z
" style="fill:#1f77b4;opacity:0.5;"/>
   </g>
   <g id="patch_19">
    <path clip-path="url(#p8c78e0d7c6)" d="M 116.268455 273.312 
L 119.445434 273.312 
L 119.445434 218.862 
L 116.268455 218.862 
z
" style="fill:#1f77b4;opacity:0.5;"/>
   </g>
   <g id="patch_20">
    <path clip-path="url(#p8c78e0d7c6)" d="M 119.445434 273.312 
L 122.622412 273.312 
L 122.622412 188.172 
L 119.445434 188.172 
z
" style="fill:#1f77b4;opacity:0.5;"/>
   </g>
   <g id="patch_21">
    <path clip-path="url(#p8c78e0d7c6)" d="M 122.622412 273.312 
L 125.799391 273.312 
L 125.799391 170.352 
L 122.622412 170.352 
z
" style="fill:#1f77b4;opacity:0.5;"/>
   </g>
   <g id="patch_22">
    <path clip-path="url(#p8c78e0d7c6)" d="M 125.799391 273.312 
L 128.97637 273.312 
L 128.97637 141.642 
L 125.799391 141.642 
z
" style="fill:#1f77b4;opacity:0.5;"/>
   </g>
   <g id="patch_23">
    <path clip-path="url(#p8c78e0d7c6)" d="M 128.97637 273.312 
L 132.153348 273.312 
L 132.153348 155.502 
L 128.97637 155.502 
z
" style="fill:#1f77b4;opacity:0.5;"/>
   </g>
   <g id="patch_24">
    <path clip-path="url(#p8c78e0d7c6)" d="M 132.153348 273.312 
L 135.330327 273.312 
L 135.330327 142.632 
L 132.153348 142.632 
z
" style="fill:#1f77b4;opacity:0.5;"/>
   </g>
   <g id="patch_25">
    <path clip-path="url(#p8c78e0d7c6)" d="M 135.330327 273.312 
L 138.507305 273.312 
L 138.507305 163.422 
L 135.330327 163.422 
z
" style="fill:#1f77b4;opacity:0.5;"/>
   </g>
   <g id="patch_26">
    <path clip-path="url(#p8c78e0d7c6)" d="M 138.507305 273.312 
L 141.684284 273.312 
L 141.684284 160.452 
L 138.507305 160.452 
z
" style="fill:#1f77b4;opacity:0.5;"/>
   </g>
   <g id="patch_27">
    <path clip-path="url(#p8c78e0d7c6)" d="M 141.684284 273.312 
L 144.861263 273.312 
L 144.861263 139.662 
L 141.684284 139.662 
z
" style="fill:#1f77b4;opacity:0.5;"/>
   </g>
   <g id="patch_28">
    <path clip-path="url(#p8c78e0d7c6)" d="M 144.861263 273.312 
L 148.038241 273.312 
L 148.038241 159.462 
L 144.861263 159.462 
z
" style="fill:#1f77b4;opacity:0.5;"/>
   </g>
   <g id="patch_29">
    <path clip-path="url(#p8c78e0d7c6)" d="M 148.038241 273.312 
L 151.21522 273.312 
L 151.21522 141.642 
L 148.038241 141.642 
z
" style="fill:#1f77b4;opacity:0.5;"/>
   </g>
   <g id="patch_30">
    <path clip-path="url(#p8c78e0d7c6)" d="M 151.21522 273.312 
L 154.392198 273.312 
L 154.392198 106.002 
L 151.21522 106.002 
z
" style="fill:#1f77b4;opacity:0.5;"/>
   </g>
   <g id="patch_31">
    <path clip-path="url(#p8c78e0d7c6)" d="M 154.392198 273.312 
L 157.569177 273.312 
L 157.569177 126.792 
L 154.392198 126.792 
z
" style="fill:#1f77b4;opacity:0.5;"/>
   </g>
   <g id="patch_32">
    <path clip-path="url(#p8c78e0d7c6)" d="M 157.569177 273.312 
L 160.746155 273.312 
L 160.746155 122.832 
L 157.569177 122.832 
z
" style="fill:#1f77b4;opacity:0.5;"/>
   </g>
   <g id="patch_33">
    <path clip-path="url(#p8c78e0d7c6)" d="M 160.746155 273.312 
L 163.923134 273.312 
L 163.923134 85.212 
L 160.746155 85.212 
z
" style="fill:#1f77b4;opacity:0.5;"/>
   </g>
   <g id="patch_34">
    <path clip-path="url(#p8c78e0d7c6)" d="M 163.923134 273.312 
L 167.100113 273.312 
L 167.100113 57.492 
L 163.923134 57.492 
z
" style="fill:#1f77b4;opacity:0.5;"/>
   </g>
   <g id="patch_35">
    <path clip-path="url(#p8c78e0d7c6)" d="M 167.100113 273.312 
L 170.277091 273.312 
L 170.277091 76.302 
L 167.100113 76.302 
z
" style="fill:#1f77b4;opacity:0.5;"/>
   </g>
   <g id="patch_36">
    <path clip-path="url(#p8c78e0d7c6)" d="M 170.277091 273.312 
L 173.45407 273.312 
L 173.45407 57.492 
L 170.277091 57.492 
z
" style="fill:#1f77b4;opacity:0.5;"/>
   </g>
   <g id="patch_37">
    <path clip-path="url(#p8c78e0d7c6)" d="M 173.45407 273.312 
L 176.631048 273.312 
L 176.631048 50.562 
L 173.45407 50.562 
z
" style="fill:#1f77b4;opacity:0.5;"/>
   </g>
   <g id="patch_38">
    <path clip-path="url(#p8c78e0d7c6)" d="M 176.631048 273.312 
L 179.808027 273.312 
L 179.808027 81.252 
L 176.631048 81.252 
z
" style="fill:#1f77b4;opacity:0.5;"/>
   </g>
   <g id="patch_39">
    <path clip-path="url(#p8c78e0d7c6)" d="M 179.808027 273.312 
L 182.985005 273.312 
L 182.985005 52.542 
L 179.808027 52.542 
z
" style="fill:#1f77b4;opacity:0.5;"/>
   </g>
   <g id="patch_40">
    <path clip-path="url(#p8c78e0d7c6)" d="M 182.985005 273.312 
L 186.161984 273.312 
L 186.161984 81.252 
L 182.985005 81.252 
z
" style="fill:#1f77b4;opacity:0.5;"/>
   </g>
   <g id="patch_41">
    <path clip-path="url(#p8c78e0d7c6)" d="M 186.161984 273.312 
L 189.338963 273.312 
L 189.338963 42.642 
L 186.161984 42.642 
z
" style="fill:#1f77b4;opacity:0.5;"/>
   </g>
   <g id="patch_42">
    <path clip-path="url(#p8c78e0d7c6)" d="M 189.338963 273.312 
L 192.515941 273.312 
L 192.515941 66.402 
L 189.338963 66.402 
z
" style="fill:#1f77b4;opacity:0.5;"/>
   </g>
   <g id="patch_43">
    <path clip-path="url(#p8c78e0d7c6)" d="M 192.515941 273.312 
L 195.69292 273.312 
L 195.69292 61.452 
L 192.515941 61.452 
z
" style="fill:#1f77b4;opacity:0.5;"/>
   </g>
   <g id="patch_44">
    <path clip-path="url(#p8c78e0d7c6)" d="M 195.69292 273.312 
L 198.869898 273.312 
L 198.869898 39.672 
L 195.69292 39.672 
z
" style="fill:#1f77b4;opacity:0.5;"/>
   </g>
   <g id="patch_45">
    <path clip-path="url(#p8c78e0d7c6)" d="M 198.869898 273.312 
L 202.046877 273.312 
L 202.046877 57.492 
L 198.869898 57.492 
z
" style="fill:#1f77b4;opacity:0.5;"/>
   </g>
   <g id="patch_46">
    <path clip-path="url(#p8c78e0d7c6)" d="M 202.046877 273.312 
L 205.223855 273.312 
L 205.223855 19.872 
L 202.046877 19.872 
z
" style="fill:#1f77b4;opacity:0.5;"/>
   </g>
   <g id="patch_47">
    <path clip-path="url(#p8c78e0d7c6)" d="M 205.223855 273.312 
L 208.400834 273.312 
L 208.400834 58.482 
L 205.223855 58.482 
z
" style="fill:#1f77b4;opacity:0.5;"/>
   </g>
   <g id="patch_48">
    <path clip-path="url(#p8c78e0d7c6)" d="M 208.400834 273.312 
L 211.577813 273.312 
L 211.577813 69.372 
L 208.400834 69.372 
z
" style="fill:#1f77b4;opacity:0.5;"/>
   </g>
   <g id="patch_49">
    <path clip-path="url(#p8c78e0d7c6)" d="M 211.577813 273.312 
L 214.754791 273.312 
L 214.754791 42.642 
L 211.577813 42.642 
z
" style="fill:#1f77b4;opacity:0.5;"/>
   </g>
   <g id="patch_50">
    <path clip-path="url(#p8c78e0d7c6)" d="M 214.754791 273.312 
L 217.93177 273.312 
L 217.93177 41.652 
L 214.754791 41.652 
z
" style="fill:#1f77b4;opacity:0.5;"/>
   </g>
   <g id="patch_51">
    <path clip-path="url(#p8c78e0d7c6)" d="M 217.93177 273.312 
L 221.108748 273.312 
L 221.108748 72.342 
L 217.93177 72.342 
z
" style="fill:#1f77b4;opacity:0.5;"/>
   </g>
   <g id="patch_52">
    <path clip-path="url(#p8c78e0d7c6)" d="M 221.108748 273.312 
L 224.285727 273.312 
L 224.285727 65.412 
L 221.108748 65.412 
z
" style="fill:#1f77b4;opacity:0.5;"/>
   </g>
   <g id="patch_53">
    <path clip-path="url(#p8c78e0d7c6)" d="M 224.285727 273.312 
L 227.462706 273.312 
L 227.462706 81.252 
L 224.285727 81.252 
z
" style="fill:#1f77b4;opacity:0.5;"/>
   </g>
   <g id="patch_54">
    <path clip-path="url(#p8c78e0d7c6)" d="M 227.462706 273.312 
L 230.639684 273.312 
L 230.639684 85.212 
L 227.462706 85.212 
z
" style="fill:#1f77b4;opacity:0.5;"/>
   </g>
   <g id="patch_55">
    <path clip-path="url(#p8c78e0d7c6)" d="M 230.639684 273.312 
L 233.816663 273.312 
L 233.816663 90.162 
L 230.639684 90.162 
z
" style="fill:#1f77b4;opacity:0.5;"/>
   </g>
   <g id="patch_56">
    <path clip-path="url(#p8c78e0d7c6)" d="M 233.816663 273.312 
L 236.993641 273.312 
L 236.993641 120.852 
L 233.816663 120.852 
z
" style="fill:#1f77b4;opacity:0.5;"/>
   </g>
   <g id="patch_57">
    <path clip-path="url(#p8c78e0d7c6)" d="M 236.993641 273.312 
L 240.17062 273.312 
L 240.17062 120.852 
L 236.993641 120.852 
z
" style="fill:#1f77b4;opacity:0.5;"/>
   </g>
   <g id="patch_58">
    <path clip-path="url(#p8c78e0d7c6)" d="M 240.17062 273.312 
L 243.347598 273.312 
L 243.347598 132.732 
L 240.17062 132.732 
z
" style="fill:#1f77b4;opacity:0.5;"/>
   </g>
   <g id="patch_59">
    <path clip-path="url(#p8c78e0d7c6)" d="M 243.347598 273.312 
L 246.524577 273.312 
L 246.524577 143.622 
L 243.347598 143.622 
z
" style="fill:#1f77b4;opacity:0.5;"/>
   </g>
   <g id="patch_60">
    <path clip-path="url(#p8c78e0d7c6)" d="M 246.524577 273.312 
L 249.701556 273.312 
L 249.701556 148.572 
L 246.524577 148.572 
z
" style="fill:#1f77b4;opacity:0.5;"/>
   </g>
   <g id="patch_61">
    <path clip-path="url(#p8c78e0d7c6)" d="M 249.701556 273.312 
L 252.878534 273.312 
L 252.878534 162.432 
L 249.701556 162.432 
z
" style="fill:#1f77b4;opacity:0.5;"/>
   </g>
   <g id="patch_62">
    <path clip-path="url(#p8c78e0d7c6)" d="M 252.878534 273.312 
L 256.055513 273.312 
L 256.055513 157.482 
L 252.878534 157.482 
z
" style="fill:#1f77b4;opacity:0.5;"/>
   </g>
   <g id="patch_63">
    <path clip-path="url(#p8c78e0d7c6)" d="M 256.055513 273.312 
L 259.232491 273.312 
L 259.232491 142.632 
L 256.055513 142.632 
z
" style="fill:#1f77b4;opacity:0.5;"/>
   </g>
   <g id="patch_64">
    <path clip-path="url(#p8c78e0d7c6)" d="M 259.232491 273.312 
L 262.40947 273.312 
L 262.40947 158.472 
L 259.232491 158.472 
z
" style="fill:#1f77b4;opacity:0.5;"/>
   </g>
   <g id="patch_65">
    <path clip-path="url(#p8c78e0d7c6)" d="M 262.40947 273.312 
L 265.586448 273.312 
L 265.586448 179.262 
L 262.40947 179.262 
z
" style="fill:#1f77b4;opacity:0.5;"/>
   </g>
   <g id="patch_66">
    <path clip-path="url(#p8c78e0d7c6)" d="M 265.586448 273.312 
L 268.763427 273.312 
L 268.763427 168.372 
L 265.586448 168.372 
z
" style="fill:#1f77b4;opacity:0.5;"/>
   </g>
   <g id="patch_67">
    <path clip-path="url(#p8c78e0d7c6)" d="M 268.763427 273.312 
L 271.940406 273.312 
L 271.940406 168.372 
L 268.763427 168.372 
z
" style="fill:#1f77b4;opacity:0.5;"/>
   </g>
   <g id="patch_68">
    <path clip-path="url(#p8c78e0d7c6)" d="M 271.940406 273.312 
L 275.117384 273.312 
L 275.117384 175.302 
L 271.940406 175.302 
z
" style="fill:#1f77b4;opacity:0.5;"/>
   </g>
   <g id="patch_69">
    <path clip-path="url(#p8c78e0d7c6)" d="M 275.117384 273.312 
L 278.294363 273.312 
L 278.294363 197.082 
L 275.117384 197.082 
z
" style="fill:#1f77b4;opacity:0.5;"/>
   </g>
   <g id="patch_70">
    <path clip-path="url(#p8c78e0d7c6)" d="M 278.294363 273.312 
L 281.471341 273.312 
L 281.471341 201.042 
L 278.294363 201.042 
z
" style="fill:#1f77b4;opacity:0.5;"/>
   </g>
   <g id="patch_71">
    <path clip-path="url(#p8c78e0d7c6)" d="M 281.471341 273.312 
L 284.64832 273.312 
L 284.64832 192.132 
L 281.471341 192.132 
z
" style="fill:#1f77b4;opacity:0.5;"/>
   </g>
   <g id="patch_72">
    <path clip-path="url(#p8c78e0d7c6)" d="M 284.64832 273.312 
L 287.825298 273.312 
L 287.825298 201.042 
L 284.64832 201.042 
z
" style="fill:#1f77b4;opacity:0.5;"/>
   </g>
   <g id="patch_73">
    <path clip-path="url(#p8c78e0d7c6)" d="M 287.825298 273.312 
L 291.002277 273.312 
L 291.002277 201.042 
L 287.825298 201.042 
z
" style="fill:#1f77b4;opacity:0.5;"/>
   </g>
   <g id="patch_74">
    <path clip-path="url(#p8c78e0d7c6)" d="M 291.002277 273.312 
L 294.179256 273.312 
L 294.179256 200.052 
L 291.002277 200.052 
z
" style="fill:#1f77b4;opacity:0.5;"/>
   </g>
   <g id="patch_75">
    <path clip-path="url(#p8c78e0d7c6)" d="M 294.179256 273.312 
L 297.356234 273.312 
L 297.356234 203.022 
L 294.179256 203.022 
z
" style="fill:#1f77b4;opacity:0.5;"/>
   </g>
   <g id="patch_76">
    <path clip-path="url(#p8c78e0d7c6)" d="M 297.356234 273.312 
L 300.533213 273.312 
L 300.533213 217.872 
L 297.356234 217.872 
z
" style="fill:#1f77b4;opacity:0.5;"/>
   </g>
   <g id="patch_77">
    <path clip-path="url(#p8c78e0d7c6)" d="M 300.533213 273.312 
L 303.710191 273.312 
L 303.710191 219.852 
L 300.533213 219.852 
z
" style="fill:#1f77b4;opacity:0.5;"/>
   </g>
   <g id="patch_78">
    <path clip-path="url(#p8c78e0d7c6)" d="M 303.710191 273.312 
L 306.88717 273.312 
L 306.88717 214.902 
L 303.710191 214.902 
z
" style="fill:#1f77b4;opacity:0.5;"/>
   </g>
   <g id="patch_79">
    <path clip-path="url(#p8c78e0d7c6)" d="M 306.88717 273.312 
L 310.064149 273.312 
L 310.064149 215.892 
L 306.88717 215.892 
z
" style="fill:#1f77b4;opacity:0.5;"/>
   </g>
   <g id="patch_80">
    <path clip-path="url(#p8c78e0d7c6)" d="M 310.064149 273.312 
L 313.241127 273.312 
L 313.241127 207.972 
L 310.064149 207.972 
z
" style="fill:#1f77b4;opacity:0.5;"/>
   </g>
   <g id="patch_81">
    <path clip-path="url(#p8c78e0d7c6)" d="M 313.241127 273.312 
L 316.418106 273.312 
L 316.418106 224.802 
L 313.241127 224.802 
z
" style="fill:#1f77b4;opacity:0.5;"/>
   </g>
   <g id="patch_82">
    <path clip-path="url(#p8c78e0d7c6)" d="M 316.418106 273.312 
L 319.595084 273.312 
L 319.595084 213.912 
L 316.418106 213.912 
z
" style="fill:#1f77b4;opacity:0.5;"/>
   </g>
   <g id="patch_83">
    <path clip-path="url(#p8c78e0d7c6)" d="M 319.595084 273.312 
L 322.772063 273.312 
L 322.772063 228.762 
L 319.595084 228.762 
z
" style="fill:#1f77b4;opacity:0.5;"/>
   </g>
   <g id="patch_84">
    <path clip-path="url(#p8c78e0d7c6)" d="M 322.772063 273.312 
L 325.949041 273.312 
L 325.949041 238.662 
L 322.772063 238.662 
z
" style="fill:#1f77b4;opacity:0.5;"/>
   </g>
   <g id="patch_85">
    <path clip-path="url(#p8c78e0d7c6)" d="M 325.949041 273.312 
L 329.12602 273.312 
L 329.12602 215.892 
L 325.949041 215.892 
z
" style="fill:#1f77b4;opacity:0.5;"/>
   </g>
   <g id="patch_86">
    <path clip-path="url(#p8c78e0d7c6)" d="M 329.12602 273.312 
L 332.302999 273.312 
L 332.302999 221.832 
L 329.12602 221.832 
z
" style="fill:#1f77b4;opacity:0.5;"/>
   </g>
   <g id="patch_87">
    <path clip-path="url(#p8c78e0d7c6)" d="M 332.302999 273.312 
L 335.479977 273.312 
L 335.479977 232.722 
L 332.302999 232.722 
z
" style="fill:#1f77b4;opacity:0.5;"/>
   </g>
   <g id="patch_88">
    <path clip-path="url(#p8c78e0d7c6)" d="M 335.479977 273.312 
L 338.656956 273.312 
L 338.656956 225.792 
L 335.479977 225.792 
z
" style="fill:#1f77b4;opacity:0.5;"/>
   </g>
   <g id="patch_89">
    <path clip-path="url(#p8c78e0d7c6)" d="M 338.656956 273.312 
L 341.833934 273.312 
L 341.833934 235.692 
L 338.656956 235.692 
z
" style="fill:#1f77b4;opacity:0.5;"/>
   </g>
   <g id="patch_90">
    <path clip-path="url(#p8c78e0d7c6)" d="M 341.833934 273.312 
L 345.010913 273.312 
L 345.010913 241.632 
L 341.833934 241.632 
z
" style="fill:#1f77b4;opacity:0.5;"/>
   </g>
   <g id="patch_91">
    <path clip-path="url(#p8c78e0d7c6)" d="M 345.010913 273.312 
L 348.187891 273.312 
L 348.187891 231.732 
L 345.010913 231.732 
z
" style="fill:#1f77b4;opacity:0.5;"/>
   </g>
   <g id="patch_92">
    <path clip-path="url(#p8c78e0d7c6)" d="M 348.187891 273.312 
L 351.36487 273.312 
L 351.36487 248.562 
L 348.187891 248.562 
z
" style="fill:#1f77b4;opacity:0.5;"/>
   </g>
   <g id="patch_93">
    <path clip-path="url(#p8c78e0d7c6)" d="M 351.36487 273.312 
L 354.541849 273.312 
L 354.541849 250.542 
L 351.36487 250.542 
z
" style="fill:#1f77b4;opacity:0.5;"/>
   </g>
   <g id="patch_94">
    <path clip-path="url(#p8c78e0d7c6)" d="M 354.541849 273.312 
L 357.718827 273.312 
L 357.718827 241.632 
L 354.541849 241.632 
z
" style="fill:#1f77b4;opacity:0.5;"/>
   </g>
   <g id="patch_95">
    <path clip-path="url(#p8c78e0d7c6)" d="M 357.718827 273.312 
L 360.895806 273.312 
L 360.895806 246.582 
L 357.718827 246.582 
z
" style="fill:#1f77b4;opacity:0.5;"/>
   </g>
   <g id="patch_96">
    <path clip-path="url(#p8c78e0d7c6)" d="M 360.895806 273.312 
L 364.072784 273.312 
L 364.072784 248.562 
L 360.895806 248.562 
z
" style="fill:#1f77b4;opacity:0.5;"/>
   </g>
   <g id="patch_97">
    <path clip-path="url(#p8c78e0d7c6)" d="M 364.072784 273.312 
L 367.249763 273.312 
L 367.249763 251.532 
L 364.072784 251.532 
z
" style="fill:#1f77b4;opacity:0.5;"/>
   </g>
   <g id="patch_98">
    <path clip-path="url(#p8c78e0d7c6)" d="M 367.249763 273.312 
L 370.426741 273.312 
L 370.426741 261.432 
L 367.249763 261.432 
z
" style="fill:#1f77b4;opacity:0.5;"/>
   </g>
   <g id="patch_99">
    <path clip-path="url(#p8c78e0d7c6)" d="M 370.426741 273.312 
L 373.60372 273.312 
L 373.60372 254.502 
L 370.426741 254.502 
z
" style="fill:#1f77b4;opacity:0.5;"/>
   </g>
   <g id="patch_100">
    <path clip-path="url(#p8c78e0d7c6)" d="M 373.60372 273.312 
L 376.780699 273.312 
L 376.780699 260.442 
L 373.60372 260.442 
z
" style="fill:#1f77b4;opacity:0.5;"/>
   </g>
   <g id="patch_101">
    <path clip-path="url(#p8c78e0d7c6)" d="M 376.780699 273.312 
L 379.957677 273.312 
L 379.957677 269.352 
L 376.780699 269.352 
z
" style="fill:#1f77b4;opacity:0.5;"/>
   </g>
   <g id="patch_102">
    <path clip-path="url(#p8c78e0d7c6)" d="M 379.957677 273.312 
L 383.134656 273.312 
L 383.134656 269.352 
L 379.957677 269.352 
z
" style="fill:#1f77b4;opacity:0.5;"/>
   </g>
   <g id="patch_103">
    <path clip-path="url(#p8c78e0d7c6)" d="M 60.013977 273.312 
L 60.013977 272.026686 
L 63.260523 272.026686 
L 63.260523 271.627324 
L 66.507068 271.627324 
L 66.507068 271.121234 
L 69.753614 271.121234 
L 69.753614 268.149361 
L 73.000159 268.149361 
L 73.000159 267.411999 
L 76.246705 267.411999 
L 76.246705 265.365706 
L 79.49325 265.365706 
L 79.49325 265.708449 
L 82.739795 265.708449 
L 82.739795 265.574813 
L 85.986341 265.574813 
L 85.986341 262.25418 
L 89.232886 262.25418 
L 89.232886 260.182725 
L 92.479432 260.182725 
L 92.479432 256.156745 
L 95.725977 256.156745 
L 95.725977 253.900901 
L 98.972523 253.900901 
L 98.972523 252.543291 
L 102.219068 252.543291 
L 102.219068 245.342275 
L 105.465614 245.342275 
L 105.465614 234.832316 
L 108.712159 234.832316 
L 108.712159 234.191182 
L 111.958705 234.191182 
L 111.958705 228.436749 
L 115.20525 228.436749 
L 115.20525 214.069556 
L 118.451795 214.069556 
L 118.451795 190.121118 
L 121.698341 190.121118 
L 121.698341 181.520374 
L 124.944886 181.520374 
L 124.944886 152.308816 
L 128.191432 152.308816 
L 128.191432 147.154966 
L 131.437977 147.154966 
L 131.437977 137.361313 
L 134.684523 137.361313 
L 134.684523 145.74009 
L 137.931068 145.74009 
L 137.931068 141.677895 
L 141.177614 141.677895 
L 141.177614 141.849447 
L 144.424159 141.849447 
L 144.424159 151.089663 
L 147.670705 151.089663 
L 147.670705 149.679894 
L 150.91725 149.679894 
L 150.91725 121.695389 
L 154.163795 121.695389 
L 154.163795 132.33317 
L 157.410341 132.33317 
L 157.410341 112.967452 
L 160.656886 112.967452 
L 160.656886 85.121062 
L 163.903432 85.121062 
L 163.903432 64.702428 
L 167.149977 64.702428 
L 167.149977 69.067572 
L 170.396523 69.067572 
L 170.396523 64.263565 
L 173.643068 64.263565 
L 173.643068 49.264361 
L 176.889614 49.264361 
L 176.889614 71.127014 
L 180.136159 71.127014 
L 180.136159 55.113239 
L 183.382705 55.113239 
L 183.382705 58.643963 
L 186.62925 58.643963 
L 186.62925 41.71634 
L 189.875795 41.71634 
L 189.875795 57.477862 
L 193.122341 57.477862 
L 193.122341 62.495804 
L 196.368886 62.495804 
L 196.368886 52.747821 
L 199.615432 52.747821 
L 199.615432 51.711398 
L 202.861977 51.711398 
L 202.861977 44.451099 
L 206.108523 44.451099 
L 206.108523 54.250139 
L 209.355068 54.250139 
L 209.355068 54.020589 
L 212.601614 54.020589 
L 212.601614 58.217525 
L 215.848159 58.217525 
L 215.848159 74.814617 
L 219.094705 74.814617 
L 219.094705 77.594026 
L 222.34125 77.594026 
L 222.34125 75.231665 
L 225.587795 75.231665 
L 225.587795 89.980068 
L 228.834341 89.980068 
L 228.834341 101.235879 
L 232.080886 101.235879 
L 232.080886 105.542101 
L 235.327432 105.542101 
L 235.327432 116.15813 
L 238.573977 116.15813 
L 238.573977 132.743191 
L 241.820523 132.743191 
L 241.820523 130.674848 
L 245.067068 130.674848 
L 245.067068 144.658989 
L 248.313614 144.658989 
L 248.313614 140.4888 
L 251.560159 140.4888 
L 251.560159 150.367874 
L 254.806705 150.367874 
L 254.806705 151.953445 
L 258.05325 151.953445 
L 258.05325 150.094881 
L 261.299795 150.094881 
L 261.299795 165.300401 
L 264.546341 165.300401 
L 264.546341 172.484068 
L 267.792886 172.484068 
L 267.792886 181.660335 
L 271.039432 181.660335 
L 271.039432 176.04684 
L 274.285977 176.04684 
L 274.285977 186.274392 
L 277.532523 186.274392 
L 277.532523 189.583455 
L 280.779068 189.583455 
L 280.779068 189.94514 
L 284.025614 189.94514 
L 284.025614 197.938385 
L 287.272159 197.938385 
L 287.272159 201.740354 
L 290.518705 201.740354 
L 290.518705 211.087699 
L 293.76525 211.087699 
L 293.76525 206.440234 
L 297.011795 206.440234 
L 297.011795 215.017741 
L 300.258341 215.017741 
L 300.258341 215.241957 
L 303.504886 215.241957 
L 303.504886 216.37234 
L 306.751432 216.37234 
L 306.751432 222.603851 
L 309.997977 222.603851 
L 309.997977 217.759499 
L 313.244523 217.759499 
L 313.244523 219.199066 
L 316.491068 219.199066 
L 316.491068 223.080785 
L 319.737614 223.080785 
L 319.737614 221.476392 
L 322.984159 221.476392 
L 322.984159 225.529413 
L 326.230705 225.529413 
L 326.230705 230.52395 
L 329.47725 230.52395 
L 329.47725 229.549431 
L 332.723795 229.549431 
L 332.723795 232.02082 
L 335.970341 232.02082 
L 335.970341 228.318876 
L 339.216886 228.318876 
L 339.216886 239.986101 
L 342.463432 239.986101 
L 342.463432 239.54024 
L 345.709977 239.54024 
L 345.709977 242.043234 
L 348.956523 242.043234 
L 348.956523 240.965899 
L 352.203068 240.965899 
L 352.203068 247.225838 
L 355.449614 247.225838 
L 355.449614 247.545689 
L 358.696159 247.545689 
L 358.696159 245.988198 
L 361.942705 245.988198 
L 361.942705 253.063823 
L 365.18925 253.063823 
L 365.18925 256.547335 
L 368.435795 256.547335 
L 368.435795 258.231387 
L 371.682341 258.231387 
L 371.682341 261.123746 
L 374.928886 261.123746 
L 374.928886 264.615604 
L 378.175432 264.615604 
L 378.175432 268.98271 
L 381.421977 268.98271 
L 381.421977 271.9563 
L 384.668523 271.9563 
L 384.668523 273.312 
L 384.668523 273.312 
" style="fill:none;stroke:#ff0000;stroke-linejoin:miter;"/>
   </g>
   <g id="matplotlib.axis_1">
    <g id="xtick_1">
     <g id="line2d_1">
      <path clip-path="url(#p8c78e0d7c6)" d="M 59.578324 273.312 
L 59.578324 7.2 
" style="fill:none;stroke:#b0b0b0;stroke-linecap:square;stroke-width:0.8;"/>
     </g>
     <g id="line2d_2">
      <defs>
       <path d="M 0 0 
L 0 3.5 
" id="mcbd7df4665" style="stroke:#000000;stroke-width:0.8;"/>
      </defs>
      <g>
       <use style="stroke:#000000;stroke-width:0.8;" x="59.578324" xlink:href="#mcbd7df4665" y="273.312"/>
      </g>
     </g>
     <g id="text_1">
      <!-- 0.0 -->
      <defs>
       <path d="M 31.78125 66.40625 
Q 24.171875 66.40625 20.328125 58.90625 
Q 16.5 51.421875 16.5 36.375 
Q 16.5 21.390625 20.328125 13.890625 
Q 24.171875 6.390625 31.78125 6.390625 
Q 39.453125 6.390625 43.28125 13.890625 
Q 47.125 21.390625 47.125 36.375 
Q 47.125 51.421875 43.28125 58.90625 
Q 39.453125 66.40625 31.78125 66.40625 
z
M 31.78125 74.21875 
Q 44.046875 74.21875 50.515625 64.515625 
Q 56.984375 54.828125 56.984375 36.375 
Q 56.984375 17.96875 50.515625 8.265625 
Q 44.046875 -1.421875 31.78125 -1.421875 
Q 19.53125 -1.421875 13.0625 8.265625 
Q 6.59375 17.96875 6.59375 36.375 
Q 6.59375 54.828125 13.0625 64.515625 
Q 19.53125 74.21875 31.78125 74.21875 
z
" id="DejaVuSans-48"/>
       <path d="M 10.6875 12.40625 
L 21 12.40625 
L 21 0 
L 10.6875 0 
z
" id="DejaVuSans-46"/>
      </defs>
      <g transform="translate(51.626761 287.910437)scale(0.1 -0.1)">
       <use xlink:href="#DejaVuSans-48"/>
       <use x="63.623047" xlink:href="#DejaVuSans-46"/>
       <use x="95.410156" xlink:href="#DejaVuSans-48"/>
      </g>
     </g>
    </g>
    <g id="xtick_2">
     <g id="line2d_3">
      <path clip-path="url(#p8c78e0d7c6)" d="M 111.351016 273.312 
L 111.351016 7.2 
" style="fill:none;stroke:#b0b0b0;stroke-linecap:square;stroke-width:0.8;"/>
     </g>
     <g id="line2d_4">
      <g>
       <use style="stroke:#000000;stroke-width:0.8;" x="111.351016" xlink:href="#mcbd7df4665" y="273.312"/>
      </g>
     </g>
     <g id="text_2">
      <!-- 0.5 -->
      <defs>
       <path d="M 10.796875 72.90625 
L 49.515625 72.90625 
L 49.515625 64.59375 
L 19.828125 64.59375 
L 19.828125 46.734375 
Q 21.96875 47.46875 24.109375 47.828125 
Q 26.265625 48.1875 28.421875 48.1875 
Q 40.625 48.1875 47.75 41.5 
Q 54.890625 34.8125 54.890625 23.390625 
Q 54.890625 11.625 47.5625 5.09375 
Q 40.234375 -1.421875 26.90625 -1.421875 
Q 22.3125 -1.421875 17.546875 -0.640625 
Q 12.796875 0.140625 7.71875 1.703125 
L 7.71875 11.625 
Q 12.109375 9.234375 16.796875 8.0625 
Q 21.484375 6.890625 26.703125 6.890625 
Q 35.15625 6.890625 40.078125 11.328125 
Q 45.015625 15.765625 45.015625 23.390625 
Q 45.015625 31 40.078125 35.4375 
Q 35.15625 39.890625 26.703125 39.890625 
Q 22.75 39.890625 18.8125 39.015625 
Q 14.890625 38.140625 10.796875 36.28125 
z
" id="DejaVuSans-53"/>
      </defs>
      <g transform="translate(103.399454 287.910437)scale(0.1 -0.1)">
       <use xlink:href="#DejaVuSans-48"/>
       <use x="63.623047" xlink:href="#DejaVuSans-46"/>
       <use x="95.410156" xlink:href="#DejaVuSans-53"/>
      </g>
     </g>
    </g>
    <g id="xtick_3">
     <g id="line2d_5">
      <path clip-path="url(#p8c78e0d7c6)" d="M 163.123709 273.312 
L 163.123709 7.2 
" style="fill:none;stroke:#b0b0b0;stroke-linecap:square;stroke-width:0.8;"/>
     </g>
     <g id="line2d_6">
      <g>
       <use style="stroke:#000000;stroke-width:0.8;" x="163.123709" xlink:href="#mcbd7df4665" y="273.312"/>
      </g>
     </g>
     <g id="text_3">
      <!-- 1.0 -->
      <defs>
       <path d="M 12.40625 8.296875 
L 28.515625 8.296875 
L 28.515625 63.921875 
L 10.984375 60.40625 
L 10.984375 69.390625 
L 28.421875 72.90625 
L 38.28125 72.90625 
L 38.28125 8.296875 
L 54.390625 8.296875 
L 54.390625 0 
L 12.40625 0 
z
" id="DejaVuSans-49"/>
      </defs>
      <g transform="translate(155.172147 287.910437)scale(0.1 -0.1)">
       <use xlink:href="#DejaVuSans-49"/>
       <use x="63.623047" xlink:href="#DejaVuSans-46"/>
       <use x="95.410156" xlink:href="#DejaVuSans-48"/>
      </g>
     </g>
    </g>
    <g id="xtick_4">
     <g id="line2d_7">
      <path clip-path="url(#p8c78e0d7c6)" d="M 214.896402 273.312 
L 214.896402 7.2 
" style="fill:none;stroke:#b0b0b0;stroke-linecap:square;stroke-width:0.8;"/>
     </g>
     <g id="line2d_8">
      <g>
       <use style="stroke:#000000;stroke-width:0.8;" x="214.896402" xlink:href="#mcbd7df4665" y="273.312"/>
      </g>
     </g>
     <g id="text_4">
      <!-- 1.5 -->
      <g transform="translate(206.94484 287.910437)scale(0.1 -0.1)">
       <use xlink:href="#DejaVuSans-49"/>
       <use x="63.623047" xlink:href="#DejaVuSans-46"/>
       <use x="95.410156" xlink:href="#DejaVuSans-53"/>
      </g>
     </g>
    </g>
    <g id="xtick_5">
     <g id="line2d_9">
      <path clip-path="url(#p8c78e0d7c6)" d="M 266.669095 273.312 
L 266.669095 7.2 
" style="fill:none;stroke:#b0b0b0;stroke-linecap:square;stroke-width:0.8;"/>
     </g>
     <g id="line2d_10">
      <g>
       <use style="stroke:#000000;stroke-width:0.8;" x="266.669095" xlink:href="#mcbd7df4665" y="273.312"/>
      </g>
     </g>
     <g id="text_5">
      <!-- 2.0 -->
      <defs>
       <path d="M 19.1875 8.296875 
L 53.609375 8.296875 
L 53.609375 0 
L 7.328125 0 
L 7.328125 8.296875 
Q 12.9375 14.109375 22.625 23.890625 
Q 32.328125 33.6875 34.8125 36.53125 
Q 39.546875 41.84375 41.421875 45.53125 
Q 43.3125 49.21875 43.3125 52.78125 
Q 43.3125 58.59375 39.234375 62.25 
Q 35.15625 65.921875 28.609375 65.921875 
Q 23.96875 65.921875 18.8125 64.3125 
Q 13.671875 62.703125 7.8125 59.421875 
L 7.8125 69.390625 
Q 13.765625 71.78125 18.9375 73 
Q 24.125 74.21875 28.421875 74.21875 
Q 39.75 74.21875 46.484375 68.546875 
Q 53.21875 62.890625 53.21875 53.421875 
Q 53.21875 48.921875 51.53125 44.890625 
Q 49.859375 40.875 45.40625 35.40625 
Q 44.1875 33.984375 37.640625 27.21875 
Q 31.109375 20.453125 19.1875 8.296875 
z
" id="DejaVuSans-50"/>
      </defs>
      <g transform="translate(258.717533 287.910437)scale(0.1 -0.1)">
       <use xlink:href="#DejaVuSans-50"/>
       <use x="63.623047" xlink:href="#DejaVuSans-46"/>
       <use x="95.410156" xlink:href="#DejaVuSans-48"/>
      </g>
     </g>
    </g>
    <g id="xtick_6">
     <g id="line2d_11">
      <path clip-path="url(#p8c78e0d7c6)" d="M 318.441788 273.312 
L 318.441788 7.2 
" style="fill:none;stroke:#b0b0b0;stroke-linecap:square;stroke-width:0.8;"/>
     </g>
     <g id="line2d_12">
      <g>
       <use style="stroke:#000000;stroke-width:0.8;" x="318.441788" xlink:href="#mcbd7df4665" y="273.312"/>
      </g>
     </g>
     <g id="text_6">
      <!-- 2.5 -->
      <g transform="translate(310.490225 287.910437)scale(0.1 -0.1)">
       <use xlink:href="#DejaVuSans-50"/>
       <use x="63.623047" xlink:href="#DejaVuSans-46"/>
       <use x="95.410156" xlink:href="#DejaVuSans-53"/>
      </g>
     </g>
    </g>
    <g id="xtick_7">
     <g id="line2d_13">
      <path clip-path="url(#p8c78e0d7c6)" d="M 370.214481 273.312 
L 370.214481 7.2 
" style="fill:none;stroke:#b0b0b0;stroke-linecap:square;stroke-width:0.8;"/>
     </g>
     <g id="line2d_14">
      <g>
       <use style="stroke:#000000;stroke-width:0.8;" x="370.214481" xlink:href="#mcbd7df4665" y="273.312"/>
      </g>
     </g>
     <g id="text_7">
      <!-- 3.0 -->
      <defs>
       <path d="M 40.578125 39.3125 
Q 47.65625 37.796875 51.625 33 
Q 55.609375 28.21875 55.609375 21.1875 
Q 55.609375 10.40625 48.1875 4.484375 
Q 40.765625 -1.421875 27.09375 -1.421875 
Q 22.515625 -1.421875 17.65625 -0.515625 
Q 12.796875 0.390625 7.625 2.203125 
L 7.625 11.71875 
Q 11.71875 9.328125 16.59375 8.109375 
Q 21.484375 6.890625 26.8125 6.890625 
Q 36.078125 6.890625 40.9375 10.546875 
Q 45.796875 14.203125 45.796875 21.1875 
Q 45.796875 27.640625 41.28125 31.265625 
Q 36.765625 34.90625 28.71875 34.90625 
L 20.21875 34.90625 
L 20.21875 43.015625 
L 29.109375 43.015625 
Q 36.375 43.015625 40.234375 45.921875 
Q 44.09375 48.828125 44.09375 54.296875 
Q 44.09375 59.90625 40.109375 62.90625 
Q 36.140625 65.921875 28.71875 65.921875 
Q 24.65625 65.921875 20.015625 65.03125 
Q 15.375 64.15625 9.8125 62.3125 
L 9.8125 71.09375 
Q 15.4375 72.65625 20.34375 73.4375 
Q 25.25 74.21875 29.59375 74.21875 
Q 40.828125 74.21875 47.359375 69.109375 
Q 53.90625 64.015625 53.90625 55.328125 
Q 53.90625 49.265625 50.4375 45.09375 
Q 46.96875 40.921875 40.578125 39.3125 
z
" id="DejaVuSans-51"/>
      </defs>
      <g transform="translate(362.262918 287.910437)scale(0.1 -0.1)">
       <use xlink:href="#DejaVuSans-51"/>
       <use x="63.623047" xlink:href="#DejaVuSans-46"/>
       <use x="95.410156" xlink:href="#DejaVuSans-48"/>
      </g>
     </g>
    </g>
    <g id="text_8">
     <!-- theta_gamma_pi0_vs_pi0 -->
     <defs>
      <path d="M 18.3125 70.21875 
L 18.3125 54.6875 
L 36.8125 54.6875 
L 36.8125 47.703125 
L 18.3125 47.703125 
L 18.3125 18.015625 
Q 18.3125 11.328125 20.140625 9.421875 
Q 21.96875 7.515625 27.59375 7.515625 
L 36.8125 7.515625 
L 36.8125 0 
L 27.59375 0 
Q 17.1875 0 13.234375 3.875 
Q 9.28125 7.765625 9.28125 18.015625 
L 9.28125 47.703125 
L 2.6875 47.703125 
L 2.6875 54.6875 
L 9.28125 54.6875 
L 9.28125 70.21875 
z
" id="DejaVuSans-116"/>
      <path d="M 54.890625 33.015625 
L 54.890625 0 
L 45.90625 0 
L 45.90625 32.71875 
Q 45.90625 40.484375 42.875 44.328125 
Q 39.84375 48.1875 33.796875 48.1875 
Q 26.515625 48.1875 22.3125 43.546875 
Q 18.109375 38.921875 18.109375 30.90625 
L 18.109375 0 
L 9.078125 0 
L 9.078125 75.984375 
L 18.109375 75.984375 
L 18.109375 46.1875 
Q 21.34375 51.125 25.703125 53.5625 
Q 30.078125 56 35.796875 56 
Q 45.21875 56 50.046875 50.171875 
Q 54.890625 44.34375 54.890625 33.015625 
z
" id="DejaVuSans-104"/>
      <path d="M 56.203125 29.59375 
L 56.203125 25.203125 
L 14.890625 25.203125 
Q 15.484375 15.921875 20.484375 11.0625 
Q 25.484375 6.203125 34.421875 6.203125 
Q 39.59375 6.203125 44.453125 7.46875 
Q 49.3125 8.734375 54.109375 11.28125 
L 54.109375 2.78125 
Q 49.265625 0.734375 44.1875 -0.34375 
Q 39.109375 -1.421875 33.890625 -1.421875 
Q 20.796875 -1.421875 13.15625 6.1875 
Q 5.515625 13.8125 5.515625 26.8125 
Q 5.515625 40.234375 12.765625 48.109375 
Q 20.015625 56 32.328125 56 
Q 43.359375 56 49.78125 48.890625 
Q 56.203125 41.796875 56.203125 29.59375 
z
M 47.21875 32.234375 
Q 47.125 39.59375 43.09375 43.984375 
Q 39.0625 48.390625 32.421875 48.390625 
Q 24.90625 48.390625 20.390625 44.140625 
Q 15.875 39.890625 15.1875 32.171875 
z
" id="DejaVuSans-101"/>
      <path d="M 34.28125 27.484375 
Q 23.390625 27.484375 19.1875 25 
Q 14.984375 22.515625 14.984375 16.5 
Q 14.984375 11.71875 18.140625 8.90625 
Q 21.296875 6.109375 26.703125 6.109375 
Q 34.1875 6.109375 38.703125 11.40625 
Q 43.21875 16.703125 43.21875 25.484375 
L 43.21875 27.484375 
z
M 52.203125 31.203125 
L 52.203125 0 
L 43.21875 0 
L 43.21875 8.296875 
Q 40.140625 3.328125 35.546875 0.953125 
Q 30.953125 -1.421875 24.3125 -1.421875 
Q 15.921875 -1.421875 10.953125 3.296875 
Q 6 8.015625 6 15.921875 
Q 6 25.140625 12.171875 29.828125 
Q 18.359375 34.515625 30.609375 34.515625 
L 43.21875 34.515625 
L 43.21875 35.40625 
Q 43.21875 41.609375 39.140625 45 
Q 35.0625 48.390625 27.6875 48.390625 
Q 23 48.390625 18.546875 47.265625 
Q 14.109375 46.140625 10.015625 43.890625 
L 10.015625 52.203125 
Q 14.9375 54.109375 19.578125 55.046875 
Q 24.21875 56 28.609375 56 
Q 40.484375 56 46.34375 49.84375 
Q 52.203125 43.703125 52.203125 31.203125 
z
" id="DejaVuSans-97"/>
      <path d="M 50.984375 -16.609375 
L 50.984375 -23.578125 
L -0.984375 -23.578125 
L -0.984375 -16.609375 
z
" id="DejaVuSans-95"/>
      <path d="M 45.40625 27.984375 
Q 45.40625 37.75 41.375 43.109375 
Q 37.359375 48.484375 30.078125 48.484375 
Q 22.859375 48.484375 18.828125 43.109375 
Q 14.796875 37.75 14.796875 27.984375 
Q 14.796875 18.265625 18.828125 12.890625 
Q 22.859375 7.515625 30.078125 7.515625 
Q 37.359375 7.515625 41.375 12.890625 
Q 45.40625 18.265625 45.40625 27.984375 
z
M 54.390625 6.78125 
Q 54.390625 -7.171875 48.1875 -13.984375 
Q 42 -20.796875 29.203125 -20.796875 
Q 24.46875 -20.796875 20.265625 -20.09375 
Q 16.0625 -19.390625 12.109375 -17.921875 
L 12.109375 -9.1875 
Q 16.0625 -11.328125 19.921875 -12.34375 
Q 23.78125 -13.375 27.78125 -13.375 
Q 36.625 -13.375 41.015625 -8.765625 
Q 45.40625 -4.15625 45.40625 5.171875 
L 45.40625 9.625 
Q 42.625 4.78125 38.28125 2.390625 
Q 33.9375 0 27.875 0 
Q 17.828125 0 11.671875 7.65625 
Q 5.515625 15.328125 5.515625 27.984375 
Q 5.515625 40.671875 11.671875 48.328125 
Q 17.828125 56 27.875 56 
Q 33.9375 56 38.28125 53.609375 
Q 42.625 51.21875 45.40625 46.390625 
L 45.40625 54.6875 
L 54.390625 54.6875 
z
" id="DejaVuSans-103"/>
      <path d="M 52 44.1875 
Q 55.375 50.25 60.0625 53.125 
Q 64.75 56 71.09375 56 
Q 79.640625 56 84.28125 50.015625 
Q 88.921875 44.046875 88.921875 33.015625 
L 88.921875 0 
L 79.890625 0 
L 79.890625 32.71875 
Q 79.890625 40.578125 77.09375 44.375 
Q 74.3125 48.1875 68.609375 48.1875 
Q 61.625 48.1875 57.5625 43.546875 
Q 53.515625 38.921875 53.515625 30.90625 
L 53.515625 0 
L 44.484375 0 
L 44.484375 32.71875 
Q 44.484375 40.625 41.703125 44.40625 
Q 38.921875 48.1875 33.109375 48.1875 
Q 26.21875 48.1875 22.15625 43.53125 
Q 18.109375 38.875 18.109375 30.90625 
L 18.109375 0 
L 9.078125 0 
L 9.078125 54.6875 
L 18.109375 54.6875 
L 18.109375 46.1875 
Q 21.1875 51.21875 25.484375 53.609375 
Q 29.78125 56 35.6875 56 
Q 41.65625 56 45.828125 52.96875 
Q 50 49.953125 52 44.1875 
z
" id="DejaVuSans-109"/>
      <path d="M 18.109375 8.203125 
L 18.109375 -20.796875 
L 9.078125 -20.796875 
L 9.078125 54.6875 
L 18.109375 54.6875 
L 18.109375 46.390625 
Q 20.953125 51.265625 25.265625 53.625 
Q 29.59375 56 35.59375 56 
Q 45.5625 56 51.78125 48.09375 
Q 58.015625 40.1875 58.015625 27.296875 
Q 58.015625 14.40625 51.78125 6.484375 
Q 45.5625 -1.421875 35.59375 -1.421875 
Q 29.59375 -1.421875 25.265625 0.953125 
Q 20.953125 3.328125 18.109375 8.203125 
z
M 48.6875 27.296875 
Q 48.6875 37.203125 44.609375 42.84375 
Q 40.53125 48.484375 33.40625 48.484375 
Q 26.265625 48.484375 22.1875 42.84375 
Q 18.109375 37.203125 18.109375 27.296875 
Q 18.109375 17.390625 22.1875 11.75 
Q 26.265625 6.109375 33.40625 6.109375 
Q 40.53125 6.109375 44.609375 11.75 
Q 48.6875 17.390625 48.6875 27.296875 
z
" id="DejaVuSans-112"/>
      <path d="M 9.421875 54.6875 
L 18.40625 54.6875 
L 18.40625 0 
L 9.421875 0 
z
M 9.421875 75.984375 
L 18.40625 75.984375 
L 18.40625 64.59375 
L 9.421875 64.59375 
z
" id="DejaVuSans-105"/>
      <path d="M 2.984375 54.6875 
L 12.5 54.6875 
L 29.59375 8.796875 
L 46.6875 54.6875 
L 56.203125 54.6875 
L 35.6875 0 
L 23.484375 0 
z
" id="DejaVuSans-118"/>
      <path d="M 44.28125 53.078125 
L 44.28125 44.578125 
Q 40.484375 46.53125 36.375 47.5 
Q 32.28125 48.484375 27.875 48.484375 
Q 21.1875 48.484375 17.84375 46.4375 
Q 14.5 44.390625 14.5 40.28125 
Q 14.5 37.15625 16.890625 35.375 
Q 19.28125 33.59375 26.515625 31.984375 
L 29.59375 31.296875 
Q 39.15625 29.25 43.1875 25.515625 
Q 47.21875 21.78125 47.21875 15.09375 
Q 47.21875 7.46875 41.1875 3.015625 
Q 35.15625 -1.421875 24.609375 -1.421875 
Q 20.21875 -1.421875 15.453125 -0.5625 
Q 10.6875 0.296875 5.421875 2 
L 5.421875 11.28125 
Q 10.40625 8.6875 15.234375 7.390625 
Q 20.0625 6.109375 24.8125 6.109375 
Q 31.15625 6.109375 34.5625 8.28125 
Q 37.984375 10.453125 37.984375 14.40625 
Q 37.984375 18.0625 35.515625 20.015625 
Q 33.0625 21.96875 24.703125 23.78125 
L 21.578125 24.515625 
Q 13.234375 26.265625 9.515625 29.90625 
Q 5.8125 33.546875 5.8125 39.890625 
Q 5.8125 47.609375 11.28125 51.796875 
Q 16.75 56 26.8125 56 
Q 31.78125 56 36.171875 55.265625 
Q 40.578125 54.546875 44.28125 53.078125 
z
" id="DejaVuSans-115"/>
     </defs>
     <g transform="translate(159.015469 301.588562)scale(0.1 -0.1)">
      <use xlink:href="#DejaVuSans-116"/>
      <use x="39.208984" xlink:href="#DejaVuSans-104"/>
      <use x="102.587891" xlink:href="#DejaVuSans-101"/>
      <use x="164.111328" xlink:href="#DejaVuSans-116"/>
      <use x="203.320312" xlink:href="#DejaVuSans-97"/>
      <use x="264.599609" xlink:href="#DejaVuSans-95"/>
      <use x="314.599609" xlink:href="#DejaVuSans-103"/>
      <use x="378.076172" xlink:href="#DejaVuSans-97"/>
      <use x="439.355469" xlink:href="#DejaVuSans-109"/>
      <use x="536.767578" xlink:href="#DejaVuSans-109"/>
      <use x="634.179688" xlink:href="#DejaVuSans-97"/>
      <use x="695.458984" xlink:href="#DejaVuSans-95"/>
      <use x="745.458984" xlink:href="#DejaVuSans-112"/>
      <use x="808.935547" xlink:href="#DejaVuSans-105"/>
      <use x="836.71875" xlink:href="#DejaVuSans-48"/>
      <use x="900.341797" xlink:href="#DejaVuSans-95"/>
      <use x="950.341797" xlink:href="#DejaVuSans-118"/>
      <use x="1009.521484" xlink:href="#DejaVuSans-115"/>
      <use x="1061.621094" xlink:href="#DejaVuSans-95"/>
      <use x="1111.621094" xlink:href="#DejaVuSans-112"/>
      <use x="1175.097656" xlink:href="#DejaVuSans-105"/>
      <use x="1202.880859" xlink:href="#DejaVuSans-48"/>
     </g>
    </g>
   </g>
   <g id="matplotlib.axis_2">
    <g id="ytick_1">
     <g id="line2d_15">
      <path clip-path="url(#p8c78e0d7c6)" d="M 43.78125 273.312 
L 400.90125 273.312 
" style="fill:none;stroke:#b0b0b0;stroke-linecap:square;stroke-width:0.8;"/>
     </g>
     <g id="line2d_16">
      <defs>
       <path d="M 0 0 
L -3.5 0 
" id="m8e2c85a05a" style="stroke:#000000;stroke-width:0.8;"/>
      </defs>
      <g>
       <use style="stroke:#000000;stroke-width:0.8;" x="43.78125" xlink:href="#m8e2c85a05a" y="273.312"/>
      </g>
     </g>
     <g id="text_9">
      <!-- 0.0 -->
      <g transform="translate(20.878125 277.111219)scale(0.1 -0.1)">
       <use xlink:href="#DejaVuSans-48"/>
       <use x="63.623047" xlink:href="#DejaVuSans-46"/>
       <use x="95.410156" xlink:href="#DejaVuSans-48"/>
      </g>
     </g>
    </g>
    <g id="ytick_2">
     <g id="line2d_17">
      <path clip-path="url(#p8c78e0d7c6)" d="M 43.78125 242.936829 
L 400.90125 242.936829 
" style="fill:none;stroke:#b0b0b0;stroke-linecap:square;stroke-width:0.8;"/>
     </g>
     <g id="line2d_18">
      <g>
       <use style="stroke:#000000;stroke-width:0.8;" x="43.78125" xlink:href="#m8e2c85a05a" y="242.936829"/>
      </g>
     </g>
     <g id="text_10">
      <!-- 0.1 -->
      <g transform="translate(20.878125 246.736048)scale(0.1 -0.1)">
       <use xlink:href="#DejaVuSans-48"/>
       <use x="63.623047" xlink:href="#DejaVuSans-46"/>
       <use x="95.410156" xlink:href="#DejaVuSans-49"/>
      </g>
     </g>
    </g>
    <g id="ytick_3">
     <g id="line2d_19">
      <path clip-path="url(#p8c78e0d7c6)" d="M 43.78125 212.561658 
L 400.90125 212.561658 
" style="fill:none;stroke:#b0b0b0;stroke-linecap:square;stroke-width:0.8;"/>
     </g>
     <g id="line2d_20">
      <g>
       <use style="stroke:#000000;stroke-width:0.8;" x="43.78125" xlink:href="#m8e2c85a05a" y="212.561658"/>
      </g>
     </g>
     <g id="text_11">
      <!-- 0.2 -->
      <g transform="translate(20.878125 216.360877)scale(0.1 -0.1)">
       <use xlink:href="#DejaVuSans-48"/>
       <use x="63.623047" xlink:href="#DejaVuSans-46"/>
       <use x="95.410156" xlink:href="#DejaVuSans-50"/>
      </g>
     </g>
    </g>
    <g id="ytick_4">
     <g id="line2d_21">
      <path clip-path="url(#p8c78e0d7c6)" d="M 43.78125 182.186487 
L 400.90125 182.186487 
" style="fill:none;stroke:#b0b0b0;stroke-linecap:square;stroke-width:0.8;"/>
     </g>
     <g id="line2d_22">
      <g>
       <use style="stroke:#000000;stroke-width:0.8;" x="43.78125" xlink:href="#m8e2c85a05a" y="182.186487"/>
      </g>
     </g>
     <g id="text_12">
      <!-- 0.3 -->
      <g transform="translate(20.878125 185.985706)scale(0.1 -0.1)">
       <use xlink:href="#DejaVuSans-48"/>
       <use x="63.623047" xlink:href="#DejaVuSans-46"/>
       <use x="95.410156" xlink:href="#DejaVuSans-51"/>
      </g>
     </g>
    </g>
    <g id="ytick_5">
     <g id="line2d_23">
      <path clip-path="url(#p8c78e0d7c6)" d="M 43.78125 151.811316 
L 400.90125 151.811316 
" style="fill:none;stroke:#b0b0b0;stroke-linecap:square;stroke-width:0.8;"/>
     </g>
     <g id="line2d_24">
      <g>
       <use style="stroke:#000000;stroke-width:0.8;" x="43.78125" xlink:href="#m8e2c85a05a" y="151.811316"/>
      </g>
     </g>
     <g id="text_13">
      <!-- 0.4 -->
      <defs>
       <path d="M 37.796875 64.3125 
L 12.890625 25.390625 
L 37.796875 25.390625 
z
M 35.203125 72.90625 
L 47.609375 72.90625 
L 47.609375 25.390625 
L 58.015625 25.390625 
L 58.015625 17.1875 
L 47.609375 17.1875 
L 47.609375 0 
L 37.796875 0 
L 37.796875 17.1875 
L 4.890625 17.1875 
L 4.890625 26.703125 
z
" id="DejaVuSans-52"/>
      </defs>
      <g transform="translate(20.878125 155.610535)scale(0.1 -0.1)">
       <use xlink:href="#DejaVuSans-48"/>
       <use x="63.623047" xlink:href="#DejaVuSans-46"/>
       <use x="95.410156" xlink:href="#DejaVuSans-52"/>
      </g>
     </g>
    </g>
    <g id="ytick_6">
     <g id="line2d_25">
      <path clip-path="url(#p8c78e0d7c6)" d="M 43.78125 121.436145 
L 400.90125 121.436145 
" style="fill:none;stroke:#b0b0b0;stroke-linecap:square;stroke-width:0.8;"/>
     </g>
     <g id="line2d_26">
      <g>
       <use style="stroke:#000000;stroke-width:0.8;" x="43.78125" xlink:href="#m8e2c85a05a" y="121.436145"/>
      </g>
     </g>
     <g id="text_14">
      <!-- 0.5 -->
      <g transform="translate(20.878125 125.235364)scale(0.1 -0.1)">
       <use xlink:href="#DejaVuSans-48"/>
       <use x="63.623047" xlink:href="#DejaVuSans-46"/>
       <use x="95.410156" xlink:href="#DejaVuSans-53"/>
      </g>
     </g>
    </g>
    <g id="ytick_7">
     <g id="line2d_27">
      <path clip-path="url(#p8c78e0d7c6)" d="M 43.78125 91.060974 
L 400.90125 91.060974 
" style="fill:none;stroke:#b0b0b0;stroke-linecap:square;stroke-width:0.8;"/>
     </g>
     <g id="line2d_28">
      <g>
       <use style="stroke:#000000;stroke-width:0.8;" x="43.78125" xlink:href="#m8e2c85a05a" y="91.060974"/>
      </g>
     </g>
     <g id="text_15">
      <!-- 0.6 -->
      <defs>
       <path d="M 33.015625 40.375 
Q 26.375 40.375 22.484375 35.828125 
Q 18.609375 31.296875 18.609375 23.390625 
Q 18.609375 15.53125 22.484375 10.953125 
Q 26.375 6.390625 33.015625 6.390625 
Q 39.65625 6.390625 43.53125 10.953125 
Q 47.40625 15.53125 47.40625 23.390625 
Q 47.40625 31.296875 43.53125 35.828125 
Q 39.65625 40.375 33.015625 40.375 
z
M 52.59375 71.296875 
L 52.59375 62.3125 
Q 48.875 64.0625 45.09375 64.984375 
Q 41.3125 65.921875 37.59375 65.921875 
Q 27.828125 65.921875 22.671875 59.328125 
Q 17.53125 52.734375 16.796875 39.40625 
Q 19.671875 43.65625 24.015625 45.921875 
Q 28.375 48.1875 33.59375 48.1875 
Q 44.578125 48.1875 50.953125 41.515625 
Q 57.328125 34.859375 57.328125 23.390625 
Q 57.328125 12.15625 50.6875 5.359375 
Q 44.046875 -1.421875 33.015625 -1.421875 
Q 20.359375 -1.421875 13.671875 8.265625 
Q 6.984375 17.96875 6.984375 36.375 
Q 6.984375 53.65625 15.1875 63.9375 
Q 23.390625 74.21875 37.203125 74.21875 
Q 40.921875 74.21875 44.703125 73.484375 
Q 48.484375 72.75 52.59375 71.296875 
z
" id="DejaVuSans-54"/>
      </defs>
      <g transform="translate(20.878125 94.860193)scale(0.1 -0.1)">
       <use xlink:href="#DejaVuSans-48"/>
       <use x="63.623047" xlink:href="#DejaVuSans-46"/>
       <use x="95.410156" xlink:href="#DejaVuSans-54"/>
      </g>
     </g>
    </g>
    <g id="ytick_8">
     <g id="line2d_29">
      <path clip-path="url(#p8c78e0d7c6)" d="M 43.78125 60.685803 
L 400.90125 60.685803 
" style="fill:none;stroke:#b0b0b0;stroke-linecap:square;stroke-width:0.8;"/>
     </g>
     <g id="line2d_30">
      <g>
       <use style="stroke:#000000;stroke-width:0.8;" x="43.78125" xlink:href="#m8e2c85a05a" y="60.685803"/>
      </g>
     </g>
     <g id="text_16">
      <!-- 0.7 -->
      <defs>
       <path d="M 8.203125 72.90625 
L 55.078125 72.90625 
L 55.078125 68.703125 
L 28.609375 0 
L 18.3125 0 
L 43.21875 64.59375 
L 8.203125 64.59375 
z
" id="DejaVuSans-55"/>
      </defs>
      <g transform="translate(20.878125 64.485022)scale(0.1 -0.1)">
       <use xlink:href="#DejaVuSans-48"/>
       <use x="63.623047" xlink:href="#DejaVuSans-46"/>
       <use x="95.410156" xlink:href="#DejaVuSans-55"/>
      </g>
     </g>
    </g>
    <g id="ytick_9">
     <g id="line2d_31">
      <path clip-path="url(#p8c78e0d7c6)" d="M 43.78125 30.310633 
L 400.90125 30.310633 
" style="fill:none;stroke:#b0b0b0;stroke-linecap:square;stroke-width:0.8;"/>
     </g>
     <g id="line2d_32">
      <g>
       <use style="stroke:#000000;stroke-width:0.8;" x="43.78125" xlink:href="#m8e2c85a05a" y="30.310633"/>
      </g>
     </g>
     <g id="text_17">
      <!-- 0.8 -->
      <defs>
       <path d="M 31.78125 34.625 
Q 24.75 34.625 20.71875 30.859375 
Q 16.703125 27.09375 16.703125 20.515625 
Q 16.703125 13.921875 20.71875 10.15625 
Q 24.75 6.390625 31.78125 6.390625 
Q 38.8125 6.390625 42.859375 10.171875 
Q 46.921875 13.96875 46.921875 20.515625 
Q 46.921875 27.09375 42.890625 30.859375 
Q 38.875 34.625 31.78125 34.625 
z
M 21.921875 38.8125 
Q 15.578125 40.375 12.03125 44.71875 
Q 8.5 49.078125 8.5 55.328125 
Q 8.5 64.0625 14.71875 69.140625 
Q 20.953125 74.21875 31.78125 74.21875 
Q 42.671875 74.21875 48.875 69.140625 
Q 55.078125 64.0625 55.078125 55.328125 
Q 55.078125 49.078125 51.53125 44.71875 
Q 48 40.375 41.703125 38.8125 
Q 48.828125 37.15625 52.796875 32.3125 
Q 56.78125 27.484375 56.78125 20.515625 
Q 56.78125 9.90625 50.3125 4.234375 
Q 43.84375 -1.421875 31.78125 -1.421875 
Q 19.734375 -1.421875 13.25 4.234375 
Q 6.78125 9.90625 6.78125 20.515625 
Q 6.78125 27.484375 10.78125 32.3125 
Q 14.796875 37.15625 21.921875 38.8125 
z
M 18.3125 54.390625 
Q 18.3125 48.734375 21.84375 45.5625 
Q 25.390625 42.390625 31.78125 42.390625 
Q 38.140625 42.390625 41.71875 45.5625 
Q 45.3125 48.734375 45.3125 54.390625 
Q 45.3125 60.0625 41.71875 63.234375 
Q 38.140625 66.40625 31.78125 66.40625 
Q 25.390625 66.40625 21.84375 63.234375 
Q 18.3125 60.0625 18.3125 54.390625 
z
" id="DejaVuSans-56"/>
      </defs>
      <g transform="translate(20.878125 34.109851)scale(0.1 -0.1)">
       <use xlink:href="#DejaVuSans-48"/>
       <use x="63.623047" xlink:href="#DejaVuSans-46"/>
       <use x="95.410156" xlink:href="#DejaVuSans-56"/>
      </g>
     </g>
    </g>
    <g id="text_18">
     <!-- normalized intensity -->
     <defs>
      <path d="M 54.890625 33.015625 
L 54.890625 0 
L 45.90625 0 
L 45.90625 32.71875 
Q 45.90625 40.484375 42.875 44.328125 
Q 39.84375 48.1875 33.796875 48.1875 
Q 26.515625 48.1875 22.3125 43.546875 
Q 18.109375 38.921875 18.109375 30.90625 
L 18.109375 0 
L 9.078125 0 
L 9.078125 54.6875 
L 18.109375 54.6875 
L 18.109375 46.1875 
Q 21.34375 51.125 25.703125 53.5625 
Q 30.078125 56 35.796875 56 
Q 45.21875 56 50.046875 50.171875 
Q 54.890625 44.34375 54.890625 33.015625 
z
" id="DejaVuSans-110"/>
      <path d="M 30.609375 48.390625 
Q 23.390625 48.390625 19.1875 42.75 
Q 14.984375 37.109375 14.984375 27.296875 
Q 14.984375 17.484375 19.15625 11.84375 
Q 23.34375 6.203125 30.609375 6.203125 
Q 37.796875 6.203125 41.984375 11.859375 
Q 46.1875 17.53125 46.1875 27.296875 
Q 46.1875 37.015625 41.984375 42.703125 
Q 37.796875 48.390625 30.609375 48.390625 
z
M 30.609375 56 
Q 42.328125 56 49.015625 48.375 
Q 55.71875 40.765625 55.71875 27.296875 
Q 55.71875 13.875 49.015625 6.21875 
Q 42.328125 -1.421875 30.609375 -1.421875 
Q 18.84375 -1.421875 12.171875 6.21875 
Q 5.515625 13.875 5.515625 27.296875 
Q 5.515625 40.765625 12.171875 48.375 
Q 18.84375 56 30.609375 56 
z
" id="DejaVuSans-111"/>
      <path d="M 41.109375 46.296875 
Q 39.59375 47.171875 37.8125 47.578125 
Q 36.03125 48 33.890625 48 
Q 26.265625 48 22.1875 43.046875 
Q 18.109375 38.09375 18.109375 28.8125 
L 18.109375 0 
L 9.078125 0 
L 9.078125 54.6875 
L 18.109375 54.6875 
L 18.109375 46.1875 
Q 20.953125 51.171875 25.484375 53.578125 
Q 30.03125 56 36.53125 56 
Q 37.453125 56 38.578125 55.875 
Q 39.703125 55.765625 41.0625 55.515625 
z
" id="DejaVuSans-114"/>
      <path d="M 9.421875 75.984375 
L 18.40625 75.984375 
L 18.40625 0 
L 9.421875 0 
z
" id="DejaVuSans-108"/>
      <path d="M 5.515625 54.6875 
L 48.1875 54.6875 
L 48.1875 46.484375 
L 14.40625 7.171875 
L 48.1875 7.171875 
L 48.1875 0 
L 4.296875 0 
L 4.296875 8.203125 
L 38.09375 47.515625 
L 5.515625 47.515625 
z
" id="DejaVuSans-122"/>
      <path d="M 45.40625 46.390625 
L 45.40625 75.984375 
L 54.390625 75.984375 
L 54.390625 0 
L 45.40625 0 
L 45.40625 8.203125 
Q 42.578125 3.328125 38.25 0.953125 
Q 33.9375 -1.421875 27.875 -1.421875 
Q 17.96875 -1.421875 11.734375 6.484375 
Q 5.515625 14.40625 5.515625 27.296875 
Q 5.515625 40.1875 11.734375 48.09375 
Q 17.96875 56 27.875 56 
Q 33.9375 56 38.25 53.625 
Q 42.578125 51.265625 45.40625 46.390625 
z
M 14.796875 27.296875 
Q 14.796875 17.390625 18.875 11.75 
Q 22.953125 6.109375 30.078125 6.109375 
Q 37.203125 6.109375 41.296875 11.75 
Q 45.40625 17.390625 45.40625 27.296875 
Q 45.40625 37.203125 41.296875 42.84375 
Q 37.203125 48.484375 30.078125 48.484375 
Q 22.953125 48.484375 18.875 42.84375 
Q 14.796875 37.203125 14.796875 27.296875 
z
" id="DejaVuSans-100"/>
      <path id="DejaVuSans-32"/>
      <path d="M 32.171875 -5.078125 
Q 28.375 -14.84375 24.75 -17.8125 
Q 21.140625 -20.796875 15.09375 -20.796875 
L 7.90625 -20.796875 
L 7.90625 -13.28125 
L 13.1875 -13.28125 
Q 16.890625 -13.28125 18.9375 -11.515625 
Q 21 -9.765625 23.484375 -3.21875 
L 25.09375 0.875 
L 2.984375 54.6875 
L 12.5 54.6875 
L 29.59375 11.921875 
L 46.6875 54.6875 
L 56.203125 54.6875 
z
" id="DejaVuSans-121"/>
     </defs>
     <g transform="translate(14.798438 191.305219)rotate(-90)scale(0.1 -0.1)">
      <use xlink:href="#DejaVuSans-110"/>
      <use x="63.378906" xlink:href="#DejaVuSans-111"/>
      <use x="124.560547" xlink:href="#DejaVuSans-114"/>
      <use x="163.923828" xlink:href="#DejaVuSans-109"/>
      <use x="261.335938" xlink:href="#DejaVuSans-97"/>
      <use x="322.615234" xlink:href="#DejaVuSans-108"/>
      <use x="350.398438" xlink:href="#DejaVuSans-105"/>
      <use x="378.181641" xlink:href="#DejaVuSans-122"/>
      <use x="430.671875" xlink:href="#DejaVuSans-101"/>
      <use x="492.195312" xlink:href="#DejaVuSans-100"/>
      <use x="555.671875" xlink:href="#DejaVuSans-32"/>
      <use x="587.458984" xlink:href="#DejaVuSans-105"/>
      <use x="615.242188" xlink:href="#DejaVuSans-110"/>
      <use x="678.621094" xlink:href="#DejaVuSans-116"/>
      <use x="717.830078" xlink:href="#DejaVuSans-101"/>
      <use x="779.353516" xlink:href="#DejaVuSans-110"/>
      <use x="842.732422" xlink:href="#DejaVuSans-115"/>
      <use x="894.832031" xlink:href="#DejaVuSans-105"/>
      <use x="922.615234" xlink:href="#DejaVuSans-116"/>
      <use x="961.824219" xlink:href="#DejaVuSans-121"/>
     </g>
    </g>
   </g>
   <g id="patch_104">
    <path d="M 43.78125 273.312 
L 43.78125 7.2 
" style="fill:none;stroke:#000000;stroke-linecap:square;stroke-linejoin:miter;stroke-width:0.8;"/>
   </g>
   <g id="patch_105">
    <path d="M 400.90125 273.312 
L 400.90125 7.2 
" style="fill:none;stroke:#000000;stroke-linecap:square;stroke-linejoin:miter;stroke-width:0.8;"/>
   </g>
   <g id="patch_106">
    <path d="M 43.78125 273.312 
L 400.90125 273.312 
" style="fill:none;stroke:#000000;stroke-linecap:square;stroke-linejoin:miter;stroke-width:0.8;"/>
   </g>
   <g id="patch_107">
    <path d="M 43.78125 7.2 
L 400.90125 7.2 
" style="fill:none;stroke:#000000;stroke-linecap:square;stroke-linejoin:miter;stroke-width:0.8;"/>
   </g>
   <g id="legend_1">
    <g id="patch_108">
     <path d="M 339.37625 44.55625 
L 393.90125 44.55625 
Q 395.90125 44.55625 395.90125 42.55625 
L 395.90125 14.2 
Q 395.90125 12.2 393.90125 12.2 
L 339.37625 12.2 
Q 337.37625 12.2 337.37625 14.2 
L 337.37625 42.55625 
Q 337.37625 44.55625 339.37625 44.55625 
z
" style="fill:#ffffff;opacity:0.8;stroke:#cccccc;stroke-linejoin:miter;"/>
    </g>
    <g id="patch_109">
     <path d="M 341.37625 23.798437 
L 361.37625 23.798437 
L 361.37625 16.798437 
L 341.37625 16.798437 
z
" style="fill:#1f77b4;opacity:0.5;"/>
    </g>
    <g id="text_19">
     <!-- data -->
     <g transform="translate(369.37625 23.798437)scale(0.1 -0.1)">
      <use xlink:href="#DejaVuSans-100"/>
      <use x="63.476562" xlink:href="#DejaVuSans-97"/>
      <use x="124.755859" xlink:href="#DejaVuSans-116"/>
      <use x="163.964844" xlink:href="#DejaVuSans-97"/>
     </g>
    </g>
    <g id="patch_110">
     <path d="M 341.37625 38.476562 
L 361.37625 38.476562 
L 361.37625 31.476562 
L 341.37625 31.476562 
z
" style="fill:none;stroke:#ff0000;stroke-linejoin:miter;"/>
    </g>
    <g id="text_20">
     <!-- fit -->
     <defs>
      <path d="M 37.109375 75.984375 
L 37.109375 68.5 
L 28.515625 68.5 
Q 23.6875 68.5 21.796875 66.546875 
Q 19.921875 64.59375 19.921875 59.515625 
L 19.921875 54.6875 
L 34.71875 54.6875 
L 34.71875 47.703125 
L 19.921875 47.703125 
L 19.921875 0 
L 10.890625 0 
L 10.890625 47.703125 
L 2.296875 47.703125 
L 2.296875 54.6875 
L 10.890625 54.6875 
L 10.890625 58.5 
Q 10.890625 67.625 15.140625 71.796875 
Q 19.390625 75.984375 28.609375 75.984375 
z
" id="DejaVuSans-102"/>
     </defs>
     <g transform="translate(369.37625 38.476562)scale(0.1 -0.1)">
      <use xlink:href="#DejaVuSans-102"/>
      <use x="35.205078" xlink:href="#DejaVuSans-105"/>
      <use x="62.988281" xlink:href="#DejaVuSans-116"/>
     </g>
    </g>
   </g>
  </g>
 </g>
 <defs>
  <clipPath id="p8c78e0d7c6">
   <rect height="266.112" width="357.12" x="43.78125" y="7.2"/>
  </clipPath>
 </defs>
</svg>
