<?xml version="1.0" encoding="utf-8" standalone="no"?>
<!DOCTYPE svg PUBLIC "-//W3C//DTD SVG 1.1//EN"
  "http://www.w3.org/Graphics/SVG/1.1/DTD/svg11.dtd">
<svg height="312.30825pt" version="1.1" viewBox="0 0 394.423125 312.30825" width="394.423125pt" xmlns="http://www.w3.org/2000/svg" xmlns:xlink="http://www.w3.org/1999/xlink">
 <metadata>
  <rdf:RDF xmlns:cc="http://creativecommons.org/ns#" xmlns:dc="http://purl.org/dc/elements/1.1/" xmlns:rdf="http://www.w3.org/1999/02/22-rdf-syntax-ns#">
   <cc:Work>
    <dc:type rdf:resource="http://purl.org/dc/dcmitype/StillImage"/>
    <dc:date>2021-10-23T11:10:29.589341</dc:date>
    <dc:format>image/svg+xml</dc:format>
    <dc:creator>
     <cc:Agent>
      <dc:title>Matplotlib v3.4.3, https://matplotlib.org/</dc:title>
     </cc:Agent>
    </dc:creator>
   </cc:Work>
  </rdf:RDF>
 </metadata>
 <defs>
  <style type="text/css">*{stroke-linecap:butt;stroke-linejoin:round;}</style>
 </defs>
 <g id="figure_1">
  <g id="patch_1">
   <path d="M 0 312.30825 
L 394.423125 312.30825 
L 394.423125 0 
L 0 0 
z
" style="fill:#ffffff;"/>
  </g>
  <g id="axes_1">
   <g id="patch_2">
    <path d="M 30.103125 288.430125 
L 387.223125 288.430125 
L 387.223125 22.318125 
L 30.103125 22.318125 
z
" style="fill:#ffffff;"/>
   </g>
   <g id="patch_3">
    <path clip-path="url(#pc87cca76b6)" d="M 47.984443 288.430125 
L 52.164879 288.430125 
L 52.164879 269.659553 
L 47.984443 269.659553 
z
" style="fill:#1f77b4;opacity:0.5;"/>
   </g>
   <g id="patch_4">
    <path clip-path="url(#pc87cca76b6)" d="M 52.164879 288.430125 
L 56.345315 288.430125 
L 56.345315 288.430125 
L 52.164879 288.430125 
z
" style="fill:#1f77b4;opacity:0.5;"/>
   </g>
   <g id="patch_5">
    <path clip-path="url(#pc87cca76b6)" d="M 56.345315 288.430125 
L 60.525751 288.430125 
L 60.525751 288.430125 
L 56.345315 288.430125 
z
" style="fill:#1f77b4;opacity:0.5;"/>
   </g>
   <g id="patch_6">
    <path clip-path="url(#pc87cca76b6)" d="M 60.525751 288.430125 
L 64.706187 288.430125 
L 64.706187 288.430125 
L 60.525751 288.430125 
z
" style="fill:#1f77b4;opacity:0.5;"/>
   </g>
   <g id="patch_7">
    <path clip-path="url(#pc87cca76b6)" d="M 64.706187 288.430125 
L 68.886624 288.430125 
L 68.886624 288.430125 
L 64.706187 288.430125 
z
" style="fill:#1f77b4;opacity:0.5;"/>
   </g>
   <g id="patch_8">
    <path clip-path="url(#pc87cca76b6)" d="M 68.886624 288.430125 
L 73.06706 288.430125 
L 73.06706 288.430125 
L 68.886624 288.430125 
z
" style="fill:#1f77b4;opacity:0.5;"/>
   </g>
   <g id="patch_9">
    <path clip-path="url(#pc87cca76b6)" d="M 73.06706 288.430125 
L 77.247496 288.430125 
L 77.247496 269.659553 
L 73.06706 269.659553 
z
" style="fill:#1f77b4;opacity:0.5;"/>
   </g>
   <g id="patch_10">
    <path clip-path="url(#pc87cca76b6)" d="M 77.247496 288.430125 
L 81.427932 288.430125 
L 81.427932 288.430125 
L 77.247496 288.430125 
z
" style="fill:#1f77b4;opacity:0.5;"/>
   </g>
   <g id="patch_11">
    <path clip-path="url(#pc87cca76b6)" d="M 81.427932 288.430125 
L 85.608369 288.430125 
L 85.608369 269.659553 
L 81.427932 269.659553 
z
" style="fill:#1f77b4;opacity:0.5;"/>
   </g>
   <g id="patch_12">
    <path clip-path="url(#pc87cca76b6)" d="M 85.608369 288.430125 
L 89.788805 288.430125 
L 89.788805 288.430125 
L 85.608369 288.430125 
z
" style="fill:#1f77b4;opacity:0.5;"/>
   </g>
   <g id="patch_13">
    <path clip-path="url(#pc87cca76b6)" d="M 89.788805 288.430125 
L 93.969241 288.430125 
L 93.969241 194.577266 
L 89.788805 194.577266 
z
" style="fill:#1f77b4;opacity:0.5;"/>
   </g>
   <g id="patch_14">
    <path clip-path="url(#pc87cca76b6)" d="M 93.969241 288.430125 
L 98.149677 288.430125 
L 98.149677 250.888981 
L 93.969241 250.888981 
z
" style="fill:#1f77b4;opacity:0.5;"/>
   </g>
   <g id="patch_15">
    <path clip-path="url(#pc87cca76b6)" d="M 98.149677 288.430125 
L 102.330114 288.430125 
L 102.330114 119.494978 
L 98.149677 119.494978 
z
" style="fill:#1f77b4;opacity:0.5;"/>
   </g>
   <g id="patch_16">
    <path clip-path="url(#pc87cca76b6)" d="M 102.330114 288.430125 
L 106.51055 288.430125 
L 106.51055 100.724407 
L 102.330114 100.724407 
z
" style="fill:#1f77b4;opacity:0.5;"/>
   </g>
   <g id="patch_17">
    <path clip-path="url(#pc87cca76b6)" d="M 106.51055 288.430125 
L 110.690986 288.430125 
L 110.690986 63.183263 
L 106.51055 63.183263 
z
" style="fill:#1f77b4;opacity:0.5;"/>
   </g>
   <g id="patch_18">
    <path clip-path="url(#pc87cca76b6)" d="M 110.690986 288.430125 
L 114.871422 288.430125 
L 114.871422 138.26555 
L 110.690986 138.26555 
z
" style="fill:#1f77b4;opacity:0.5;"/>
   </g>
   <g id="patch_19">
    <path clip-path="url(#pc87cca76b6)" d="M 114.871422 288.430125 
L 119.051859 288.430125 
L 119.051859 194.577266 
L 114.871422 194.577266 
z
" style="fill:#1f77b4;opacity:0.5;"/>
   </g>
   <g id="patch_20">
    <path clip-path="url(#pc87cca76b6)" d="M 119.051859 288.430125 
L 123.232295 288.430125 
L 123.232295 44.412691 
L 119.051859 44.412691 
z
" style="fill:#1f77b4;opacity:0.5;"/>
   </g>
   <g id="patch_21">
    <path clip-path="url(#pc87cca76b6)" d="M 123.232295 288.430125 
L 127.412731 288.430125 
L 127.412731 194.577266 
L 123.232295 194.577266 
z
" style="fill:#1f77b4;opacity:0.5;"/>
   </g>
   <g id="patch_22">
    <path clip-path="url(#pc87cca76b6)" d="M 127.412731 288.430125 
L 131.593167 288.430125 
L 131.593167 157.036122 
L 127.412731 157.036122 
z
" style="fill:#1f77b4;opacity:0.5;"/>
   </g>
   <g id="patch_23">
    <path clip-path="url(#pc87cca76b6)" d="M 131.593167 288.430125 
L 135.773604 288.430125 
L 135.773604 138.26555 
L 131.593167 138.26555 
z
" style="fill:#1f77b4;opacity:0.5;"/>
   </g>
   <g id="patch_24">
    <path clip-path="url(#pc87cca76b6)" d="M 135.773604 288.430125 
L 139.95404 288.430125 
L 139.95404 81.953835 
L 135.773604 81.953835 
z
" style="fill:#1f77b4;opacity:0.5;"/>
   </g>
   <g id="patch_25">
    <path clip-path="url(#pc87cca76b6)" d="M 139.95404 288.430125 
L 144.134476 288.430125 
L 144.134476 232.118409 
L 139.95404 232.118409 
z
" style="fill:#1f77b4;opacity:0.5;"/>
   </g>
   <g id="patch_26">
    <path clip-path="url(#pc87cca76b6)" d="M 144.134476 288.430125 
L 148.314912 288.430125 
L 148.314912 232.118409 
L 144.134476 232.118409 
z
" style="fill:#1f77b4;opacity:0.5;"/>
   </g>
   <g id="patch_27">
    <path clip-path="url(#pc87cca76b6)" d="M 148.314912 288.430125 
L 152.495349 288.430125 
L 152.495349 175.806694 
L 148.314912 175.806694 
z
" style="fill:#1f77b4;opacity:0.5;"/>
   </g>
   <g id="patch_28">
    <path clip-path="url(#pc87cca76b6)" d="M 152.495349 288.430125 
L 156.675785 288.430125 
L 156.675785 250.888981 
L 152.495349 250.888981 
z
" style="fill:#1f77b4;opacity:0.5;"/>
   </g>
   <g id="patch_29">
    <path clip-path="url(#pc87cca76b6)" d="M 156.675785 288.430125 
L 160.856221 288.430125 
L 160.856221 232.118409 
L 156.675785 232.118409 
z
" style="fill:#1f77b4;opacity:0.5;"/>
   </g>
   <g id="patch_30">
    <path clip-path="url(#pc87cca76b6)" d="M 160.856221 288.430125 
L 165.036657 288.430125 
L 165.036657 250.888981 
L 160.856221 250.888981 
z
" style="fill:#1f77b4;opacity:0.5;"/>
   </g>
   <g id="patch_31">
    <path clip-path="url(#pc87cca76b6)" d="M 165.036657 288.430125 
L 169.217093 288.430125 
L 169.217093 232.118409 
L 165.036657 232.118409 
z
" style="fill:#1f77b4;opacity:0.5;"/>
   </g>
   <g id="patch_32">
    <path clip-path="url(#pc87cca76b6)" d="M 169.217093 288.430125 
L 173.39753 288.430125 
L 173.39753 232.118409 
L 169.217093 232.118409 
z
" style="fill:#1f77b4;opacity:0.5;"/>
   </g>
   <g id="patch_33">
    <path clip-path="url(#pc87cca76b6)" d="M 173.39753 288.430125 
L 177.577966 288.430125 
L 177.577966 250.888981 
L 173.39753 250.888981 
z
" style="fill:#1f77b4;opacity:0.5;"/>
   </g>
   <g id="patch_34">
    <path clip-path="url(#pc87cca76b6)" d="M 177.577966 288.430125 
L 181.758402 288.430125 
L 181.758402 269.659553 
L 177.577966 269.659553 
z
" style="fill:#1f77b4;opacity:0.5;"/>
   </g>
   <g id="patch_35">
    <path clip-path="url(#pc87cca76b6)" d="M 181.758402 288.430125 
L 185.938838 288.430125 
L 185.938838 288.430125 
L 181.758402 288.430125 
z
" style="fill:#1f77b4;opacity:0.5;"/>
   </g>
   <g id="patch_36">
    <path clip-path="url(#pc87cca76b6)" d="M 185.938838 288.430125 
L 190.119275 288.430125 
L 190.119275 232.118409 
L 185.938838 232.118409 
z
" style="fill:#1f77b4;opacity:0.5;"/>
   </g>
   <g id="patch_37">
    <path clip-path="url(#pc87cca76b6)" d="M 190.119275 288.430125 
L 194.299711 288.430125 
L 194.299711 250.888981 
L 190.119275 250.888981 
z
" style="fill:#1f77b4;opacity:0.5;"/>
   </g>
   <g id="patch_38">
    <path clip-path="url(#pc87cca76b6)" d="M 194.299711 288.430125 
L 198.480147 288.430125 
L 198.480147 250.888981 
L 194.299711 250.888981 
z
" style="fill:#1f77b4;opacity:0.5;"/>
   </g>
   <g id="patch_39">
    <path clip-path="url(#pc87cca76b6)" d="M 198.480147 288.430125 
L 202.660583 288.430125 
L 202.660583 250.888981 
L 198.480147 250.888981 
z
" style="fill:#1f77b4;opacity:0.5;"/>
   </g>
   <g id="patch_40">
    <path clip-path="url(#pc87cca76b6)" d="M 202.660583 288.430125 
L 206.84102 288.430125 
L 206.84102 269.659553 
L 202.660583 269.659553 
z
" style="fill:#1f77b4;opacity:0.5;"/>
   </g>
   <g id="patch_41">
    <path clip-path="url(#pc87cca76b6)" d="M 206.84102 288.430125 
L 211.021456 288.430125 
L 211.021456 269.659553 
L 206.84102 269.659553 
z
" style="fill:#1f77b4;opacity:0.5;"/>
   </g>
   <g id="patch_42">
    <path clip-path="url(#pc87cca76b6)" d="M 211.021456 288.430125 
L 215.201892 288.430125 
L 215.201892 250.888981 
L 211.021456 250.888981 
z
" style="fill:#1f77b4;opacity:0.5;"/>
   </g>
   <g id="patch_43">
    <path clip-path="url(#pc87cca76b6)" d="M 215.201892 288.430125 
L 219.382328 288.430125 
L 219.382328 269.659553 
L 215.201892 269.659553 
z
" style="fill:#1f77b4;opacity:0.5;"/>
   </g>
   <g id="patch_44">
    <path clip-path="url(#pc87cca76b6)" d="M 219.382328 288.430125 
L 223.562765 288.430125 
L 223.562765 250.888981 
L 219.382328 250.888981 
z
" style="fill:#1f77b4;opacity:0.5;"/>
   </g>
   <g id="patch_45">
    <path clip-path="url(#pc87cca76b6)" d="M 223.562765 288.430125 
L 227.743201 288.430125 
L 227.743201 269.659553 
L 223.562765 269.659553 
z
" style="fill:#1f77b4;opacity:0.5;"/>
   </g>
   <g id="patch_46">
    <path clip-path="url(#pc87cca76b6)" d="M 227.743201 288.430125 
L 231.923637 288.430125 
L 231.923637 288.430125 
L 227.743201 288.430125 
z
" style="fill:#1f77b4;opacity:0.5;"/>
   </g>
   <g id="patch_47">
    <path clip-path="url(#pc87cca76b6)" d="M 231.923637 288.430125 
L 236.104073 288.430125 
L 236.104073 288.430125 
L 231.923637 288.430125 
z
" style="fill:#1f77b4;opacity:0.5;"/>
   </g>
   <g id="patch_48">
    <path clip-path="url(#pc87cca76b6)" d="M 236.104073 288.430125 
L 240.28451 288.430125 
L 240.28451 288.430125 
L 236.104073 288.430125 
z
" style="fill:#1f77b4;opacity:0.5;"/>
   </g>
   <g id="patch_49">
    <path clip-path="url(#pc87cca76b6)" d="M 240.28451 288.430125 
L 244.464946 288.430125 
L 244.464946 288.430125 
L 240.28451 288.430125 
z
" style="fill:#1f77b4;opacity:0.5;"/>
   </g>
   <g id="patch_50">
    <path clip-path="url(#pc87cca76b6)" d="M 244.464946 288.430125 
L 248.645382 288.430125 
L 248.645382 213.347838 
L 244.464946 213.347838 
z
" style="fill:#1f77b4;opacity:0.5;"/>
   </g>
   <g id="patch_51">
    <path clip-path="url(#pc87cca76b6)" d="M 248.645382 288.430125 
L 252.825818 288.430125 
L 252.825818 269.659553 
L 248.645382 269.659553 
z
" style="fill:#1f77b4;opacity:0.5;"/>
   </g>
   <g id="patch_52">
    <path clip-path="url(#pc87cca76b6)" d="M 252.825818 288.430125 
L 257.006255 288.430125 
L 257.006255 288.430125 
L 252.825818 288.430125 
z
" style="fill:#1f77b4;opacity:0.5;"/>
   </g>
   <g id="patch_53">
    <path clip-path="url(#pc87cca76b6)" d="M 257.006255 288.430125 
L 261.186691 288.430125 
L 261.186691 288.430125 
L 257.006255 288.430125 
z
" style="fill:#1f77b4;opacity:0.5;"/>
   </g>
   <g id="patch_54">
    <path clip-path="url(#pc87cca76b6)" d="M 261.186691 288.430125 
L 265.367127 288.430125 
L 265.367127 288.430125 
L 261.186691 288.430125 
z
" style="fill:#1f77b4;opacity:0.5;"/>
   </g>
   <g id="patch_55">
    <path clip-path="url(#pc87cca76b6)" d="M 265.367127 288.430125 
L 269.547563 288.430125 
L 269.547563 269.659553 
L 265.367127 269.659553 
z
" style="fill:#1f77b4;opacity:0.5;"/>
   </g>
   <g id="patch_56">
    <path clip-path="url(#pc87cca76b6)" d="M 269.547563 288.430125 
L 273.727999 288.430125 
L 273.727999 288.430125 
L 269.547563 288.430125 
z
" style="fill:#1f77b4;opacity:0.5;"/>
   </g>
   <g id="patch_57">
    <path clip-path="url(#pc87cca76b6)" d="M 273.727999 288.430125 
L 277.908436 288.430125 
L 277.908436 269.659553 
L 273.727999 269.659553 
z
" style="fill:#1f77b4;opacity:0.5;"/>
   </g>
   <g id="patch_58">
    <path clip-path="url(#pc87cca76b6)" d="M 277.908436 288.430125 
L 282.088872 288.430125 
L 282.088872 288.430125 
L 277.908436 288.430125 
z
" style="fill:#1f77b4;opacity:0.5;"/>
   </g>
   <g id="patch_59">
    <path clip-path="url(#pc87cca76b6)" d="M 282.088872 288.430125 
L 286.269308 288.430125 
L 286.269308 288.430125 
L 282.088872 288.430125 
z
" style="fill:#1f77b4;opacity:0.5;"/>
   </g>
   <g id="patch_60">
    <path clip-path="url(#pc87cca76b6)" d="M 286.269308 288.430125 
L 290.449744 288.430125 
L 290.449744 288.430125 
L 286.269308 288.430125 
z
" style="fill:#1f77b4;opacity:0.5;"/>
   </g>
   <g id="patch_61">
    <path clip-path="url(#pc87cca76b6)" d="M 290.449744 288.430125 
L 294.630181 288.430125 
L 294.630181 288.430125 
L 290.449744 288.430125 
z
" style="fill:#1f77b4;opacity:0.5;"/>
   </g>
   <g id="patch_62">
    <path clip-path="url(#pc87cca76b6)" d="M 294.630181 288.430125 
L 298.810617 288.430125 
L 298.810617 269.659553 
L 294.630181 269.659553 
z
" style="fill:#1f77b4;opacity:0.5;"/>
   </g>
   <g id="matplotlib.axis_1">
    <g id="xtick_1">
     <g id="line2d_1">
      <path clip-path="url(#pc87cca76b6)" d="M 37.680744 288.430125 
L 37.680744 22.318125 
" style="fill:none;stroke:#b0b0b0;stroke-linecap:square;stroke-width:0.8;"/>
     </g>
     <g id="line2d_2">
      <defs>
       <path d="M 0 0 
L 0 3.5 
" id="ma33545ebc7" style="stroke:#000000;stroke-width:0.8;"/>
      </defs>
      <g>
       <use style="stroke:#000000;stroke-width:0.8;" x="37.680744" xlink:href="#ma33545ebc7" y="288.430125"/>
      </g>
     </g>
     <g id="text_1">
      <!-- 0.0 -->
      <g transform="translate(29.729181 303.028562)scale(0.1 -0.1)">
       <defs>
        <path d="M 2034 4250 
Q 1547 4250 1301 3770 
Q 1056 3291 1056 2328 
Q 1056 1369 1301 889 
Q 1547 409 2034 409 
Q 2525 409 2770 889 
Q 3016 1369 3016 2328 
Q 3016 3291 2770 3770 
Q 2525 4250 2034 4250 
z
M 2034 4750 
Q 2819 4750 3233 4129 
Q 3647 3509 3647 2328 
Q 3647 1150 3233 529 
Q 2819 -91 2034 -91 
Q 1250 -91 836 529 
Q 422 1150 422 2328 
Q 422 3509 836 4129 
Q 1250 4750 2034 4750 
z
" id="DejaVuSans-30" transform="scale(0.015625)"/>
        <path d="M 684 794 
L 1344 794 
L 1344 0 
L 684 0 
L 684 794 
z
" id="DejaVuSans-2e" transform="scale(0.015625)"/>
       </defs>
       <use xlink:href="#DejaVuSans-30"/>
       <use x="63.623047" xlink:href="#DejaVuSans-2e"/>
       <use x="95.410156" xlink:href="#DejaVuSans-30"/>
      </g>
     </g>
    </g>
    <g id="xtick_2">
     <g id="line2d_3">
      <path clip-path="url(#pc87cca76b6)" d="M 91.203639 288.430125 
L 91.203639 22.318125 
" style="fill:none;stroke:#b0b0b0;stroke-linecap:square;stroke-width:0.8;"/>
     </g>
     <g id="line2d_4">
      <g>
       <use style="stroke:#000000;stroke-width:0.8;" x="91.203639" xlink:href="#ma33545ebc7" y="288.430125"/>
      </g>
     </g>
     <g id="text_2">
      <!-- 0.5 -->
      <g transform="translate(83.252077 303.028562)scale(0.1 -0.1)">
       <defs>
        <path d="M 691 4666 
L 3169 4666 
L 3169 4134 
L 1269 4134 
L 1269 2991 
Q 1406 3038 1543 3061 
Q 1681 3084 1819 3084 
Q 2600 3084 3056 2656 
Q 3513 2228 3513 1497 
Q 3513 744 3044 326 
Q 2575 -91 1722 -91 
Q 1428 -91 1123 -41 
Q 819 9 494 109 
L 494 744 
Q 775 591 1075 516 
Q 1375 441 1709 441 
Q 2250 441 2565 725 
Q 2881 1009 2881 1497 
Q 2881 1984 2565 2268 
Q 2250 2553 1709 2553 
Q 1456 2553 1204 2497 
Q 953 2441 691 2322 
L 691 4666 
z
" id="DejaVuSans-35" transform="scale(0.015625)"/>
       </defs>
       <use xlink:href="#DejaVuSans-30"/>
       <use x="63.623047" xlink:href="#DejaVuSans-2e"/>
       <use x="95.410156" xlink:href="#DejaVuSans-35"/>
      </g>
     </g>
    </g>
    <g id="xtick_3">
     <g id="line2d_5">
      <path clip-path="url(#pc87cca76b6)" d="M 144.726535 288.430125 
L 144.726535 22.318125 
" style="fill:none;stroke:#b0b0b0;stroke-linecap:square;stroke-width:0.8;"/>
     </g>
     <g id="line2d_6">
      <g>
       <use style="stroke:#000000;stroke-width:0.8;" x="144.726535" xlink:href="#ma33545ebc7" y="288.430125"/>
      </g>
     </g>
     <g id="text_3">
      <!-- 1.0 -->
      <g transform="translate(136.774972 303.028562)scale(0.1 -0.1)">
       <defs>
        <path d="M 794 531 
L 1825 531 
L 1825 4091 
L 703 3866 
L 703 4441 
L 1819 4666 
L 2450 4666 
L 2450 531 
L 3481 531 
L 3481 0 
L 794 0 
L 794 531 
z
" id="DejaVuSans-31" transform="scale(0.015625)"/>
       </defs>
       <use xlink:href="#DejaVuSans-31"/>
       <use x="63.623047" xlink:href="#DejaVuSans-2e"/>
       <use x="95.410156" xlink:href="#DejaVuSans-30"/>
      </g>
     </g>
    </g>
    <g id="xtick_4">
     <g id="line2d_7">
      <path clip-path="url(#pc87cca76b6)" d="M 198.24943 288.430125 
L 198.24943 22.318125 
" style="fill:none;stroke:#b0b0b0;stroke-linecap:square;stroke-width:0.8;"/>
     </g>
     <g id="line2d_8">
      <g>
       <use style="stroke:#000000;stroke-width:0.8;" x="198.24943" xlink:href="#ma33545ebc7" y="288.430125"/>
      </g>
     </g>
     <g id="text_4">
      <!-- 1.5 -->
      <g transform="translate(190.297868 303.028562)scale(0.1 -0.1)">
       <use xlink:href="#DejaVuSans-31"/>
       <use x="63.623047" xlink:href="#DejaVuSans-2e"/>
       <use x="95.410156" xlink:href="#DejaVuSans-35"/>
      </g>
     </g>
    </g>
    <g id="xtick_5">
     <g id="line2d_9">
      <path clip-path="url(#pc87cca76b6)" d="M 251.772326 288.430125 
L 251.772326 22.318125 
" style="fill:none;stroke:#b0b0b0;stroke-linecap:square;stroke-width:0.8;"/>
     </g>
     <g id="line2d_10">
      <g>
       <use style="stroke:#000000;stroke-width:0.8;" x="251.772326" xlink:href="#ma33545ebc7" y="288.430125"/>
      </g>
     </g>
     <g id="text_5">
      <!-- 2.0 -->
      <g transform="translate(243.820763 303.028562)scale(0.1 -0.1)">
       <defs>
        <path d="M 1228 531 
L 3431 531 
L 3431 0 
L 469 0 
L 469 531 
Q 828 903 1448 1529 
Q 2069 2156 2228 2338 
Q 2531 2678 2651 2914 
Q 2772 3150 2772 3378 
Q 2772 3750 2511 3984 
Q 2250 4219 1831 4219 
Q 1534 4219 1204 4116 
Q 875 4013 500 3803 
L 500 4441 
Q 881 4594 1212 4672 
Q 1544 4750 1819 4750 
Q 2544 4750 2975 4387 
Q 3406 4025 3406 3419 
Q 3406 3131 3298 2873 
Q 3191 2616 2906 2266 
Q 2828 2175 2409 1742 
Q 1991 1309 1228 531 
z
" id="DejaVuSans-32" transform="scale(0.015625)"/>
       </defs>
       <use xlink:href="#DejaVuSans-32"/>
       <use x="63.623047" xlink:href="#DejaVuSans-2e"/>
       <use x="95.410156" xlink:href="#DejaVuSans-30"/>
      </g>
     </g>
    </g>
    <g id="xtick_6">
     <g id="line2d_11">
      <path clip-path="url(#pc87cca76b6)" d="M 305.295221 288.430125 
L 305.295221 22.318125 
" style="fill:none;stroke:#b0b0b0;stroke-linecap:square;stroke-width:0.8;"/>
     </g>
     <g id="line2d_12">
      <g>
       <use style="stroke:#000000;stroke-width:0.8;" x="305.295221" xlink:href="#ma33545ebc7" y="288.430125"/>
      </g>
     </g>
     <g id="text_6">
      <!-- 2.5 -->
      <g transform="translate(297.343659 303.028562)scale(0.1 -0.1)">
       <use xlink:href="#DejaVuSans-32"/>
       <use x="63.623047" xlink:href="#DejaVuSans-2e"/>
       <use x="95.410156" xlink:href="#DejaVuSans-35"/>
      </g>
     </g>
    </g>
    <g id="xtick_7">
     <g id="line2d_13">
      <path clip-path="url(#pc87cca76b6)" d="M 358.818117 288.430125 
L 358.818117 22.318125 
" style="fill:none;stroke:#b0b0b0;stroke-linecap:square;stroke-width:0.8;"/>
     </g>
     <g id="line2d_14">
      <g>
       <use style="stroke:#000000;stroke-width:0.8;" x="358.818117" xlink:href="#ma33545ebc7" y="288.430125"/>
      </g>
     </g>
     <g id="text_7">
      <!-- 3.0 -->
      <g transform="translate(350.866554 303.028562)scale(0.1 -0.1)">
       <defs>
        <path d="M 2597 2516 
Q 3050 2419 3304 2112 
Q 3559 1806 3559 1356 
Q 3559 666 3084 287 
Q 2609 -91 1734 -91 
Q 1441 -91 1130 -33 
Q 819 25 488 141 
L 488 750 
Q 750 597 1062 519 
Q 1375 441 1716 441 
Q 2309 441 2620 675 
Q 2931 909 2931 1356 
Q 2931 1769 2642 2001 
Q 2353 2234 1838 2234 
L 1294 2234 
L 1294 2753 
L 1863 2753 
Q 2328 2753 2575 2939 
Q 2822 3125 2822 3475 
Q 2822 3834 2567 4026 
Q 2313 4219 1838 4219 
Q 1578 4219 1281 4162 
Q 984 4106 628 3988 
L 628 4550 
Q 988 4650 1302 4700 
Q 1616 4750 1894 4750 
Q 2613 4750 3031 4423 
Q 3450 4097 3450 3541 
Q 3450 3153 3228 2886 
Q 3006 2619 2597 2516 
z
" id="DejaVuSans-33" transform="scale(0.015625)"/>
       </defs>
       <use xlink:href="#DejaVuSans-33"/>
       <use x="63.623047" xlink:href="#DejaVuSans-2e"/>
       <use x="95.410156" xlink:href="#DejaVuSans-30"/>
      </g>
     </g>
    </g>
   </g>
   <g id="matplotlib.axis_2">
    <g id="ytick_1">
     <g id="line2d_15">
      <path clip-path="url(#pc87cca76b6)" d="M 30.103125 288.430125 
L 387.223125 288.430125 
" style="fill:none;stroke:#b0b0b0;stroke-linecap:square;stroke-width:0.8;"/>
     </g>
     <g id="line2d_16">
      <defs>
       <path d="M 0 0 
L -3.5 0 
" id="md11cdb11a3" style="stroke:#000000;stroke-width:0.8;"/>
      </defs>
      <g>
       <use style="stroke:#000000;stroke-width:0.8;" x="30.103125" xlink:href="#md11cdb11a3" y="288.430125"/>
      </g>
     </g>
     <g id="text_8">
      <!-- 0.0 -->
      <g transform="translate(7.2 292.229344)scale(0.1 -0.1)">
       <use xlink:href="#DejaVuSans-30"/>
       <use x="63.623047" xlink:href="#DejaVuSans-2e"/>
       <use x="95.410156" xlink:href="#DejaVuSans-30"/>
      </g>
     </g>
    </g>
    <g id="ytick_2">
     <g id="line2d_17">
      <path clip-path="url(#pc87cca76b6)" d="M 30.103125 233.085371 
L 387.223125 233.085371 
" style="fill:none;stroke:#b0b0b0;stroke-linecap:square;stroke-width:0.8;"/>
     </g>
     <g id="line2d_18">
      <g>
       <use style="stroke:#000000;stroke-width:0.8;" x="30.103125" xlink:href="#md11cdb11a3" y="233.085371"/>
      </g>
     </g>
     <g id="text_9">
      <!-- 0.5 -->
      <g transform="translate(7.2 236.884589)scale(0.1 -0.1)">
       <use xlink:href="#DejaVuSans-30"/>
       <use x="63.623047" xlink:href="#DejaVuSans-2e"/>
       <use x="95.410156" xlink:href="#DejaVuSans-35"/>
      </g>
     </g>
    </g>
    <g id="ytick_3">
     <g id="line2d_19">
      <path clip-path="url(#pc87cca76b6)" d="M 30.103125 177.740616 
L 387.223125 177.740616 
" style="fill:none;stroke:#b0b0b0;stroke-linecap:square;stroke-width:0.8;"/>
     </g>
     <g id="line2d_20">
      <g>
       <use style="stroke:#000000;stroke-width:0.8;" x="30.103125" xlink:href="#md11cdb11a3" y="177.740616"/>
      </g>
     </g>
     <g id="text_10">
      <!-- 1.0 -->
      <g transform="translate(7.2 181.539835)scale(0.1 -0.1)">
       <use xlink:href="#DejaVuSans-31"/>
       <use x="63.623047" xlink:href="#DejaVuSans-2e"/>
       <use x="95.410156" xlink:href="#DejaVuSans-30"/>
      </g>
     </g>
    </g>
    <g id="ytick_4">
     <g id="line2d_21">
      <path clip-path="url(#pc87cca76b6)" d="M 30.103125 122.395862 
L 387.223125 122.395862 
" style="fill:none;stroke:#b0b0b0;stroke-linecap:square;stroke-width:0.8;"/>
     </g>
     <g id="line2d_22">
      <g>
       <use style="stroke:#000000;stroke-width:0.8;" x="30.103125" xlink:href="#md11cdb11a3" y="122.395862"/>
      </g>
     </g>
     <g id="text_11">
      <!-- 1.5 -->
      <g transform="translate(7.2 126.195081)scale(0.1 -0.1)">
       <use xlink:href="#DejaVuSans-31"/>
       <use x="63.623047" xlink:href="#DejaVuSans-2e"/>
       <use x="95.410156" xlink:href="#DejaVuSans-35"/>
      </g>
     </g>
    </g>
    <g id="ytick_5">
     <g id="line2d_23">
      <path clip-path="url(#pc87cca76b6)" d="M 30.103125 67.051108 
L 387.223125 67.051108 
" style="fill:none;stroke:#b0b0b0;stroke-linecap:square;stroke-width:0.8;"/>
     </g>
     <g id="line2d_24">
      <g>
       <use style="stroke:#000000;stroke-width:0.8;" x="30.103125" xlink:href="#md11cdb11a3" y="67.051108"/>
      </g>
     </g>
     <g id="text_12">
      <!-- 2.0 -->
      <g transform="translate(7.2 70.850326)scale(0.1 -0.1)">
       <use xlink:href="#DejaVuSans-32"/>
       <use x="63.623047" xlink:href="#DejaVuSans-2e"/>
       <use x="95.410156" xlink:href="#DejaVuSans-30"/>
      </g>
     </g>
    </g>
   </g>
   <g id="patch_63">
    <path clip-path="url(#pc87cca76b6)" d="M 46.335852 288.430125 
L 46.335852 286.645977 
L 51.746761 286.645977 
L 51.746761 287.572165 
L 57.15767 287.572165 
L 57.15767 287.109417 
L 62.56858 287.109417 
L 62.56858 287.177872 
L 67.979489 287.177872 
L 67.979489 285.997413 
L 73.390398 285.997413 
L 73.390398 255.063407 
L 78.801307 255.063407 
L 78.801307 281.90188 
L 84.212216 281.90188 
L 84.212216 280.015918 
L 89.623125 280.015918 
L 89.623125 227.597532 
L 95.034034 227.597532 
L 95.034034 254.892317 
L 100.444943 254.892317 
L 100.444943 134.137489 
L 105.855852 134.137489 
L 105.855852 111.1548 
L 111.266761 111.1548 
L 111.266761 188.130557 
L 116.67767 188.130557 
L 116.67767 34.990125 
L 122.08858 34.990125 
L 122.08858 88.668002 
L 127.499489 88.668002 
L 127.499489 143.568418 
L 132.910398 143.568418 
L 132.910398 82.4484 
L 138.321307 82.4484 
L 138.321307 240.328957 
L 143.732216 240.328957 
L 143.732216 204.053816 
L 149.143125 204.053816 
L 149.143125 207.362729 
L 154.554034 207.362729 
L 154.554034 232.182964 
L 159.964943 232.182964 
L 159.964943 224.117858 
L 165.375852 224.117858 
L 165.375852 264.8228 
L 170.786761 264.8228 
L 170.786761 231.04866 
L 176.19767 231.04866 
L 176.19767 245.968996 
L 181.60858 245.968996 
L 181.60858 240.643715 
L 187.019489 240.643715 
L 187.019489 250.030105 
L 192.430398 250.030105 
L 192.430398 252.549913 
L 197.841307 252.549913 
L 197.841307 286.248144 
L 203.252216 286.248144 
L 203.252216 260.768057 
L 208.663125 260.768057 
L 208.663125 255.739788 
L 214.074034 255.739788 
L 214.074034 285.075874 
L 219.484943 285.075874 
L 219.484943 260.399294 
L 224.895852 260.399294 
L 224.895852 284.317261 
L 230.306761 284.317261 
L 230.306761 286.353661 
L 235.71767 286.353661 
L 235.71767 285.224116 
L 241.12858 285.224116 
L 241.12858 257.329177 
L 246.539489 257.329177 
L 246.539489 250.828423 
L 251.950398 250.828423 
L 251.950398 287.158953 
L 257.361307 287.158953 
L 257.361307 281.506925 
L 262.772216 281.506925 
L 262.772216 286.632962 
L 268.183125 286.632962 
L 268.183125 287.077004 
L 273.594034 287.077004 
L 273.594034 285.848435 
L 279.004943 285.848435 
L 279.004943 287.995446 
L 284.415852 287.995446 
L 284.415852 288.258946 
L 289.826761 288.258946 
L 289.826761 286.00596 
L 295.23767 286.00596 
L 295.23767 285.895494 
L 300.64858 285.895494 
L 300.64858 288.054524 
L 306.059489 288.054524 
L 306.059489 287.306231 
L 311.470398 287.306231 
L 311.470398 288.174269 
L 316.881307 288.174269 
L 316.881307 261.418698 
L 322.292216 261.418698 
L 322.292216 286.746582 
L 327.703125 286.746582 
L 327.703125 288.274158 
L 333.114034 288.274158 
L 333.114034 288.351039 
L 338.524943 288.351039 
L 338.524943 288.107151 
L 343.935852 288.107151 
L 343.935852 288.397174 
L 349.346761 288.397174 
L 349.346761 287.889425 
L 354.75767 287.889425 
L 354.75767 287.980675 
L 360.16858 287.980675 
L 360.16858 288.306186 
L 365.579489 288.306186 
L 365.579489 288.148377 
L 370.990398 288.148377 
L 370.990398 288.430125 
" style="fill:none;stroke:#ff0000;stroke-linejoin:miter;"/>
   </g>
   <g id="patch_64">
    <path d="M 30.103125 288.430125 
L 30.103125 22.318125 
" style="fill:none;stroke:#000000;stroke-linecap:square;stroke-linejoin:miter;stroke-width:0.8;"/>
   </g>
   <g id="patch_65">
    <path d="M 387.223125 288.430125 
L 387.223125 22.318125 
" style="fill:none;stroke:#000000;stroke-linecap:square;stroke-linejoin:miter;stroke-width:0.8;"/>
   </g>
   <g id="patch_66">
    <path d="M 30.103125 288.430125 
L 387.223125 288.430125 
" style="fill:none;stroke:#000000;stroke-linecap:square;stroke-linejoin:miter;stroke-width:0.8;"/>
   </g>
   <g id="patch_67">
    <path d="M 30.103125 22.318125 
L 387.223125 22.318125 
" style="fill:none;stroke:#000000;stroke-linecap:square;stroke-linejoin:miter;stroke-width:0.8;"/>
   </g>
   <g id="text_13">
    <!-- theta_gamma_pi0_vs_pi0 -->
    <g transform="translate(132.672188 16.318125)scale(0.12 -0.12)">
     <defs>
      <path d="M 1172 4494 
L 1172 3500 
L 2356 3500 
L 2356 3053 
L 1172 3053 
L 1172 1153 
Q 1172 725 1289 603 
Q 1406 481 1766 481 
L 2356 481 
L 2356 0 
L 1766 0 
Q 1100 0 847 248 
Q 594 497 594 1153 
L 594 3053 
L 172 3053 
L 172 3500 
L 594 3500 
L 594 4494 
L 1172 4494 
z
" id="DejaVuSans-74" transform="scale(0.015625)"/>
      <path d="M 3513 2113 
L 3513 0 
L 2938 0 
L 2938 2094 
Q 2938 2591 2744 2837 
Q 2550 3084 2163 3084 
Q 1697 3084 1428 2787 
Q 1159 2491 1159 1978 
L 1159 0 
L 581 0 
L 581 4863 
L 1159 4863 
L 1159 2956 
Q 1366 3272 1645 3428 
Q 1925 3584 2291 3584 
Q 2894 3584 3203 3211 
Q 3513 2838 3513 2113 
z
" id="DejaVuSans-68" transform="scale(0.015625)"/>
      <path d="M 3597 1894 
L 3597 1613 
L 953 1613 
Q 991 1019 1311 708 
Q 1631 397 2203 397 
Q 2534 397 2845 478 
Q 3156 559 3463 722 
L 3463 178 
Q 3153 47 2828 -22 
Q 2503 -91 2169 -91 
Q 1331 -91 842 396 
Q 353 884 353 1716 
Q 353 2575 817 3079 
Q 1281 3584 2069 3584 
Q 2775 3584 3186 3129 
Q 3597 2675 3597 1894 
z
M 3022 2063 
Q 3016 2534 2758 2815 
Q 2500 3097 2075 3097 
Q 1594 3097 1305 2825 
Q 1016 2553 972 2059 
L 3022 2063 
z
" id="DejaVuSans-65" transform="scale(0.015625)"/>
      <path d="M 2194 1759 
Q 1497 1759 1228 1600 
Q 959 1441 959 1056 
Q 959 750 1161 570 
Q 1363 391 1709 391 
Q 2188 391 2477 730 
Q 2766 1069 2766 1631 
L 2766 1759 
L 2194 1759 
z
M 3341 1997 
L 3341 0 
L 2766 0 
L 2766 531 
Q 2569 213 2275 61 
Q 1981 -91 1556 -91 
Q 1019 -91 701 211 
Q 384 513 384 1019 
Q 384 1609 779 1909 
Q 1175 2209 1959 2209 
L 2766 2209 
L 2766 2266 
Q 2766 2663 2505 2880 
Q 2244 3097 1772 3097 
Q 1472 3097 1187 3025 
Q 903 2953 641 2809 
L 641 3341 
Q 956 3463 1253 3523 
Q 1550 3584 1831 3584 
Q 2591 3584 2966 3190 
Q 3341 2797 3341 1997 
z
" id="DejaVuSans-61" transform="scale(0.015625)"/>
      <path d="M 3263 -1063 
L 3263 -1509 
L -63 -1509 
L -63 -1063 
L 3263 -1063 
z
" id="DejaVuSans-5f" transform="scale(0.015625)"/>
      <path d="M 2906 1791 
Q 2906 2416 2648 2759 
Q 2391 3103 1925 3103 
Q 1463 3103 1205 2759 
Q 947 2416 947 1791 
Q 947 1169 1205 825 
Q 1463 481 1925 481 
Q 2391 481 2648 825 
Q 2906 1169 2906 1791 
z
M 3481 434 
Q 3481 -459 3084 -895 
Q 2688 -1331 1869 -1331 
Q 1566 -1331 1297 -1286 
Q 1028 -1241 775 -1147 
L 775 -588 
Q 1028 -725 1275 -790 
Q 1522 -856 1778 -856 
Q 2344 -856 2625 -561 
Q 2906 -266 2906 331 
L 2906 616 
Q 2728 306 2450 153 
Q 2172 0 1784 0 
Q 1141 0 747 490 
Q 353 981 353 1791 
Q 353 2603 747 3093 
Q 1141 3584 1784 3584 
Q 2172 3584 2450 3431 
Q 2728 3278 2906 2969 
L 2906 3500 
L 3481 3500 
L 3481 434 
z
" id="DejaVuSans-67" transform="scale(0.015625)"/>
      <path d="M 3328 2828 
Q 3544 3216 3844 3400 
Q 4144 3584 4550 3584 
Q 5097 3584 5394 3201 
Q 5691 2819 5691 2113 
L 5691 0 
L 5113 0 
L 5113 2094 
Q 5113 2597 4934 2840 
Q 4756 3084 4391 3084 
Q 3944 3084 3684 2787 
Q 3425 2491 3425 1978 
L 3425 0 
L 2847 0 
L 2847 2094 
Q 2847 2600 2669 2842 
Q 2491 3084 2119 3084 
Q 1678 3084 1418 2786 
Q 1159 2488 1159 1978 
L 1159 0 
L 581 0 
L 581 3500 
L 1159 3500 
L 1159 2956 
Q 1356 3278 1631 3431 
Q 1906 3584 2284 3584 
Q 2666 3584 2933 3390 
Q 3200 3197 3328 2828 
z
" id="DejaVuSans-6d" transform="scale(0.015625)"/>
      <path d="M 1159 525 
L 1159 -1331 
L 581 -1331 
L 581 3500 
L 1159 3500 
L 1159 2969 
Q 1341 3281 1617 3432 
Q 1894 3584 2278 3584 
Q 2916 3584 3314 3078 
Q 3713 2572 3713 1747 
Q 3713 922 3314 415 
Q 2916 -91 2278 -91 
Q 1894 -91 1617 61 
Q 1341 213 1159 525 
z
M 3116 1747 
Q 3116 2381 2855 2742 
Q 2594 3103 2138 3103 
Q 1681 3103 1420 2742 
Q 1159 2381 1159 1747 
Q 1159 1113 1420 752 
Q 1681 391 2138 391 
Q 2594 391 2855 752 
Q 3116 1113 3116 1747 
z
" id="DejaVuSans-70" transform="scale(0.015625)"/>
      <path d="M 603 3500 
L 1178 3500 
L 1178 0 
L 603 0 
L 603 3500 
z
M 603 4863 
L 1178 4863 
L 1178 4134 
L 603 4134 
L 603 4863 
z
" id="DejaVuSans-69" transform="scale(0.015625)"/>
      <path d="M 191 3500 
L 800 3500 
L 1894 563 
L 2988 3500 
L 3597 3500 
L 2284 0 
L 1503 0 
L 191 3500 
z
" id="DejaVuSans-76" transform="scale(0.015625)"/>
      <path d="M 2834 3397 
L 2834 2853 
Q 2591 2978 2328 3040 
Q 2066 3103 1784 3103 
Q 1356 3103 1142 2972 
Q 928 2841 928 2578 
Q 928 2378 1081 2264 
Q 1234 2150 1697 2047 
L 1894 2003 
Q 2506 1872 2764 1633 
Q 3022 1394 3022 966 
Q 3022 478 2636 193 
Q 2250 -91 1575 -91 
Q 1294 -91 989 -36 
Q 684 19 347 128 
L 347 722 
Q 666 556 975 473 
Q 1284 391 1588 391 
Q 1994 391 2212 530 
Q 2431 669 2431 922 
Q 2431 1156 2273 1281 
Q 2116 1406 1581 1522 
L 1381 1569 
Q 847 1681 609 1914 
Q 372 2147 372 2553 
Q 372 3047 722 3315 
Q 1072 3584 1716 3584 
Q 2034 3584 2315 3537 
Q 2597 3491 2834 3397 
z
" id="DejaVuSans-73" transform="scale(0.015625)"/>
     </defs>
     <use xlink:href="#DejaVuSans-74"/>
     <use x="39.208984" xlink:href="#DejaVuSans-68"/>
     <use x="102.587891" xlink:href="#DejaVuSans-65"/>
     <use x="164.111328" xlink:href="#DejaVuSans-74"/>
     <use x="203.320312" xlink:href="#DejaVuSans-61"/>
     <use x="264.599609" xlink:href="#DejaVuSans-5f"/>
     <use x="314.599609" xlink:href="#DejaVuSans-67"/>
     <use x="378.076172" xlink:href="#DejaVuSans-61"/>
     <use x="439.355469" xlink:href="#DejaVuSans-6d"/>
     <use x="536.767578" xlink:href="#DejaVuSans-6d"/>
     <use x="634.179688" xlink:href="#DejaVuSans-61"/>
     <use x="695.458984" xlink:href="#DejaVuSans-5f"/>
     <use x="745.458984" xlink:href="#DejaVuSans-70"/>
     <use x="808.935547" xlink:href="#DejaVuSans-69"/>
     <use x="836.71875" xlink:href="#DejaVuSans-30"/>
     <use x="900.341797" xlink:href="#DejaVuSans-5f"/>
     <use x="950.341797" xlink:href="#DejaVuSans-76"/>
     <use x="1009.521484" xlink:href="#DejaVuSans-73"/>
     <use x="1061.621094" xlink:href="#DejaVuSans-5f"/>
     <use x="1111.621094" xlink:href="#DejaVuSans-70"/>
     <use x="1175.097656" xlink:href="#DejaVuSans-69"/>
     <use x="1202.880859" xlink:href="#DejaVuSans-30"/>
    </g>
   </g>
   <g id="legend_1">
    <g id="patch_68">
     <path d="M 325.698125 59.674375 
L 380.223125 59.674375 
Q 382.223125 59.674375 382.223125 57.674375 
L 382.223125 29.318125 
Q 382.223125 27.318125 380.223125 27.318125 
L 325.698125 27.318125 
Q 323.698125 27.318125 323.698125 29.318125 
L 323.698125 57.674375 
Q 323.698125 59.674375 325.698125 59.674375 
z
" style="fill:#ffffff;opacity:0.8;stroke:#cccccc;stroke-linejoin:miter;"/>
    </g>
    <g id="patch_69">
     <path d="M 327.698125 38.916562 
L 347.698125 38.916562 
L 347.698125 31.916562 
L 327.698125 31.916562 
z
" style="fill:#1f77b4;opacity:0.5;"/>
    </g>
    <g id="text_14">
     <!-- data -->
     <g transform="translate(355.698125 38.916562)scale(0.1 -0.1)">
      <defs>
       <path d="M 2906 2969 
L 2906 4863 
L 3481 4863 
L 3481 0 
L 2906 0 
L 2906 525 
Q 2725 213 2448 61 
Q 2172 -91 1784 -91 
Q 1150 -91 751 415 
Q 353 922 353 1747 
Q 353 2572 751 3078 
Q 1150 3584 1784 3584 
Q 2172 3584 2448 3432 
Q 2725 3281 2906 2969 
z
M 947 1747 
Q 947 1113 1208 752 
Q 1469 391 1925 391 
Q 2381 391 2643 752 
Q 2906 1113 2906 1747 
Q 2906 2381 2643 2742 
Q 2381 3103 1925 3103 
Q 1469 3103 1208 2742 
Q 947 2381 947 1747 
z
" id="DejaVuSans-64" transform="scale(0.015625)"/>
      </defs>
      <use xlink:href="#DejaVuSans-64"/>
      <use x="63.476562" xlink:href="#DejaVuSans-61"/>
      <use x="124.755859" xlink:href="#DejaVuSans-74"/>
      <use x="163.964844" xlink:href="#DejaVuSans-61"/>
     </g>
    </g>
    <g id="patch_70">
     <path d="M 327.698125 53.594687 
L 347.698125 53.594687 
L 347.698125 46.594687 
L 327.698125 46.594687 
z
" style="fill:none;stroke:#ff0000;stroke-linejoin:miter;"/>
    </g>
    <g id="text_15">
     <!-- fit -->
     <g transform="translate(355.698125 53.594687)scale(0.1 -0.1)">
      <defs>
       <path d="M 2375 4863 
L 2375 4384 
L 1825 4384 
Q 1516 4384 1395 4259 
Q 1275 4134 1275 3809 
L 1275 3500 
L 2222 3500 
L 2222 3053 
L 1275 3053 
L 1275 0 
L 697 0 
L 697 3053 
L 147 3053 
L 147 3500 
L 697 3500 
L 697 3744 
Q 697 4328 969 4595 
Q 1241 4863 1831 4863 
L 2375 4863 
z
" id="DejaVuSans-66" transform="scale(0.015625)"/>
      </defs>
      <use xlink:href="#DejaVuSans-66"/>
      <use x="35.205078" xlink:href="#DejaVuSans-69"/>
      <use x="62.988281" xlink:href="#DejaVuSans-74"/>
     </g>
    </g>
   </g>
  </g>
 </g>
 <defs>
  <clipPath id="pc87cca76b6">
   <rect height="266.112" width="357.12" x="30.103125" y="22.318125"/>
  </clipPath>
 </defs>
</svg>
