<?xml version="1.0" encoding="utf-8" standalone="no"?>
<!DOCTYPE svg PUBLIC "-//W3C//DTD SVG 1.1//EN"
  "http://www.w3.org/Graphics/SVG/1.1/DTD/svg11.dtd">
<!-- Created with matplotlib (https://matplotlib.org/) -->
<svg height="310.86825pt" version="1.1" viewBox="0 0 408.10125 310.86825" width="408.10125pt" xmlns="http://www.w3.org/2000/svg" xmlns:xlink="http://www.w3.org/1999/xlink">
 <defs>
  <style type="text/css">
*{stroke-linecap:butt;stroke-linejoin:round;}
  </style>
 </defs>
 <g id="figure_1">
  <g id="patch_1">
   <path d="M 0 310.86825 
L 408.10125 310.86825 
L 408.10125 0 
L 0 0 
z
" style="fill:#ffffff;"/>
  </g>
  <g id="axes_1">
   <g id="patch_2">
    <path d="M 43.78125 273.312 
L 400.90125 273.312 
L 400.90125 7.2 
L 43.78125 7.2 
z
" style="fill:#ffffff;"/>
   </g>
   <g id="patch_3">
    <path clip-path="url(#p89a725581b)" d="M 62.40186 273.312 
L 65.584732 273.312 
L 65.584732 271.909883 
L 62.40186 271.909883 
z
" style="fill:#1f77b4;opacity:0.5;"/>
   </g>
   <g id="patch_4">
    <path clip-path="url(#p89a725581b)" d="M 65.584732 273.312 
L 68.767604 273.312 
L 68.767604 272.610942 
L 65.584732 272.610942 
z
" style="fill:#1f77b4;opacity:0.5;"/>
   </g>
   <g id="patch_5">
    <path clip-path="url(#p89a725581b)" d="M 68.767604 273.312 
L 71.950476 273.312 
L 71.950476 271.559354 
L 68.767604 271.559354 
z
" style="fill:#1f77b4;opacity:0.5;"/>
   </g>
   <g id="patch_6">
    <path clip-path="url(#p89a725581b)" d="M 71.950476 273.312 
L 75.133347 273.312 
L 75.133347 272.610942 
L 71.950476 272.610942 
z
" style="fill:#1f77b4;opacity:0.5;"/>
   </g>
   <g id="patch_7">
    <path clip-path="url(#p89a725581b)" d="M 75.133347 273.312 
L 78.316219 273.312 
L 78.316219 272.260413 
L 75.133347 272.260413 
z
" style="fill:#1f77b4;opacity:0.5;"/>
   </g>
   <g id="patch_8">
    <path clip-path="url(#p89a725581b)" d="M 78.316219 273.312 
L 81.499091 273.312 
L 81.499091 272.260413 
L 78.316219 272.260413 
z
" style="fill:#1f77b4;opacity:0.5;"/>
   </g>
   <g id="patch_9">
    <path clip-path="url(#p89a725581b)" d="M 81.499091 273.312 
L 84.681963 273.312 
L 84.681963 270.157238 
L 81.499091 270.157238 
z
" style="fill:#1f77b4;opacity:0.5;"/>
   </g>
   <g id="patch_10">
    <path clip-path="url(#p89a725581b)" d="M 84.681963 273.312 
L 87.864835 273.312 
L 87.864835 271.208825 
L 84.681963 271.208825 
z
" style="fill:#1f77b4;opacity:0.5;"/>
   </g>
   <g id="patch_11">
    <path clip-path="url(#p89a725581b)" d="M 87.864835 273.312 
L 91.047707 273.312 
L 91.047707 271.909883 
L 87.864835 271.909883 
z
" style="fill:#1f77b4;opacity:0.5;"/>
   </g>
   <g id="patch_12">
    <path clip-path="url(#p89a725581b)" d="M 91.047707 273.312 
L 94.230579 273.312 
L 94.230579 270.157238 
L 91.047707 270.157238 
z
" style="fill:#1f77b4;opacity:0.5;"/>
   </g>
   <g id="patch_13">
    <path clip-path="url(#p89a725581b)" d="M 94.230579 273.312 
L 97.41345 273.312 
L 97.41345 269.456179 
L 94.230579 269.456179 
z
" style="fill:#1f77b4;opacity:0.5;"/>
   </g>
   <g id="patch_14">
    <path clip-path="url(#p89a725581b)" d="M 97.41345 273.312 
L 100.596322 273.312 
L 100.596322 269.806709 
L 97.41345 269.806709 
z
" style="fill:#1f77b4;opacity:0.5;"/>
   </g>
   <g id="patch_15">
    <path clip-path="url(#p89a725581b)" d="M 100.596322 273.312 
L 103.779194 273.312 
L 103.779194 268.404592 
L 100.596322 268.404592 
z
" style="fill:#1f77b4;opacity:0.5;"/>
   </g>
   <g id="patch_16">
    <path clip-path="url(#p89a725581b)" d="M 103.779194 273.312 
L 106.962066 273.312 
L 106.962066 268.054063 
L 103.779194 268.054063 
z
" style="fill:#1f77b4;opacity:0.5;"/>
   </g>
   <g id="patch_17">
    <path clip-path="url(#p89a725581b)" d="M 106.962066 273.312 
L 110.144938 273.312 
L 110.144938 263.497184 
L 106.962066 263.497184 
z
" style="fill:#1f77b4;opacity:0.5;"/>
   </g>
   <g id="patch_18">
    <path clip-path="url(#p89a725581b)" d="M 110.144938 273.312 
L 113.32781 273.312 
L 113.32781 262.095067 
L 110.144938 262.095067 
z
" style="fill:#1f77b4;opacity:0.5;"/>
   </g>
   <g id="patch_19">
    <path clip-path="url(#p89a725581b)" d="M 113.32781 273.312 
L 116.510682 273.312 
L 116.510682 265.950888 
L 113.32781 265.950888 
z
" style="fill:#1f77b4;opacity:0.5;"/>
   </g>
   <g id="patch_20">
    <path clip-path="url(#p89a725581b)" d="M 116.510682 273.312 
L 119.693553 273.312 
L 119.693553 262.796126 
L 116.510682 262.796126 
z
" style="fill:#1f77b4;opacity:0.5;"/>
   </g>
   <g id="patch_21">
    <path clip-path="url(#p89a725581b)" d="M 119.693553 273.312 
L 122.876425 273.312 
L 122.876425 255.435014 
L 119.693553 255.435014 
z
" style="fill:#1f77b4;opacity:0.5;"/>
   </g>
   <g id="patch_22">
    <path clip-path="url(#p89a725581b)" d="M 122.876425 273.312 
L 126.059297 273.312 
L 126.059297 252.280251 
L 122.876425 252.280251 
z
" style="fill:#1f77b4;opacity:0.5;"/>
   </g>
   <g id="patch_23">
    <path clip-path="url(#p89a725581b)" d="M 126.059297 273.312 
L 129.242169 273.312 
L 129.242169 247.022314 
L 126.059297 247.022314 
z
" style="fill:#1f77b4;opacity:0.5;"/>
   </g>
   <g id="patch_24">
    <path clip-path="url(#p89a725581b)" d="M 129.242169 273.312 
L 132.425041 273.312 
L 132.425041 238.960144 
L 129.242169 238.960144 
z
" style="fill:#1f77b4;opacity:0.5;"/>
   </g>
   <g id="patch_25">
    <path clip-path="url(#p89a725581b)" d="M 132.425041 273.312 
L 135.607913 273.312 
L 135.607913 225.640036 
L 132.425041 225.640036 
z
" style="fill:#1f77b4;opacity:0.5;"/>
   </g>
   <g id="patch_26">
    <path clip-path="url(#p89a725581b)" d="M 135.607913 273.312 
L 138.790785 273.312 
L 138.790785 189.886063 
L 135.607913 189.886063 
z
" style="fill:#1f77b4;opacity:0.5;"/>
   </g>
   <g id="patch_27">
    <path clip-path="url(#p89a725581b)" d="M 138.790785 273.312 
L 141.973656 273.312 
L 141.973656 95.944252 
L 138.790785 95.944252 
z
" style="fill:#1f77b4;opacity:0.5;"/>
   </g>
   <g id="patch_28">
    <path clip-path="url(#p89a725581b)" d="M 141.973656 273.312 
L 145.156528 273.312 
L 145.156528 91.737902 
L 141.973656 91.737902 
z
" style="fill:#1f77b4;opacity:0.5;"/>
   </g>
   <g id="patch_29">
    <path clip-path="url(#p89a725581b)" d="M 145.156528 273.312 
L 148.3394 273.312 
L 148.3394 173.761722 
L 145.156528 173.761722 
z
" style="fill:#1f77b4;opacity:0.5;"/>
   </g>
   <g id="patch_30">
    <path clip-path="url(#p89a725581b)" d="M 148.3394 273.312 
L 151.522272 273.312 
L 151.522272 234.403265 
L 148.3394 234.403265 
z
" style="fill:#1f77b4;opacity:0.5;"/>
   </g>
   <g id="patch_31">
    <path clip-path="url(#p89a725581b)" d="M 151.522272 273.312 
L 154.705144 273.312 
L 154.705144 258.589776 
L 151.522272 258.589776 
z
" style="fill:#1f77b4;opacity:0.5;"/>
   </g>
   <g id="patch_32">
    <path clip-path="url(#p89a725581b)" d="M 154.705144 273.312 
L 157.888016 273.312 
L 157.888016 266.301417 
L 154.705144 266.301417 
z
" style="fill:#1f77b4;opacity:0.5;"/>
   </g>
   <g id="patch_33">
    <path clip-path="url(#p89a725581b)" d="M 157.888016 273.312 
L 161.070888 273.312 
L 161.070888 264.8993 
L 157.888016 264.8993 
z
" style="fill:#1f77b4;opacity:0.5;"/>
   </g>
   <g id="patch_34">
    <path clip-path="url(#p89a725581b)" d="M 161.070888 273.312 
L 164.253759 273.312 
L 164.253759 264.198242 
L 161.070888 264.198242 
z
" style="fill:#1f77b4;opacity:0.5;"/>
   </g>
   <g id="patch_35">
    <path clip-path="url(#p89a725581b)" d="M 164.253759 273.312 
L 167.436631 273.312 
L 167.436631 258.589776 
L 164.253759 258.589776 
z
" style="fill:#1f77b4;opacity:0.5;"/>
   </g>
   <g id="patch_36">
    <path clip-path="url(#p89a725581b)" d="M 167.436631 273.312 
L 170.619503 273.312 
L 170.619503 260.342422 
L 167.436631 260.342422 
z
" style="fill:#1f77b4;opacity:0.5;"/>
   </g>
   <g id="patch_37">
    <path clip-path="url(#p89a725581b)" d="M 170.619503 273.312 
L 173.802375 273.312 
L 173.802375 254.733955 
L 170.619503 254.733955 
z
" style="fill:#1f77b4;opacity:0.5;"/>
   </g>
   <g id="patch_38">
    <path clip-path="url(#p89a725581b)" d="M 173.802375 273.312 
L 176.985247 273.312 
L 176.985247 255.435014 
L 173.802375 255.435014 
z
" style="fill:#1f77b4;opacity:0.5;"/>
   </g>
   <g id="patch_39">
    <path clip-path="url(#p89a725581b)" d="M 176.985247 273.312 
L 180.168119 273.312 
L 180.168119 258.239247 
L 176.985247 258.239247 
z
" style="fill:#1f77b4;opacity:0.5;"/>
   </g>
   <g id="patch_40">
    <path clip-path="url(#p89a725581b)" d="M 180.168119 273.312 
L 183.350991 273.312 
L 183.350991 252.98131 
L 180.168119 252.98131 
z
" style="fill:#1f77b4;opacity:0.5;"/>
   </g>
   <g id="patch_41">
    <path clip-path="url(#p89a725581b)" d="M 183.350991 273.312 
L 186.533862 273.312 
L 186.533862 244.919139 
L 183.350991 244.919139 
z
" style="fill:#1f77b4;opacity:0.5;"/>
   </g>
   <g id="patch_42">
    <path clip-path="url(#p89a725581b)" d="M 186.533862 273.312 
L 189.716734 273.312 
L 189.716734 227.743211 
L 186.533862 227.743211 
z
" style="fill:#1f77b4;opacity:0.5;"/>
   </g>
   <g id="patch_43">
    <path clip-path="url(#p89a725581b)" d="M 189.716734 273.312 
L 192.899606 273.312 
L 192.899606 210.917812 
L 189.716734 210.917812 
z
" style="fill:#1f77b4;opacity:0.5;"/>
   </g>
   <g id="patch_44">
    <path clip-path="url(#p89a725581b)" d="M 192.899606 273.312 
L 196.082478 273.312 
L 196.082478 177.617543 
L 192.899606 177.617543 
z
" style="fill:#1f77b4;opacity:0.5;"/>
   </g>
   <g id="patch_45">
    <path clip-path="url(#p89a725581b)" d="M 196.082478 273.312 
L 199.26535 273.312 
L 199.26535 88.58314 
L 196.082478 88.58314 
z
" style="fill:#1f77b4;opacity:0.5;"/>
   </g>
   <g id="patch_46">
    <path clip-path="url(#p89a725581b)" d="M 199.26535 273.312 
L 202.448222 273.312 
L 202.448222 21.632073 
L 199.26535 21.632073 
z
" style="fill:#1f77b4;opacity:0.5;"/>
   </g>
   <g id="patch_47">
    <path clip-path="url(#p89a725581b)" d="M 202.448222 273.312 
L 205.631094 273.312 
L 205.631094 44.766996 
L 202.448222 44.766996 
z
" style="fill:#1f77b4;opacity:0.5;"/>
   </g>
   <g id="patch_48">
    <path clip-path="url(#p89a725581b)" d="M 205.631094 273.312 
L 208.813965 273.312 
L 208.813965 102.954835 
L 205.631094 102.954835 
z
" style="fill:#1f77b4;opacity:0.5;"/>
   </g>
   <g id="patch_49">
    <path clip-path="url(#p89a725581b)" d="M 208.813965 273.312 
L 211.996837 273.312 
L 211.996837 148.874153 
L 208.813965 148.874153 
z
" style="fill:#1f77b4;opacity:0.5;"/>
   </g>
   <g id="patch_50">
    <path clip-path="url(#p89a725581b)" d="M 211.996837 273.312 
L 215.179709 273.312 
L 215.179709 202.505112 
L 211.996837 202.505112 
z
" style="fill:#1f77b4;opacity:0.5;"/>
   </g>
   <g id="patch_51">
    <path clip-path="url(#p89a725581b)" d="M 215.179709 273.312 
L 218.362581 273.312 
L 218.362581 210.567283 
L 215.179709 210.567283 
z
" style="fill:#1f77b4;opacity:0.5;"/>
   </g>
   <g id="patch_52">
    <path clip-path="url(#p89a725581b)" d="M 218.362581 273.312 
L 221.545453 273.312 
L 221.545453 231.599032 
L 218.362581 231.599032 
z
" style="fill:#1f77b4;opacity:0.5;"/>
   </g>
   <g id="patch_53">
    <path clip-path="url(#p89a725581b)" d="M 221.545453 273.312 
L 224.728325 273.312 
L 224.728325 218.629453 
L 221.545453 218.629453 
z
" style="fill:#1f77b4;opacity:0.5;"/>
   </g>
   <g id="patch_54">
    <path clip-path="url(#p89a725581b)" d="M 224.728325 273.312 
L 227.911197 273.312 
L 227.911197 226.341094 
L 224.728325 226.341094 
z
" style="fill:#1f77b4;opacity:0.5;"/>
   </g>
   <g id="patch_55">
    <path clip-path="url(#p89a725581b)" d="M 227.911197 273.312 
L 231.094068 273.312 
L 231.094068 219.330511 
L 227.911197 219.330511 
z
" style="fill:#1f77b4;opacity:0.5;"/>
   </g>
   <g id="patch_56">
    <path clip-path="url(#p89a725581b)" d="M 231.094068 273.312 
L 234.27694 273.312 
L 234.27694 219.330511 
L 231.094068 219.330511 
z
" style="fill:#1f77b4;opacity:0.5;"/>
   </g>
   <g id="patch_57">
    <path clip-path="url(#p89a725581b)" d="M 234.27694 273.312 
L 237.459812 273.312 
L 237.459812 218.629453 
L 234.27694 218.629453 
z
" style="fill:#1f77b4;opacity:0.5;"/>
   </g>
   <g id="patch_58">
    <path clip-path="url(#p89a725581b)" d="M 237.459812 273.312 
L 240.642684 273.312 
L 240.642684 208.814637 
L 237.459812 208.814637 
z
" style="fill:#1f77b4;opacity:0.5;"/>
   </g>
   <g id="patch_59">
    <path clip-path="url(#p89a725581b)" d="M 240.642684 273.312 
L 243.825556 273.312 
L 243.825556 204.257758 
L 240.642684 204.257758 
z
" style="fill:#1f77b4;opacity:0.5;"/>
   </g>
   <g id="patch_60">
    <path clip-path="url(#p89a725581b)" d="M 243.825556 273.312 
L 247.008428 273.312 
L 247.008428 208.814637 
L 243.825556 208.814637 
z
" style="fill:#1f77b4;opacity:0.5;"/>
   </g>
   <g id="patch_61">
    <path clip-path="url(#p89a725581b)" d="M 247.008428 273.312 
L 250.1913 273.312 
L 250.1913 199.35035 
L 247.008428 199.35035 
z
" style="fill:#1f77b4;opacity:0.5;"/>
   </g>
   <g id="patch_62">
    <path clip-path="url(#p89a725581b)" d="M 250.1913 273.312 
L 253.374171 273.312 
L 253.374171 207.061991 
L 250.1913 207.061991 
z
" style="fill:#1f77b4;opacity:0.5;"/>
   </g>
   <g id="patch_63">
    <path clip-path="url(#p89a725581b)" d="M 253.374171 273.312 
L 256.557043 273.312 
L 256.557043 214.773633 
L 253.374171 214.773633 
z
" style="fill:#1f77b4;opacity:0.5;"/>
   </g>
   <g id="patch_64">
    <path clip-path="url(#p89a725581b)" d="M 256.557043 273.312 
L 259.739915 273.312 
L 259.739915 221.784215 
L 256.557043 221.784215 
z
" style="fill:#1f77b4;opacity:0.5;"/>
   </g>
   <g id="patch_65">
    <path clip-path="url(#p89a725581b)" d="M 259.739915 273.312 
L 262.922787 273.312 
L 262.922787 217.577866 
L 259.739915 217.577866 
z
" style="fill:#1f77b4;opacity:0.5;"/>
   </g>
   <g id="patch_66">
    <path clip-path="url(#p89a725581b)" d="M 262.922787 273.312 
L 266.105659 273.312 
L 266.105659 229.145328 
L 262.922787 229.145328 
z
" style="fill:#1f77b4;opacity:0.5;"/>
   </g>
   <g id="patch_67">
    <path clip-path="url(#p89a725581b)" d="M 266.105659 273.312 
L 269.288531 273.312 
L 269.288531 236.15591 
L 266.105659 236.15591 
z
" style="fill:#1f77b4;opacity:0.5;"/>
   </g>
   <g id="patch_68">
    <path clip-path="url(#p89a725581b)" d="M 269.288531 273.312 
L 272.471403 273.312 
L 272.471403 233.001148 
L 269.288531 233.001148 
z
" style="fill:#1f77b4;opacity:0.5;"/>
   </g>
   <g id="patch_69">
    <path clip-path="url(#p89a725581b)" d="M 272.471403 273.312 
L 275.654274 273.312 
L 275.654274 244.56861 
L 272.471403 244.56861 
z
" style="fill:#1f77b4;opacity:0.5;"/>
   </g>
   <g id="patch_70">
    <path clip-path="url(#p89a725581b)" d="M 275.654274 273.312 
L 278.837146 273.312 
L 278.837146 249.125489 
L 275.654274 249.125489 
z
" style="fill:#1f77b4;opacity:0.5;"/>
   </g>
   <g id="patch_71">
    <path clip-path="url(#p89a725581b)" d="M 278.837146 273.312 
L 282.020018 273.312 
L 282.020018 243.517023 
L 278.837146 243.517023 
z
" style="fill:#1f77b4;opacity:0.5;"/>
   </g>
   <g id="patch_72">
    <path clip-path="url(#p89a725581b)" d="M 282.020018 273.312 
L 285.20289 273.312 
L 285.20289 252.280251 
L 282.020018 252.280251 
z
" style="fill:#1f77b4;opacity:0.5;"/>
   </g>
   <g id="patch_73">
    <path clip-path="url(#p89a725581b)" d="M 285.20289 273.312 
L 288.385762 273.312 
L 288.385762 256.136072 
L 285.20289 256.136072 
z
" style="fill:#1f77b4;opacity:0.5;"/>
   </g>
   <g id="patch_74">
    <path clip-path="url(#p89a725581b)" d="M 288.385762 273.312 
L 291.568634 273.312 
L 291.568634 253.682368 
L 288.385762 253.682368 
z
" style="fill:#1f77b4;opacity:0.5;"/>
   </g>
   <g id="patch_75">
    <path clip-path="url(#p89a725581b)" d="M 291.568634 273.312 
L 294.751505 273.312 
L 294.751505 257.888718 
L 291.568634 257.888718 
z
" style="fill:#1f77b4;opacity:0.5;"/>
   </g>
   <g id="patch_76">
    <path clip-path="url(#p89a725581b)" d="M 294.751505 273.312 
L 297.934377 273.312 
L 297.934377 257.187659 
L 294.751505 257.187659 
z
" style="fill:#1f77b4;opacity:0.5;"/>
   </g>
   <g id="patch_77">
    <path clip-path="url(#p89a725581b)" d="M 297.934377 273.312 
L 301.117249 273.312 
L 301.117249 259.641363 
L 297.934377 259.641363 
z
" style="fill:#1f77b4;opacity:0.5;"/>
   </g>
   <g id="patch_78">
    <path clip-path="url(#p89a725581b)" d="M 301.117249 273.312 
L 304.300121 273.312 
L 304.300121 262.445596 
L 301.117249 262.445596 
z
" style="fill:#1f77b4;opacity:0.5;"/>
   </g>
   <g id="patch_79">
    <path clip-path="url(#p89a725581b)" d="M 304.300121 273.312 
L 307.482993 273.312 
L 307.482993 262.796126 
L 304.300121 262.796126 
z
" style="fill:#1f77b4;opacity:0.5;"/>
   </g>
   <g id="patch_80">
    <path clip-path="url(#p89a725581b)" d="M 307.482993 273.312 
L 310.665865 273.312 
L 310.665865 263.146655 
L 307.482993 263.146655 
z
" style="fill:#1f77b4;opacity:0.5;"/>
   </g>
   <g id="patch_81">
    <path clip-path="url(#p89a725581b)" d="M 310.665865 273.312 
L 313.848737 273.312 
L 313.848737 265.24983 
L 310.665865 265.24983 
z
" style="fill:#1f77b4;opacity:0.5;"/>
   </g>
   <g id="patch_82">
    <path clip-path="url(#p89a725581b)" d="M 313.848737 273.312 
L 317.031608 273.312 
L 317.031608 264.8993 
L 313.848737 264.8993 
z
" style="fill:#1f77b4;opacity:0.5;"/>
   </g>
   <g id="patch_83">
    <path clip-path="url(#p89a725581b)" d="M 317.031608 273.312 
L 320.21448 273.312 
L 320.21448 265.600359 
L 317.031608 265.600359 
z
" style="fill:#1f77b4;opacity:0.5;"/>
   </g>
   <g id="patch_84">
    <path clip-path="url(#p89a725581b)" d="M 320.21448 273.312 
L 323.397352 273.312 
L 323.397352 266.301417 
L 320.21448 266.301417 
z
" style="fill:#1f77b4;opacity:0.5;"/>
   </g>
   <g id="patch_85">
    <path clip-path="url(#p89a725581b)" d="M 323.397352 273.312 
L 326.580224 273.312 
L 326.580224 265.24983 
L 323.397352 265.24983 
z
" style="fill:#1f77b4;opacity:0.5;"/>
   </g>
   <g id="patch_86">
    <path clip-path="url(#p89a725581b)" d="M 326.580224 273.312 
L 329.763096 273.312 
L 329.763096 267.002475 
L 326.580224 267.002475 
z
" style="fill:#1f77b4;opacity:0.5;"/>
   </g>
   <g id="patch_87">
    <path clip-path="url(#p89a725581b)" d="M 329.763096 273.312 
L 332.945968 273.312 
L 332.945968 267.703534 
L 329.763096 267.703534 
z
" style="fill:#1f77b4;opacity:0.5;"/>
   </g>
   <g id="patch_88">
    <path clip-path="url(#p89a725581b)" d="M 332.945968 273.312 
L 336.12884 273.312 
L 336.12884 270.507767 
L 332.945968 270.507767 
z
" style="fill:#1f77b4;opacity:0.5;"/>
   </g>
   <g id="patch_89">
    <path clip-path="url(#p89a725581b)" d="M 336.12884 273.312 
L 339.311711 273.312 
L 339.311711 267.353005 
L 336.12884 267.353005 
z
" style="fill:#1f77b4;opacity:0.5;"/>
   </g>
   <g id="patch_90">
    <path clip-path="url(#p89a725581b)" d="M 339.311711 273.312 
L 342.494583 273.312 
L 342.494583 267.353005 
L 339.311711 267.353005 
z
" style="fill:#1f77b4;opacity:0.5;"/>
   </g>
   <g id="patch_91">
    <path clip-path="url(#p89a725581b)" d="M 342.494583 273.312 
L 345.677455 273.312 
L 345.677455 269.456179 
L 342.494583 269.456179 
z
" style="fill:#1f77b4;opacity:0.5;"/>
   </g>
   <g id="patch_92">
    <path clip-path="url(#p89a725581b)" d="M 345.677455 273.312 
L 348.860327 273.312 
L 348.860327 270.507767 
L 345.677455 270.507767 
z
" style="fill:#1f77b4;opacity:0.5;"/>
   </g>
   <g id="patch_93">
    <path clip-path="url(#p89a725581b)" d="M 348.860327 273.312 
L 352.043199 273.312 
L 352.043199 269.806709 
L 348.860327 269.806709 
z
" style="fill:#1f77b4;opacity:0.5;"/>
   </g>
   <g id="patch_94">
    <path clip-path="url(#p89a725581b)" d="M 352.043199 273.312 
L 355.226071 273.312 
L 355.226071 269.806709 
L 352.043199 269.806709 
z
" style="fill:#1f77b4;opacity:0.5;"/>
   </g>
   <g id="patch_95">
    <path clip-path="url(#p89a725581b)" d="M 355.226071 273.312 
L 358.408943 273.312 
L 358.408943 270.858296 
L 355.226071 270.858296 
z
" style="fill:#1f77b4;opacity:0.5;"/>
   </g>
   <g id="patch_96">
    <path clip-path="url(#p89a725581b)" d="M 358.408943 273.312 
L 361.591814 273.312 
L 361.591814 271.559354 
L 358.408943 271.559354 
z
" style="fill:#1f77b4;opacity:0.5;"/>
   </g>
   <g id="patch_97">
    <path clip-path="url(#p89a725581b)" d="M 361.591814 273.312 
L 364.774686 273.312 
L 364.774686 271.909883 
L 361.591814 271.909883 
z
" style="fill:#1f77b4;opacity:0.5;"/>
   </g>
   <g id="patch_98">
    <path clip-path="url(#p89a725581b)" d="M 364.774686 273.312 
L 367.957558 273.312 
L 367.957558 271.559354 
L 364.774686 271.559354 
z
" style="fill:#1f77b4;opacity:0.5;"/>
   </g>
   <g id="patch_99">
    <path clip-path="url(#p89a725581b)" d="M 367.957558 273.312 
L 371.14043 273.312 
L 371.14043 271.559354 
L 367.957558 271.559354 
z
" style="fill:#1f77b4;opacity:0.5;"/>
   </g>
   <g id="patch_100">
    <path clip-path="url(#p89a725581b)" d="M 371.14043 273.312 
L 374.323302 273.312 
L 374.323302 272.260413 
L 371.14043 272.260413 
z
" style="fill:#1f77b4;opacity:0.5;"/>
   </g>
   <g id="patch_101">
    <path clip-path="url(#p89a725581b)" d="M 374.323302 273.312 
L 377.506174 273.312 
L 377.506174 272.260413 
L 374.323302 272.260413 
z
" style="fill:#1f77b4;opacity:0.5;"/>
   </g>
   <g id="patch_102">
    <path clip-path="url(#p89a725581b)" d="M 377.506174 273.312 
L 380.689046 273.312 
L 380.689046 272.961471 
L 377.506174 272.961471 
z
" style="fill:#1f77b4;opacity:0.5;"/>
   </g>
   <g id="patch_103">
    <path clip-path="url(#p89a725581b)" d="M 60.013977 273.312 
L 60.013977 272.775063 
L 63.260523 272.775063 
L 63.260523 272.445144 
L 66.507068 272.445144 
L 66.507068 272.234815 
L 69.753614 272.234815 
L 69.753614 271.823198 
L 73.000159 271.823198 
L 73.000159 271.591347 
L 76.246705 271.591347 
L 76.246705 271.383825 
L 79.49325 271.383825 
L 79.49325 270.968015 
L 82.739795 270.968015 
L 82.739795 270.589791 
L 85.986341 270.589791 
L 85.986341 270.302347 
L 89.232886 270.302347 
L 89.232886 269.864702 
L 92.479432 269.864702 
L 92.479432 269.348146 
L 95.725977 269.348146 
L 95.725977 268.608611 
L 98.972523 268.608611 
L 98.972523 268.243387 
L 102.219068 268.243387 
L 102.219068 267.551409 
L 105.465614 267.551409 
L 105.465614 266.321257 
L 108.712159 266.321257 
L 108.712159 265.296848 
L 111.958705 265.296848 
L 111.958705 263.760249 
L 115.20525 263.760249 
L 115.20525 261.894767 
L 118.451795 261.894767 
L 118.451795 259.02358 
L 121.698341 259.02358 
L 121.698341 256.684712 
L 124.944886 256.684712 
L 124.944886 249.387634 
L 128.191432 249.387634 
L 128.191432 240.907324 
L 131.437977 240.907324 
L 131.437977 226.752541 
L 134.684523 226.752541 
L 134.684523 192.674853 
L 137.931068 192.674853 
L 137.931068 132.143451 
L 141.177614 132.143451 
L 141.177614 84.320707 
L 144.424159 84.320707 
L 144.424159 155.524662 
L 147.670705 155.524662 
L 147.670705 228.310392 
L 150.91725 228.310392 
L 150.91725 255.470755 
L 154.163795 255.470755 
L 154.163795 263.550848 
L 157.410341 263.550848 
L 157.410341 265.5106 
L 160.656886 265.5106 
L 160.656886 264.317113 
L 163.903432 264.317113 
L 163.903432 261.749625 
L 167.149977 261.749625 
L 167.149977 258.510768 
L 170.396523 258.510768 
L 170.396523 254.680026 
L 173.643068 254.680026 
L 173.643068 255.401444 
L 176.889614 255.401444 
L 176.889614 254.751352 
L 180.136159 254.751352 
L 180.136159 252.835227 
L 183.382705 252.835227 
L 183.382705 245.4231 
L 186.62925 245.4231 
L 186.62925 235.085397 
L 189.875795 235.085397 
L 189.875795 210.141376 
L 193.122341 210.141376 
L 193.122341 165.884925 
L 196.368886 165.884925 
L 196.368886 90.122556 
L 199.615432 90.122556 
L 199.615432 19.872 
L 202.861977 19.872 
L 202.861977 39.857877 
L 206.108523 39.857877 
L 206.108523 113.861164 
L 209.355068 113.861164 
L 209.355068 169.170928 
L 212.601614 169.170928 
L 212.601614 200.567716 
L 215.848159 200.567716 
L 215.848159 213.727573 
L 219.094705 213.727573 
L 219.094705 224.384255 
L 222.34125 224.384255 
L 222.34125 225.235691 
L 225.587795 225.235691 
L 225.587795 224.014819 
L 228.834341 224.014819 
L 228.834341 221.628594 
L 232.080886 221.628594 
L 232.080886 218.020508 
L 235.327432 218.020508 
L 235.327432 213.15246 
L 238.573977 213.15246 
L 238.573977 206.305053 
L 241.820523 206.305053 
L 241.820523 203.370966 
L 245.067068 203.370966 
L 245.067068 202.250705 
L 248.313614 202.250705 
L 248.313614 205.012582 
L 251.560159 205.012582 
L 251.560159 212.787276 
L 254.806705 212.787276 
L 254.806705 214.5367 
L 258.05325 214.5367 
L 258.05325 220.308194 
L 261.299795 220.308194 
L 261.299795 225.158573 
L 264.546341 225.158573 
L 264.546341 231.208075 
L 267.792886 231.208075 
L 267.792886 238.371796 
L 271.039432 238.371796 
L 271.039432 239.090193 
L 274.285977 239.090193 
L 274.285977 243.021381 
L 277.532523 243.021381 
L 277.532523 248.353056 
L 280.779068 248.353056 
L 280.779068 249.771226 
L 284.025614 249.771226 
L 284.025614 252.358761 
L 287.272159 252.358761 
L 287.272159 255.181945 
L 290.518705 255.181945 
L 290.518705 256.142042 
L 293.76525 256.142042 
L 293.76525 258.144359 
L 297.011795 258.144359 
L 297.011795 258.500979 
L 300.258341 258.500979 
L 300.258341 260.80725 
L 303.504886 260.80725 
L 303.504886 262.167509 
L 306.751432 262.167509 
L 306.751432 262.748896 
L 309.997977 262.748896 
L 309.997977 263.994244 
L 313.244523 263.994244 
L 313.244523 264.606301 
L 316.491068 264.606301 
L 316.491068 265.727134 
L 322.984159 265.674132 
L 322.984159 266.45267 
L 326.230705 266.45267 
L 326.230705 267.502893 
L 329.47725 267.502893 
L 329.47725 268.083856 
L 332.723795 268.083856 
L 332.723795 268.486194 
L 335.970341 268.486194 
L 335.970341 269.207236 
L 339.216886 269.207236 
L 339.216886 269.369075 
L 342.463432 269.369075 
L 342.463432 269.853796 
L 345.709977 269.853796 
L 345.709977 270.25031 
L 348.956523 270.25031 
L 348.956523 270.653321 
L 352.203068 270.653321 
L 352.203068 271.146034 
L 358.696159 271.166153 
L 358.696159 271.640337 
L 361.942705 271.640337 
L 361.942705 271.82541 
L 365.18925 271.82541 
L 365.18925 271.983318 
L 368.435795 271.983318 
L 368.435795 272.32758 
L 371.682341 272.32758 
L 371.682341 272.48425 
L 374.928886 272.48425 
L 374.928886 272.758925 
L 378.175432 272.758925 
L 378.175432 273.015168 
L 381.421977 273.015168 
L 381.421977 273.18952 
L 384.668523 273.18952 
L 384.668523 273.312 
L 384.668523 273.312 
" style="fill:none;stroke:#ff0000;stroke-linejoin:miter;"/>
   </g>
   <g id="matplotlib.axis_1">
    <g id="xtick_1">
     <g id="line2d_1">
      <path clip-path="url(#p89a725581b)" d="M 86.325198 273.312 
L 86.325198 7.2 
" style="fill:none;stroke:#b0b0b0;stroke-linecap:square;stroke-width:0.8;"/>
     </g>
     <g id="line2d_2">
      <defs>
       <path d="M 0 0 
L 0 3.5 
" id="m36c9c52f8f" style="stroke:#000000;stroke-width:0.8;"/>
      </defs>
      <g>
       <use style="stroke:#000000;stroke-width:0.8;" x="86.325198" xlink:href="#m36c9c52f8f" y="273.312"/>
      </g>
     </g>
     <g id="text_1">
      <!-- 0.5 -->
      <defs>
       <path d="M 31.78125 66.40625 
Q 24.171875 66.40625 20.328125 58.90625 
Q 16.5 51.421875 16.5 36.375 
Q 16.5 21.390625 20.328125 13.890625 
Q 24.171875 6.390625 31.78125 6.390625 
Q 39.453125 6.390625 43.28125 13.890625 
Q 47.125 21.390625 47.125 36.375 
Q 47.125 51.421875 43.28125 58.90625 
Q 39.453125 66.40625 31.78125 66.40625 
z
M 31.78125 74.21875 
Q 44.046875 74.21875 50.515625 64.515625 
Q 56.984375 54.828125 56.984375 36.375 
Q 56.984375 17.96875 50.515625 8.265625 
Q 44.046875 -1.421875 31.78125 -1.421875 
Q 19.53125 -1.421875 13.0625 8.265625 
Q 6.59375 17.96875 6.59375 36.375 
Q 6.59375 54.828125 13.0625 64.515625 
Q 19.53125 74.21875 31.78125 74.21875 
z
" id="DejaVuSans-48"/>
       <path d="M 10.6875 12.40625 
L 21 12.40625 
L 21 0 
L 10.6875 0 
z
" id="DejaVuSans-46"/>
       <path d="M 10.796875 72.90625 
L 49.515625 72.90625 
L 49.515625 64.59375 
L 19.828125 64.59375 
L 19.828125 46.734375 
Q 21.96875 47.46875 24.109375 47.828125 
Q 26.265625 48.1875 28.421875 48.1875 
Q 40.625 48.1875 47.75 41.5 
Q 54.890625 34.8125 54.890625 23.390625 
Q 54.890625 11.625 47.5625 5.09375 
Q 40.234375 -1.421875 26.90625 -1.421875 
Q 22.3125 -1.421875 17.546875 -0.640625 
Q 12.796875 0.140625 7.71875 1.703125 
L 7.71875 11.625 
Q 12.109375 9.234375 16.796875 8.0625 
Q 21.484375 6.890625 26.703125 6.890625 
Q 35.15625 6.890625 40.078125 11.328125 
Q 45.015625 15.765625 45.015625 23.390625 
Q 45.015625 31 40.078125 35.4375 
Q 35.15625 39.890625 26.703125 39.890625 
Q 22.75 39.890625 18.8125 39.015625 
Q 14.890625 38.140625 10.796875 36.28125 
z
" id="DejaVuSans-53"/>
      </defs>
      <g transform="translate(78.373635 287.910438)scale(0.1 -0.1)">
       <use xlink:href="#DejaVuSans-48"/>
       <use x="63.623047" xlink:href="#DejaVuSans-46"/>
       <use x="95.410156" xlink:href="#DejaVuSans-53"/>
      </g>
     </g>
    </g>
    <g id="xtick_2">
     <g id="line2d_3">
      <path clip-path="url(#p89a725581b)" d="M 143.873096 273.312 
L 143.873096 7.2 
" style="fill:none;stroke:#b0b0b0;stroke-linecap:square;stroke-width:0.8;"/>
     </g>
     <g id="line2d_4">
      <g>
       <use style="stroke:#000000;stroke-width:0.8;" x="143.873096" xlink:href="#m36c9c52f8f" y="273.312"/>
      </g>
     </g>
     <g id="text_2">
      <!-- 1.0 -->
      <defs>
       <path d="M 12.40625 8.296875 
L 28.515625 8.296875 
L 28.515625 63.921875 
L 10.984375 60.40625 
L 10.984375 69.390625 
L 28.421875 72.90625 
L 38.28125 72.90625 
L 38.28125 8.296875 
L 54.390625 8.296875 
L 54.390625 0 
L 12.40625 0 
z
" id="DejaVuSans-49"/>
      </defs>
      <g transform="translate(135.921534 287.910438)scale(0.1 -0.1)">
       <use xlink:href="#DejaVuSans-49"/>
       <use x="63.623047" xlink:href="#DejaVuSans-46"/>
       <use x="95.410156" xlink:href="#DejaVuSans-48"/>
      </g>
     </g>
    </g>
    <g id="xtick_3">
     <g id="line2d_5">
      <path clip-path="url(#p89a725581b)" d="M 201.420995 273.312 
L 201.420995 7.2 
" style="fill:none;stroke:#b0b0b0;stroke-linecap:square;stroke-width:0.8;"/>
     </g>
     <g id="line2d_6">
      <g>
       <use style="stroke:#000000;stroke-width:0.8;" x="201.420995" xlink:href="#m36c9c52f8f" y="273.312"/>
      </g>
     </g>
     <g id="text_3">
      <!-- 1.5 -->
      <g transform="translate(193.469432 287.910438)scale(0.1 -0.1)">
       <use xlink:href="#DejaVuSans-49"/>
       <use x="63.623047" xlink:href="#DejaVuSans-46"/>
       <use x="95.410156" xlink:href="#DejaVuSans-53"/>
      </g>
     </g>
    </g>
    <g id="xtick_4">
     <g id="line2d_7">
      <path clip-path="url(#p89a725581b)" d="M 258.968893 273.312 
L 258.968893 7.2 
" style="fill:none;stroke:#b0b0b0;stroke-linecap:square;stroke-width:0.8;"/>
     </g>
     <g id="line2d_8">
      <g>
       <use style="stroke:#000000;stroke-width:0.8;" x="258.968893" xlink:href="#m36c9c52f8f" y="273.312"/>
      </g>
     </g>
     <g id="text_4">
      <!-- 2.0 -->
      <defs>
       <path d="M 19.1875 8.296875 
L 53.609375 8.296875 
L 53.609375 0 
L 7.328125 0 
L 7.328125 8.296875 
Q 12.9375 14.109375 22.625 23.890625 
Q 32.328125 33.6875 34.8125 36.53125 
Q 39.546875 41.84375 41.421875 45.53125 
Q 43.3125 49.21875 43.3125 52.78125 
Q 43.3125 58.59375 39.234375 62.25 
Q 35.15625 65.921875 28.609375 65.921875 
Q 23.96875 65.921875 18.8125 64.3125 
Q 13.671875 62.703125 7.8125 59.421875 
L 7.8125 69.390625 
Q 13.765625 71.78125 18.9375 73 
Q 24.125 74.21875 28.421875 74.21875 
Q 39.75 74.21875 46.484375 68.546875 
Q 53.21875 62.890625 53.21875 53.421875 
Q 53.21875 48.921875 51.53125 44.890625 
Q 49.859375 40.875 45.40625 35.40625 
Q 44.1875 33.984375 37.640625 27.21875 
Q 31.109375 20.453125 19.1875 8.296875 
z
" id="DejaVuSans-50"/>
      </defs>
      <g transform="translate(251.017331 287.910438)scale(0.1 -0.1)">
       <use xlink:href="#DejaVuSans-50"/>
       <use x="63.623047" xlink:href="#DejaVuSans-46"/>
       <use x="95.410156" xlink:href="#DejaVuSans-48"/>
      </g>
     </g>
    </g>
    <g id="xtick_5">
     <g id="line2d_9">
      <path clip-path="url(#p89a725581b)" d="M 316.516792 273.312 
L 316.516792 7.2 
" style="fill:none;stroke:#b0b0b0;stroke-linecap:square;stroke-width:0.8;"/>
     </g>
     <g id="line2d_10">
      <g>
       <use style="stroke:#000000;stroke-width:0.8;" x="316.516792" xlink:href="#m36c9c52f8f" y="273.312"/>
      </g>
     </g>
     <g id="text_5">
      <!-- 2.5 -->
      <g transform="translate(308.56523 287.910438)scale(0.1 -0.1)">
       <use xlink:href="#DejaVuSans-50"/>
       <use x="63.623047" xlink:href="#DejaVuSans-46"/>
       <use x="95.410156" xlink:href="#DejaVuSans-53"/>
      </g>
     </g>
    </g>
    <g id="xtick_6">
     <g id="line2d_11">
      <path clip-path="url(#p89a725581b)" d="M 374.064691 273.312 
L 374.064691 7.2 
" style="fill:none;stroke:#b0b0b0;stroke-linecap:square;stroke-width:0.8;"/>
     </g>
     <g id="line2d_12">
      <g>
       <use style="stroke:#000000;stroke-width:0.8;" x="374.064691" xlink:href="#m36c9c52f8f" y="273.312"/>
      </g>
     </g>
     <g id="text_6">
      <!-- 3.0 -->
      <defs>
       <path d="M 40.578125 39.3125 
Q 47.65625 37.796875 51.625 33 
Q 55.609375 28.21875 55.609375 21.1875 
Q 55.609375 10.40625 48.1875 4.484375 
Q 40.765625 -1.421875 27.09375 -1.421875 
Q 22.515625 -1.421875 17.65625 -0.515625 
Q 12.796875 0.390625 7.625 2.203125 
L 7.625 11.71875 
Q 11.71875 9.328125 16.59375 8.109375 
Q 21.484375 6.890625 26.8125 6.890625 
Q 36.078125 6.890625 40.9375 10.546875 
Q 45.796875 14.203125 45.796875 21.1875 
Q 45.796875 27.640625 41.28125 31.265625 
Q 36.765625 34.90625 28.71875 34.90625 
L 20.21875 34.90625 
L 20.21875 43.015625 
L 29.109375 43.015625 
Q 36.375 43.015625 40.234375 45.921875 
Q 44.09375 48.828125 44.09375 54.296875 
Q 44.09375 59.90625 40.109375 62.90625 
Q 36.140625 65.921875 28.71875 65.921875 
Q 24.65625 65.921875 20.015625 65.03125 
Q 15.375 64.15625 9.8125 62.3125 
L 9.8125 71.09375 
Q 15.4375 72.65625 20.34375 73.4375 
Q 25.25 74.21875 29.59375 74.21875 
Q 40.828125 74.21875 47.359375 69.109375 
Q 53.90625 64.015625 53.90625 55.328125 
Q 53.90625 49.265625 50.4375 45.09375 
Q 46.96875 40.921875 40.578125 39.3125 
z
" id="DejaVuSans-51"/>
      </defs>
      <g transform="translate(366.113128 287.910438)scale(0.1 -0.1)">
       <use xlink:href="#DejaVuSans-51"/>
       <use x="63.623047" xlink:href="#DejaVuSans-46"/>
       <use x="95.410156" xlink:href="#DejaVuSans-48"/>
      </g>
     </g>
    </g>
    <g id="text_7">
     <!-- M(pi0,pi0) -->
     <defs>
      <path d="M 9.8125 72.90625 
L 24.515625 72.90625 
L 43.109375 23.296875 
L 61.8125 72.90625 
L 76.515625 72.90625 
L 76.515625 0 
L 66.890625 0 
L 66.890625 64.015625 
L 48.09375 14.015625 
L 38.1875 14.015625 
L 19.390625 64.015625 
L 19.390625 0 
L 9.8125 0 
z
" id="DejaVuSans-77"/>
      <path d="M 31 75.875 
Q 24.46875 64.65625 21.28125 53.65625 
Q 18.109375 42.671875 18.109375 31.390625 
Q 18.109375 20.125 21.3125 9.0625 
Q 24.515625 -2 31 -13.1875 
L 23.1875 -13.1875 
Q 15.875 -1.703125 12.234375 9.375 
Q 8.59375 20.453125 8.59375 31.390625 
Q 8.59375 42.28125 12.203125 53.3125 
Q 15.828125 64.359375 23.1875 75.875 
z
" id="DejaVuSans-40"/>
      <path d="M 18.109375 8.203125 
L 18.109375 -20.796875 
L 9.078125 -20.796875 
L 9.078125 54.6875 
L 18.109375 54.6875 
L 18.109375 46.390625 
Q 20.953125 51.265625 25.265625 53.625 
Q 29.59375 56 35.59375 56 
Q 45.5625 56 51.78125 48.09375 
Q 58.015625 40.1875 58.015625 27.296875 
Q 58.015625 14.40625 51.78125 6.484375 
Q 45.5625 -1.421875 35.59375 -1.421875 
Q 29.59375 -1.421875 25.265625 0.953125 
Q 20.953125 3.328125 18.109375 8.203125 
z
M 48.6875 27.296875 
Q 48.6875 37.203125 44.609375 42.84375 
Q 40.53125 48.484375 33.40625 48.484375 
Q 26.265625 48.484375 22.1875 42.84375 
Q 18.109375 37.203125 18.109375 27.296875 
Q 18.109375 17.390625 22.1875 11.75 
Q 26.265625 6.109375 33.40625 6.109375 
Q 40.53125 6.109375 44.609375 11.75 
Q 48.6875 17.390625 48.6875 27.296875 
z
" id="DejaVuSans-112"/>
      <path d="M 9.421875 54.6875 
L 18.40625 54.6875 
L 18.40625 0 
L 9.421875 0 
z
M 9.421875 75.984375 
L 18.40625 75.984375 
L 18.40625 64.59375 
L 9.421875 64.59375 
z
" id="DejaVuSans-105"/>
      <path d="M 11.71875 12.40625 
L 22.015625 12.40625 
L 22.015625 4 
L 14.015625 -11.625 
L 7.71875 -11.625 
L 11.71875 4 
z
" id="DejaVuSans-44"/>
      <path d="M 8.015625 75.875 
L 15.828125 75.875 
Q 23.140625 64.359375 26.78125 53.3125 
Q 30.421875 42.28125 30.421875 31.390625 
Q 30.421875 20.453125 26.78125 9.375 
Q 23.140625 -1.703125 15.828125 -13.1875 
L 8.015625 -13.1875 
Q 14.5 -2 17.703125 9.0625 
Q 20.90625 20.125 20.90625 31.390625 
Q 20.90625 42.671875 17.703125 53.65625 
Q 14.5 64.65625 8.015625 75.875 
z
" id="DejaVuSans-41"/>
     </defs>
     <g transform="translate(197.0475 301.588562)scale(0.1 -0.1)">
      <use xlink:href="#DejaVuSans-77"/>
      <use x="86.279297" xlink:href="#DejaVuSans-40"/>
      <use x="125.292969" xlink:href="#DejaVuSans-112"/>
      <use x="188.769531" xlink:href="#DejaVuSans-105"/>
      <use x="216.552734" xlink:href="#DejaVuSans-48"/>
      <use x="280.175781" xlink:href="#DejaVuSans-44"/>
      <use x="311.962891" xlink:href="#DejaVuSans-112"/>
      <use x="375.439453" xlink:href="#DejaVuSans-105"/>
      <use x="403.222656" xlink:href="#DejaVuSans-48"/>
      <use x="466.845703" xlink:href="#DejaVuSans-41"/>
     </g>
    </g>
   </g>
   <g id="matplotlib.axis_2">
    <g id="ytick_1">
     <g id="line2d_13">
      <path clip-path="url(#p89a725581b)" d="M 43.78125 273.312 
L 400.90125 273.312 
" style="fill:none;stroke:#b0b0b0;stroke-linecap:square;stroke-width:0.8;"/>
     </g>
     <g id="line2d_14">
      <defs>
       <path d="M 0 0 
L -3.5 0 
" id="m6d01b7f026" style="stroke:#000000;stroke-width:0.8;"/>
      </defs>
      <g>
       <use style="stroke:#000000;stroke-width:0.8;" x="43.78125" xlink:href="#m6d01b7f026" y="273.312"/>
      </g>
     </g>
     <g id="text_8">
      <!-- 0.0 -->
      <g transform="translate(20.878125 277.111219)scale(0.1 -0.1)">
       <use xlink:href="#DejaVuSans-48"/>
       <use x="63.623047" xlink:href="#DejaVuSans-46"/>
       <use x="95.410156" xlink:href="#DejaVuSans-48"/>
      </g>
     </g>
    </g>
    <g id="ytick_2">
     <g id="line2d_15">
      <path clip-path="url(#p89a725581b)" d="M 43.78125 224.844142 
L 400.90125 224.844142 
" style="fill:none;stroke:#b0b0b0;stroke-linecap:square;stroke-width:0.8;"/>
     </g>
     <g id="line2d_16">
      <g>
       <use style="stroke:#000000;stroke-width:0.8;" x="43.78125" xlink:href="#m6d01b7f026" y="224.844142"/>
      </g>
     </g>
     <g id="text_9">
      <!-- 0.5 -->
      <g transform="translate(20.878125 228.643361)scale(0.1 -0.1)">
       <use xlink:href="#DejaVuSans-48"/>
       <use x="63.623047" xlink:href="#DejaVuSans-46"/>
       <use x="95.410156" xlink:href="#DejaVuSans-53"/>
      </g>
     </g>
    </g>
    <g id="ytick_3">
     <g id="line2d_17">
      <path clip-path="url(#p89a725581b)" d="M 43.78125 176.376284 
L 400.90125 176.376284 
" style="fill:none;stroke:#b0b0b0;stroke-linecap:square;stroke-width:0.8;"/>
     </g>
     <g id="line2d_18">
      <g>
       <use style="stroke:#000000;stroke-width:0.8;" x="43.78125" xlink:href="#m6d01b7f026" y="176.376284"/>
      </g>
     </g>
     <g id="text_10">
      <!-- 1.0 -->
      <g transform="translate(20.878125 180.175502)scale(0.1 -0.1)">
       <use xlink:href="#DejaVuSans-49"/>
       <use x="63.623047" xlink:href="#DejaVuSans-46"/>
       <use x="95.410156" xlink:href="#DejaVuSans-48"/>
      </g>
     </g>
    </g>
    <g id="ytick_4">
     <g id="line2d_19">
      <path clip-path="url(#p89a725581b)" d="M 43.78125 127.908426 
L 400.90125 127.908426 
" style="fill:none;stroke:#b0b0b0;stroke-linecap:square;stroke-width:0.8;"/>
     </g>
     <g id="line2d_20">
      <g>
       <use style="stroke:#000000;stroke-width:0.8;" x="43.78125" xlink:href="#m6d01b7f026" y="127.908426"/>
      </g>
     </g>
     <g id="text_11">
      <!-- 1.5 -->
      <g transform="translate(20.878125 131.707644)scale(0.1 -0.1)">
       <use xlink:href="#DejaVuSans-49"/>
       <use x="63.623047" xlink:href="#DejaVuSans-46"/>
       <use x="95.410156" xlink:href="#DejaVuSans-53"/>
      </g>
     </g>
    </g>
    <g id="ytick_5">
     <g id="line2d_21">
      <path clip-path="url(#p89a725581b)" d="M 43.78125 79.440567 
L 400.90125 79.440567 
" style="fill:none;stroke:#b0b0b0;stroke-linecap:square;stroke-width:0.8;"/>
     </g>
     <g id="line2d_22">
      <g>
       <use style="stroke:#000000;stroke-width:0.8;" x="43.78125" xlink:href="#m6d01b7f026" y="79.440567"/>
      </g>
     </g>
     <g id="text_12">
      <!-- 2.0 -->
      <g transform="translate(20.878125 83.239786)scale(0.1 -0.1)">
       <use xlink:href="#DejaVuSans-50"/>
       <use x="63.623047" xlink:href="#DejaVuSans-46"/>
       <use x="95.410156" xlink:href="#DejaVuSans-48"/>
      </g>
     </g>
    </g>
    <g id="ytick_6">
     <g id="line2d_23">
      <path clip-path="url(#p89a725581b)" d="M 43.78125 30.972709 
L 400.90125 30.972709 
" style="fill:none;stroke:#b0b0b0;stroke-linecap:square;stroke-width:0.8;"/>
     </g>
     <g id="line2d_24">
      <g>
       <use style="stroke:#000000;stroke-width:0.8;" x="43.78125" xlink:href="#m6d01b7f026" y="30.972709"/>
      </g>
     </g>
     <g id="text_13">
      <!-- 2.5 -->
      <g transform="translate(20.878125 34.771928)scale(0.1 -0.1)">
       <use xlink:href="#DejaVuSans-50"/>
       <use x="63.623047" xlink:href="#DejaVuSans-46"/>
       <use x="95.410156" xlink:href="#DejaVuSans-53"/>
      </g>
     </g>
    </g>
    <g id="text_14">
     <!-- normalized intensity -->
     <defs>
      <path d="M 54.890625 33.015625 
L 54.890625 0 
L 45.90625 0 
L 45.90625 32.71875 
Q 45.90625 40.484375 42.875 44.328125 
Q 39.84375 48.1875 33.796875 48.1875 
Q 26.515625 48.1875 22.3125 43.546875 
Q 18.109375 38.921875 18.109375 30.90625 
L 18.109375 0 
L 9.078125 0 
L 9.078125 54.6875 
L 18.109375 54.6875 
L 18.109375 46.1875 
Q 21.34375 51.125 25.703125 53.5625 
Q 30.078125 56 35.796875 56 
Q 45.21875 56 50.046875 50.171875 
Q 54.890625 44.34375 54.890625 33.015625 
z
" id="DejaVuSans-110"/>
      <path d="M 30.609375 48.390625 
Q 23.390625 48.390625 19.1875 42.75 
Q 14.984375 37.109375 14.984375 27.296875 
Q 14.984375 17.484375 19.15625 11.84375 
Q 23.34375 6.203125 30.609375 6.203125 
Q 37.796875 6.203125 41.984375 11.859375 
Q 46.1875 17.53125 46.1875 27.296875 
Q 46.1875 37.015625 41.984375 42.703125 
Q 37.796875 48.390625 30.609375 48.390625 
z
M 30.609375 56 
Q 42.328125 56 49.015625 48.375 
Q 55.71875 40.765625 55.71875 27.296875 
Q 55.71875 13.875 49.015625 6.21875 
Q 42.328125 -1.421875 30.609375 -1.421875 
Q 18.84375 -1.421875 12.171875 6.21875 
Q 5.515625 13.875 5.515625 27.296875 
Q 5.515625 40.765625 12.171875 48.375 
Q 18.84375 56 30.609375 56 
z
" id="DejaVuSans-111"/>
      <path d="M 41.109375 46.296875 
Q 39.59375 47.171875 37.8125 47.578125 
Q 36.03125 48 33.890625 48 
Q 26.265625 48 22.1875 43.046875 
Q 18.109375 38.09375 18.109375 28.8125 
L 18.109375 0 
L 9.078125 0 
L 9.078125 54.6875 
L 18.109375 54.6875 
L 18.109375 46.1875 
Q 20.953125 51.171875 25.484375 53.578125 
Q 30.03125 56 36.53125 56 
Q 37.453125 56 38.578125 55.875 
Q 39.703125 55.765625 41.0625 55.515625 
z
" id="DejaVuSans-114"/>
      <path d="M 52 44.1875 
Q 55.375 50.25 60.0625 53.125 
Q 64.75 56 71.09375 56 
Q 79.640625 56 84.28125 50.015625 
Q 88.921875 44.046875 88.921875 33.015625 
L 88.921875 0 
L 79.890625 0 
L 79.890625 32.71875 
Q 79.890625 40.578125 77.09375 44.375 
Q 74.3125 48.1875 68.609375 48.1875 
Q 61.625 48.1875 57.5625 43.546875 
Q 53.515625 38.921875 53.515625 30.90625 
L 53.515625 0 
L 44.484375 0 
L 44.484375 32.71875 
Q 44.484375 40.625 41.703125 44.40625 
Q 38.921875 48.1875 33.109375 48.1875 
Q 26.21875 48.1875 22.15625 43.53125 
Q 18.109375 38.875 18.109375 30.90625 
L 18.109375 0 
L 9.078125 0 
L 9.078125 54.6875 
L 18.109375 54.6875 
L 18.109375 46.1875 
Q 21.1875 51.21875 25.484375 53.609375 
Q 29.78125 56 35.6875 56 
Q 41.65625 56 45.828125 52.96875 
Q 50 49.953125 52 44.1875 
z
" id="DejaVuSans-109"/>
      <path d="M 34.28125 27.484375 
Q 23.390625 27.484375 19.1875 25 
Q 14.984375 22.515625 14.984375 16.5 
Q 14.984375 11.71875 18.140625 8.90625 
Q 21.296875 6.109375 26.703125 6.109375 
Q 34.1875 6.109375 38.703125 11.40625 
Q 43.21875 16.703125 43.21875 25.484375 
L 43.21875 27.484375 
z
M 52.203125 31.203125 
L 52.203125 0 
L 43.21875 0 
L 43.21875 8.296875 
Q 40.140625 3.328125 35.546875 0.953125 
Q 30.953125 -1.421875 24.3125 -1.421875 
Q 15.921875 -1.421875 10.953125 3.296875 
Q 6 8.015625 6 15.921875 
Q 6 25.140625 12.171875 29.828125 
Q 18.359375 34.515625 30.609375 34.515625 
L 43.21875 34.515625 
L 43.21875 35.40625 
Q 43.21875 41.609375 39.140625 45 
Q 35.0625 48.390625 27.6875 48.390625 
Q 23 48.390625 18.546875 47.265625 
Q 14.109375 46.140625 10.015625 43.890625 
L 10.015625 52.203125 
Q 14.9375 54.109375 19.578125 55.046875 
Q 24.21875 56 28.609375 56 
Q 40.484375 56 46.34375 49.84375 
Q 52.203125 43.703125 52.203125 31.203125 
z
" id="DejaVuSans-97"/>
      <path d="M 9.421875 75.984375 
L 18.40625 75.984375 
L 18.40625 0 
L 9.421875 0 
z
" id="DejaVuSans-108"/>
      <path d="M 5.515625 54.6875 
L 48.1875 54.6875 
L 48.1875 46.484375 
L 14.40625 7.171875 
L 48.1875 7.171875 
L 48.1875 0 
L 4.296875 0 
L 4.296875 8.203125 
L 38.09375 47.515625 
L 5.515625 47.515625 
z
" id="DejaVuSans-122"/>
      <path d="M 56.203125 29.59375 
L 56.203125 25.203125 
L 14.890625 25.203125 
Q 15.484375 15.921875 20.484375 11.0625 
Q 25.484375 6.203125 34.421875 6.203125 
Q 39.59375 6.203125 44.453125 7.46875 
Q 49.3125 8.734375 54.109375 11.28125 
L 54.109375 2.78125 
Q 49.265625 0.734375 44.1875 -0.34375 
Q 39.109375 -1.421875 33.890625 -1.421875 
Q 20.796875 -1.421875 13.15625 6.1875 
Q 5.515625 13.8125 5.515625 26.8125 
Q 5.515625 40.234375 12.765625 48.109375 
Q 20.015625 56 32.328125 56 
Q 43.359375 56 49.78125 48.890625 
Q 56.203125 41.796875 56.203125 29.59375 
z
M 47.21875 32.234375 
Q 47.125 39.59375 43.09375 43.984375 
Q 39.0625 48.390625 32.421875 48.390625 
Q 24.90625 48.390625 20.390625 44.140625 
Q 15.875 39.890625 15.1875 32.171875 
z
" id="DejaVuSans-101"/>
      <path d="M 45.40625 46.390625 
L 45.40625 75.984375 
L 54.390625 75.984375 
L 54.390625 0 
L 45.40625 0 
L 45.40625 8.203125 
Q 42.578125 3.328125 38.25 0.953125 
Q 33.9375 -1.421875 27.875 -1.421875 
Q 17.96875 -1.421875 11.734375 6.484375 
Q 5.515625 14.40625 5.515625 27.296875 
Q 5.515625 40.1875 11.734375 48.09375 
Q 17.96875 56 27.875 56 
Q 33.9375 56 38.25 53.625 
Q 42.578125 51.265625 45.40625 46.390625 
z
M 14.796875 27.296875 
Q 14.796875 17.390625 18.875 11.75 
Q 22.953125 6.109375 30.078125 6.109375 
Q 37.203125 6.109375 41.296875 11.75 
Q 45.40625 17.390625 45.40625 27.296875 
Q 45.40625 37.203125 41.296875 42.84375 
Q 37.203125 48.484375 30.078125 48.484375 
Q 22.953125 48.484375 18.875 42.84375 
Q 14.796875 37.203125 14.796875 27.296875 
z
" id="DejaVuSans-100"/>
      <path id="DejaVuSans-32"/>
      <path d="M 18.3125 70.21875 
L 18.3125 54.6875 
L 36.8125 54.6875 
L 36.8125 47.703125 
L 18.3125 47.703125 
L 18.3125 18.015625 
Q 18.3125 11.328125 20.140625 9.421875 
Q 21.96875 7.515625 27.59375 7.515625 
L 36.8125 7.515625 
L 36.8125 0 
L 27.59375 0 
Q 17.1875 0 13.234375 3.875 
Q 9.28125 7.765625 9.28125 18.015625 
L 9.28125 47.703125 
L 2.6875 47.703125 
L 2.6875 54.6875 
L 9.28125 54.6875 
L 9.28125 70.21875 
z
" id="DejaVuSans-116"/>
      <path d="M 44.28125 53.078125 
L 44.28125 44.578125 
Q 40.484375 46.53125 36.375 47.5 
Q 32.28125 48.484375 27.875 48.484375 
Q 21.1875 48.484375 17.84375 46.4375 
Q 14.5 44.390625 14.5 40.28125 
Q 14.5 37.15625 16.890625 35.375 
Q 19.28125 33.59375 26.515625 31.984375 
L 29.59375 31.296875 
Q 39.15625 29.25 43.1875 25.515625 
Q 47.21875 21.78125 47.21875 15.09375 
Q 47.21875 7.46875 41.1875 3.015625 
Q 35.15625 -1.421875 24.609375 -1.421875 
Q 20.21875 -1.421875 15.453125 -0.5625 
Q 10.6875 0.296875 5.421875 2 
L 5.421875 11.28125 
Q 10.40625 8.6875 15.234375 7.390625 
Q 20.0625 6.109375 24.8125 6.109375 
Q 31.15625 6.109375 34.5625 8.28125 
Q 37.984375 10.453125 37.984375 14.40625 
Q 37.984375 18.0625 35.515625 20.015625 
Q 33.0625 21.96875 24.703125 23.78125 
L 21.578125 24.515625 
Q 13.234375 26.265625 9.515625 29.90625 
Q 5.8125 33.546875 5.8125 39.890625 
Q 5.8125 47.609375 11.28125 51.796875 
Q 16.75 56 26.8125 56 
Q 31.78125 56 36.171875 55.265625 
Q 40.578125 54.546875 44.28125 53.078125 
z
" id="DejaVuSans-115"/>
      <path d="M 32.171875 -5.078125 
Q 28.375 -14.84375 24.75 -17.8125 
Q 21.140625 -20.796875 15.09375 -20.796875 
L 7.90625 -20.796875 
L 7.90625 -13.28125 
L 13.1875 -13.28125 
Q 16.890625 -13.28125 18.9375 -11.515625 
Q 21 -9.765625 23.484375 -3.21875 
L 25.09375 0.875 
L 2.984375 54.6875 
L 12.5 54.6875 
L 29.59375 11.921875 
L 46.6875 54.6875 
L 56.203125 54.6875 
z
" id="DejaVuSans-121"/>
     </defs>
     <g transform="translate(14.798438 191.305219)rotate(-90)scale(0.1 -0.1)">
      <use xlink:href="#DejaVuSans-110"/>
      <use x="63.378906" xlink:href="#DejaVuSans-111"/>
      <use x="124.560547" xlink:href="#DejaVuSans-114"/>
      <use x="163.923828" xlink:href="#DejaVuSans-109"/>
      <use x="261.335938" xlink:href="#DejaVuSans-97"/>
      <use x="322.615234" xlink:href="#DejaVuSans-108"/>
      <use x="350.398438" xlink:href="#DejaVuSans-105"/>
      <use x="378.181641" xlink:href="#DejaVuSans-122"/>
      <use x="430.671875" xlink:href="#DejaVuSans-101"/>
      <use x="492.195312" xlink:href="#DejaVuSans-100"/>
      <use x="555.671875" xlink:href="#DejaVuSans-32"/>
      <use x="587.458984" xlink:href="#DejaVuSans-105"/>
      <use x="615.242188" xlink:href="#DejaVuSans-110"/>
      <use x="678.621094" xlink:href="#DejaVuSans-116"/>
      <use x="717.830078" xlink:href="#DejaVuSans-101"/>
      <use x="779.353516" xlink:href="#DejaVuSans-110"/>
      <use x="842.732422" xlink:href="#DejaVuSans-115"/>
      <use x="894.832031" xlink:href="#DejaVuSans-105"/>
      <use x="922.615234" xlink:href="#DejaVuSans-116"/>
      <use x="961.824219" xlink:href="#DejaVuSans-121"/>
     </g>
    </g>
   </g>
   <g id="patch_104">
    <path d="M 43.78125 273.312 
L 43.78125 7.2 
" style="fill:none;stroke:#000000;stroke-linecap:square;stroke-linejoin:miter;stroke-width:0.8;"/>
   </g>
   <g id="patch_105">
    <path d="M 400.90125 273.312 
L 400.90125 7.2 
" style="fill:none;stroke:#000000;stroke-linecap:square;stroke-linejoin:miter;stroke-width:0.8;"/>
   </g>
   <g id="patch_106">
    <path d="M 43.78125 273.312 
L 400.90125 273.312 
" style="fill:none;stroke:#000000;stroke-linecap:square;stroke-linejoin:miter;stroke-width:0.8;"/>
   </g>
   <g id="patch_107">
    <path d="M 43.78125 7.2 
L 400.90125 7.2 
" style="fill:none;stroke:#000000;stroke-linecap:square;stroke-linejoin:miter;stroke-width:0.8;"/>
   </g>
   <g id="legend_1">
    <g id="patch_108">
     <path d="M 339.37625 44.55625 
L 393.90125 44.55625 
Q 395.90125 44.55625 395.90125 42.55625 
L 395.90125 14.2 
Q 395.90125 12.2 393.90125 12.2 
L 339.37625 12.2 
Q 337.37625 12.2 337.37625 14.2 
L 337.37625 42.55625 
Q 337.37625 44.55625 339.37625 44.55625 
z
" style="fill:#ffffff;opacity:0.8;stroke:#cccccc;stroke-linejoin:miter;"/>
    </g>
    <g id="patch_109">
     <path d="M 341.37625 23.798437 
L 361.37625 23.798437 
L 361.37625 16.798437 
L 341.37625 16.798437 
z
" style="fill:#1f77b4;opacity:0.5;"/>
    </g>
    <g id="text_15">
     <!-- data -->
     <g transform="translate(369.37625 23.798437)scale(0.1 -0.1)">
      <use xlink:href="#DejaVuSans-100"/>
      <use x="63.476562" xlink:href="#DejaVuSans-97"/>
      <use x="124.755859" xlink:href="#DejaVuSans-116"/>
      <use x="163.964844" xlink:href="#DejaVuSans-97"/>
     </g>
    </g>
    <g id="patch_110">
     <path d="M 341.37625 38.476562 
L 361.37625 38.476562 
L 361.37625 31.476562 
L 341.37625 31.476562 
z
" style="fill:none;stroke:#ff0000;stroke-linejoin:miter;"/>
    </g>
    <g id="text_16">
     <!-- fit -->
     <defs>
      <path d="M 37.109375 75.984375 
L 37.109375 68.5 
L 28.515625 68.5 
Q 23.6875 68.5 21.796875 66.546875 
Q 19.921875 64.59375 19.921875 59.515625 
L 19.921875 54.6875 
L 34.71875 54.6875 
L 34.71875 47.703125 
L 19.921875 47.703125 
L 19.921875 0 
L 10.890625 0 
L 10.890625 47.703125 
L 2.296875 47.703125 
L 2.296875 54.6875 
L 10.890625 54.6875 
L 10.890625 58.5 
Q 10.890625 67.625 15.140625 71.796875 
Q 19.390625 75.984375 28.609375 75.984375 
z
" id="DejaVuSans-102"/>
     </defs>
     <g transform="translate(369.37625 38.476562)scale(0.1 -0.1)">
      <use xlink:href="#DejaVuSans-102"/>
      <use x="35.205078" xlink:href="#DejaVuSans-105"/>
      <use x="62.988281" xlink:href="#DejaVuSans-116"/>
     </g>
    </g>
   </g>
  </g>
 </g>
 <defs>
  <clipPath id="p89a725581b">
   <rect height="266.112" width="357.12" x="43.78125" y="7.2"/>
  </clipPath>
 </defs>
</svg>
