<?xml version="1.0" encoding="utf-8" standalone="no"?>
<!DOCTYPE svg PUBLIC "-//W3C//DTD SVG 1.1//EN"
  "http://www.w3.org/Graphics/SVG/1.1/DTD/svg11.dtd">
<svg height="311.146375pt" version="1.1" viewBox="0 0 408.10125 311.146375" width="408.10125pt" xmlns="http://www.w3.org/2000/svg" xmlns:xlink="http://www.w3.org/1999/xlink">
 <metadata>
  <rdf:RDF xmlns:cc="http://creativecommons.org/ns#" xmlns:dc="http://purl.org/dc/elements/1.1/" xmlns:rdf="http://www.w3.org/1999/02/22-rdf-syntax-ns#">
   <cc:Work>
    <dc:type rdf:resource="http://purl.org/dc/dcmitype/StillImage"/>
    <dc:date>2021-10-23T11:19:33.747449</dc:date>
    <dc:format>image/svg+xml</dc:format>
    <dc:creator>
     <cc:Agent>
      <dc:title>Matplotlib v3.4.3, https://matplotlib.org/</dc:title>
     </cc:Agent>
    </dc:creator>
   </cc:Work>
  </rdf:RDF>
 </metadata>
 <defs>
  <style type="text/css">*{stroke-linecap:butt;stroke-linejoin:round;}</style>
 </defs>
 <g id="figure_1">
  <g id="patch_1">
   <path d="M 0 311.146375 
L 408.10125 311.146375 
L 408.10125 0 
L 0 0 
z
" style="fill:#ffffff;"/>
  </g>
  <g id="axes_1">
   <g id="patch_2">
    <path d="M 43.78125 273.312 
L 400.90125 273.312 
L 400.90125 7.2 
L 43.78125 7.2 
z
" style="fill:#ffffff;"/>
   </g>
   <g id="patch_3">
    <path clip-path="url(#pca33a1aa4c)" d="M 65.436798 273.312 
L 68.613777 273.312 
L 68.613777 272.322 
L 65.436798 272.322 
z
" style="fill:#1f77b4;opacity:0.5;"/>
   </g>
   <g id="patch_4">
    <path clip-path="url(#pca33a1aa4c)" d="M 68.613777 273.312 
L 71.790755 273.312 
L 71.790755 267.372 
L 68.613777 267.372 
z
" style="fill:#1f77b4;opacity:0.5;"/>
   </g>
   <g id="patch_5">
    <path clip-path="url(#pca33a1aa4c)" d="M 71.790755 273.312 
L 74.967734 273.312 
L 74.967734 268.362 
L 71.790755 268.362 
z
" style="fill:#1f77b4;opacity:0.5;"/>
   </g>
   <g id="patch_6">
    <path clip-path="url(#pca33a1aa4c)" d="M 74.967734 273.312 
L 78.144712 273.312 
L 78.144712 266.382 
L 74.967734 266.382 
z
" style="fill:#1f77b4;opacity:0.5;"/>
   </g>
   <g id="patch_7">
    <path clip-path="url(#pca33a1aa4c)" d="M 78.144712 273.312 
L 81.321691 273.312 
L 81.321691 266.382 
L 78.144712 266.382 
z
" style="fill:#1f77b4;opacity:0.5;"/>
   </g>
   <g id="patch_8">
    <path clip-path="url(#pca33a1aa4c)" d="M 81.321691 273.312 
L 84.49867 273.312 
L 84.49867 267.372 
L 81.321691 267.372 
z
" style="fill:#1f77b4;opacity:0.5;"/>
   </g>
   <g id="patch_9">
    <path clip-path="url(#pca33a1aa4c)" d="M 84.49867 273.312 
L 87.675648 273.312 
L 87.675648 266.382 
L 84.49867 266.382 
z
" style="fill:#1f77b4;opacity:0.5;"/>
   </g>
   <g id="patch_10">
    <path clip-path="url(#pca33a1aa4c)" d="M 87.675648 273.312 
L 90.852627 273.312 
L 90.852627 261.432 
L 87.675648 261.432 
z
" style="fill:#1f77b4;opacity:0.5;"/>
   </g>
   <g id="patch_11">
    <path clip-path="url(#pca33a1aa4c)" d="M 90.852627 273.312 
L 94.029605 273.312 
L 94.029605 260.442 
L 90.852627 260.442 
z
" style="fill:#1f77b4;opacity:0.5;"/>
   </g>
   <g id="patch_12">
    <path clip-path="url(#pca33a1aa4c)" d="M 94.029605 273.312 
L 97.206584 273.312 
L 97.206584 252.522 
L 94.029605 252.522 
z
" style="fill:#1f77b4;opacity:0.5;"/>
   </g>
   <g id="patch_13">
    <path clip-path="url(#pca33a1aa4c)" d="M 97.206584 273.312 
L 100.383562 273.312 
L 100.383562 253.512 
L 97.206584 253.512 
z
" style="fill:#1f77b4;opacity:0.5;"/>
   </g>
   <g id="patch_14">
    <path clip-path="url(#pca33a1aa4c)" d="M 100.383562 273.312 
L 103.560541 273.312 
L 103.560541 254.502 
L 100.383562 254.502 
z
" style="fill:#1f77b4;opacity:0.5;"/>
   </g>
   <g id="patch_15">
    <path clip-path="url(#pca33a1aa4c)" d="M 103.560541 273.312 
L 106.73752 273.312 
L 106.73752 245.592 
L 103.560541 245.592 
z
" style="fill:#1f77b4;opacity:0.5;"/>
   </g>
   <g id="patch_16">
    <path clip-path="url(#pca33a1aa4c)" d="M 106.73752 273.312 
L 109.914498 273.312 
L 109.914498 240.642 
L 106.73752 240.642 
z
" style="fill:#1f77b4;opacity:0.5;"/>
   </g>
   <g id="patch_17">
    <path clip-path="url(#pca33a1aa4c)" d="M 109.914498 273.312 
L 113.091477 273.312 
L 113.091477 231.732 
L 109.914498 231.732 
z
" style="fill:#1f77b4;opacity:0.5;"/>
   </g>
   <g id="patch_18">
    <path clip-path="url(#pca33a1aa4c)" d="M 113.091477 273.312 
L 116.268455 273.312 
L 116.268455 217.872 
L 113.091477 217.872 
z
" style="fill:#1f77b4;opacity:0.5;"/>
   </g>
   <g id="patch_19">
    <path clip-path="url(#pca33a1aa4c)" d="M 116.268455 273.312 
L 119.445434 273.312 
L 119.445434 218.862 
L 116.268455 218.862 
z
" style="fill:#1f77b4;opacity:0.5;"/>
   </g>
   <g id="patch_20">
    <path clip-path="url(#pca33a1aa4c)" d="M 119.445434 273.312 
L 122.622412 273.312 
L 122.622412 188.172 
L 119.445434 188.172 
z
" style="fill:#1f77b4;opacity:0.5;"/>
   </g>
   <g id="patch_21">
    <path clip-path="url(#pca33a1aa4c)" d="M 122.622412 273.312 
L 125.799391 273.312 
L 125.799391 170.352 
L 122.622412 170.352 
z
" style="fill:#1f77b4;opacity:0.5;"/>
   </g>
   <g id="patch_22">
    <path clip-path="url(#pca33a1aa4c)" d="M 125.799391 273.312 
L 128.97637 273.312 
L 128.97637 141.642 
L 125.799391 141.642 
z
" style="fill:#1f77b4;opacity:0.5;"/>
   </g>
   <g id="patch_23">
    <path clip-path="url(#pca33a1aa4c)" d="M 128.97637 273.312 
L 132.153348 273.312 
L 132.153348 155.502 
L 128.97637 155.502 
z
" style="fill:#1f77b4;opacity:0.5;"/>
   </g>
   <g id="patch_24">
    <path clip-path="url(#pca33a1aa4c)" d="M 132.153348 273.312 
L 135.330327 273.312 
L 135.330327 142.632 
L 132.153348 142.632 
z
" style="fill:#1f77b4;opacity:0.5;"/>
   </g>
   <g id="patch_25">
    <path clip-path="url(#pca33a1aa4c)" d="M 135.330327 273.312 
L 138.507305 273.312 
L 138.507305 163.422 
L 135.330327 163.422 
z
" style="fill:#1f77b4;opacity:0.5;"/>
   </g>
   <g id="patch_26">
    <path clip-path="url(#pca33a1aa4c)" d="M 138.507305 273.312 
L 141.684284 273.312 
L 141.684284 160.452 
L 138.507305 160.452 
z
" style="fill:#1f77b4;opacity:0.5;"/>
   </g>
   <g id="patch_27">
    <path clip-path="url(#pca33a1aa4c)" d="M 141.684284 273.312 
L 144.861263 273.312 
L 144.861263 139.662 
L 141.684284 139.662 
z
" style="fill:#1f77b4;opacity:0.5;"/>
   </g>
   <g id="patch_28">
    <path clip-path="url(#pca33a1aa4c)" d="M 144.861263 273.312 
L 148.038241 273.312 
L 148.038241 159.462 
L 144.861263 159.462 
z
" style="fill:#1f77b4;opacity:0.5;"/>
   </g>
   <g id="patch_29">
    <path clip-path="url(#pca33a1aa4c)" d="M 148.038241 273.312 
L 151.21522 273.312 
L 151.21522 141.642 
L 148.038241 141.642 
z
" style="fill:#1f77b4;opacity:0.5;"/>
   </g>
   <g id="patch_30">
    <path clip-path="url(#pca33a1aa4c)" d="M 151.21522 273.312 
L 154.392198 273.312 
L 154.392198 106.002 
L 151.21522 106.002 
z
" style="fill:#1f77b4;opacity:0.5;"/>
   </g>
   <g id="patch_31">
    <path clip-path="url(#pca33a1aa4c)" d="M 154.392198 273.312 
L 157.569177 273.312 
L 157.569177 126.792 
L 154.392198 126.792 
z
" style="fill:#1f77b4;opacity:0.5;"/>
   </g>
   <g id="patch_32">
    <path clip-path="url(#pca33a1aa4c)" d="M 157.569177 273.312 
L 160.746155 273.312 
L 160.746155 122.832 
L 157.569177 122.832 
z
" style="fill:#1f77b4;opacity:0.5;"/>
   </g>
   <g id="patch_33">
    <path clip-path="url(#pca33a1aa4c)" d="M 160.746155 273.312 
L 163.923134 273.312 
L 163.923134 85.212 
L 160.746155 85.212 
z
" style="fill:#1f77b4;opacity:0.5;"/>
   </g>
   <g id="patch_34">
    <path clip-path="url(#pca33a1aa4c)" d="M 163.923134 273.312 
L 167.100113 273.312 
L 167.100113 57.492 
L 163.923134 57.492 
z
" style="fill:#1f77b4;opacity:0.5;"/>
   </g>
   <g id="patch_35">
    <path clip-path="url(#pca33a1aa4c)" d="M 167.100113 273.312 
L 170.277091 273.312 
L 170.277091 76.302 
L 167.100113 76.302 
z
" style="fill:#1f77b4;opacity:0.5;"/>
   </g>
   <g id="patch_36">
    <path clip-path="url(#pca33a1aa4c)" d="M 170.277091 273.312 
L 173.45407 273.312 
L 173.45407 57.492 
L 170.277091 57.492 
z
" style="fill:#1f77b4;opacity:0.5;"/>
   </g>
   <g id="patch_37">
    <path clip-path="url(#pca33a1aa4c)" d="M 173.45407 273.312 
L 176.631048 273.312 
L 176.631048 50.562 
L 173.45407 50.562 
z
" style="fill:#1f77b4;opacity:0.5;"/>
   </g>
   <g id="patch_38">
    <path clip-path="url(#pca33a1aa4c)" d="M 176.631048 273.312 
L 179.808027 273.312 
L 179.808027 81.252 
L 176.631048 81.252 
z
" style="fill:#1f77b4;opacity:0.5;"/>
   </g>
   <g id="patch_39">
    <path clip-path="url(#pca33a1aa4c)" d="M 179.808027 273.312 
L 182.985005 273.312 
L 182.985005 52.542 
L 179.808027 52.542 
z
" style="fill:#1f77b4;opacity:0.5;"/>
   </g>
   <g id="patch_40">
    <path clip-path="url(#pca33a1aa4c)" d="M 182.985005 273.312 
L 186.161984 273.312 
L 186.161984 81.252 
L 182.985005 81.252 
z
" style="fill:#1f77b4;opacity:0.5;"/>
   </g>
   <g id="patch_41">
    <path clip-path="url(#pca33a1aa4c)" d="M 186.161984 273.312 
L 189.338963 273.312 
L 189.338963 42.642 
L 186.161984 42.642 
z
" style="fill:#1f77b4;opacity:0.5;"/>
   </g>
   <g id="patch_42">
    <path clip-path="url(#pca33a1aa4c)" d="M 189.338963 273.312 
L 192.515941 273.312 
L 192.515941 66.402 
L 189.338963 66.402 
z
" style="fill:#1f77b4;opacity:0.5;"/>
   </g>
   <g id="patch_43">
    <path clip-path="url(#pca33a1aa4c)" d="M 192.515941 273.312 
L 195.69292 273.312 
L 195.69292 61.452 
L 192.515941 61.452 
z
" style="fill:#1f77b4;opacity:0.5;"/>
   </g>
   <g id="patch_44">
    <path clip-path="url(#pca33a1aa4c)" d="M 195.69292 273.312 
L 198.869898 273.312 
L 198.869898 39.672 
L 195.69292 39.672 
z
" style="fill:#1f77b4;opacity:0.5;"/>
   </g>
   <g id="patch_45">
    <path clip-path="url(#pca33a1aa4c)" d="M 198.869898 273.312 
L 202.046877 273.312 
L 202.046877 57.492 
L 198.869898 57.492 
z
" style="fill:#1f77b4;opacity:0.5;"/>
   </g>
   <g id="patch_46">
    <path clip-path="url(#pca33a1aa4c)" d="M 202.046877 273.312 
L 205.223855 273.312 
L 205.223855 19.872 
L 202.046877 19.872 
z
" style="fill:#1f77b4;opacity:0.5;"/>
   </g>
   <g id="patch_47">
    <path clip-path="url(#pca33a1aa4c)" d="M 205.223855 273.312 
L 208.400834 273.312 
L 208.400834 58.482 
L 205.223855 58.482 
z
" style="fill:#1f77b4;opacity:0.5;"/>
   </g>
   <g id="patch_48">
    <path clip-path="url(#pca33a1aa4c)" d="M 208.400834 273.312 
L 211.577813 273.312 
L 211.577813 69.372 
L 208.400834 69.372 
z
" style="fill:#1f77b4;opacity:0.5;"/>
   </g>
   <g id="patch_49">
    <path clip-path="url(#pca33a1aa4c)" d="M 211.577813 273.312 
L 214.754791 273.312 
L 214.754791 42.642 
L 211.577813 42.642 
z
" style="fill:#1f77b4;opacity:0.5;"/>
   </g>
   <g id="patch_50">
    <path clip-path="url(#pca33a1aa4c)" d="M 214.754791 273.312 
L 217.93177 273.312 
L 217.93177 41.652 
L 214.754791 41.652 
z
" style="fill:#1f77b4;opacity:0.5;"/>
   </g>
   <g id="patch_51">
    <path clip-path="url(#pca33a1aa4c)" d="M 217.93177 273.312 
L 221.108748 273.312 
L 221.108748 72.342 
L 217.93177 72.342 
z
" style="fill:#1f77b4;opacity:0.5;"/>
   </g>
   <g id="patch_52">
    <path clip-path="url(#pca33a1aa4c)" d="M 221.108748 273.312 
L 224.285727 273.312 
L 224.285727 65.412 
L 221.108748 65.412 
z
" style="fill:#1f77b4;opacity:0.5;"/>
   </g>
   <g id="patch_53">
    <path clip-path="url(#pca33a1aa4c)" d="M 224.285727 273.312 
L 227.462706 273.312 
L 227.462706 81.252 
L 224.285727 81.252 
z
" style="fill:#1f77b4;opacity:0.5;"/>
   </g>
   <g id="patch_54">
    <path clip-path="url(#pca33a1aa4c)" d="M 227.462706 273.312 
L 230.639684 273.312 
L 230.639684 85.212 
L 227.462706 85.212 
z
" style="fill:#1f77b4;opacity:0.5;"/>
   </g>
   <g id="patch_55">
    <path clip-path="url(#pca33a1aa4c)" d="M 230.639684 273.312 
L 233.816663 273.312 
L 233.816663 90.162 
L 230.639684 90.162 
z
" style="fill:#1f77b4;opacity:0.5;"/>
   </g>
   <g id="patch_56">
    <path clip-path="url(#pca33a1aa4c)" d="M 233.816663 273.312 
L 236.993641 273.312 
L 236.993641 120.852 
L 233.816663 120.852 
z
" style="fill:#1f77b4;opacity:0.5;"/>
   </g>
   <g id="patch_57">
    <path clip-path="url(#pca33a1aa4c)" d="M 236.993641 273.312 
L 240.17062 273.312 
L 240.17062 120.852 
L 236.993641 120.852 
z
" style="fill:#1f77b4;opacity:0.5;"/>
   </g>
   <g id="patch_58">
    <path clip-path="url(#pca33a1aa4c)" d="M 240.17062 273.312 
L 243.347598 273.312 
L 243.347598 132.732 
L 240.17062 132.732 
z
" style="fill:#1f77b4;opacity:0.5;"/>
   </g>
   <g id="patch_59">
    <path clip-path="url(#pca33a1aa4c)" d="M 243.347598 273.312 
L 246.524577 273.312 
L 246.524577 143.622 
L 243.347598 143.622 
z
" style="fill:#1f77b4;opacity:0.5;"/>
   </g>
   <g id="patch_60">
    <path clip-path="url(#pca33a1aa4c)" d="M 246.524577 273.312 
L 249.701556 273.312 
L 249.701556 148.572 
L 246.524577 148.572 
z
" style="fill:#1f77b4;opacity:0.5;"/>
   </g>
   <g id="patch_61">
    <path clip-path="url(#pca33a1aa4c)" d="M 249.701556 273.312 
L 252.878534 273.312 
L 252.878534 162.432 
L 249.701556 162.432 
z
" style="fill:#1f77b4;opacity:0.5;"/>
   </g>
   <g id="patch_62">
    <path clip-path="url(#pca33a1aa4c)" d="M 252.878534 273.312 
L 256.055513 273.312 
L 256.055513 157.482 
L 252.878534 157.482 
z
" style="fill:#1f77b4;opacity:0.5;"/>
   </g>
   <g id="patch_63">
    <path clip-path="url(#pca33a1aa4c)" d="M 256.055513 273.312 
L 259.232491 273.312 
L 259.232491 142.632 
L 256.055513 142.632 
z
" style="fill:#1f77b4;opacity:0.5;"/>
   </g>
   <g id="patch_64">
    <path clip-path="url(#pca33a1aa4c)" d="M 259.232491 273.312 
L 262.40947 273.312 
L 262.40947 158.472 
L 259.232491 158.472 
z
" style="fill:#1f77b4;opacity:0.5;"/>
   </g>
   <g id="patch_65">
    <path clip-path="url(#pca33a1aa4c)" d="M 262.40947 273.312 
L 265.586448 273.312 
L 265.586448 179.262 
L 262.40947 179.262 
z
" style="fill:#1f77b4;opacity:0.5;"/>
   </g>
   <g id="patch_66">
    <path clip-path="url(#pca33a1aa4c)" d="M 265.586448 273.312 
L 268.763427 273.312 
L 268.763427 168.372 
L 265.586448 168.372 
z
" style="fill:#1f77b4;opacity:0.5;"/>
   </g>
   <g id="patch_67">
    <path clip-path="url(#pca33a1aa4c)" d="M 268.763427 273.312 
L 271.940406 273.312 
L 271.940406 168.372 
L 268.763427 168.372 
z
" style="fill:#1f77b4;opacity:0.5;"/>
   </g>
   <g id="patch_68">
    <path clip-path="url(#pca33a1aa4c)" d="M 271.940406 273.312 
L 275.117384 273.312 
L 275.117384 175.302 
L 271.940406 175.302 
z
" style="fill:#1f77b4;opacity:0.5;"/>
   </g>
   <g id="patch_69">
    <path clip-path="url(#pca33a1aa4c)" d="M 275.117384 273.312 
L 278.294363 273.312 
L 278.294363 197.082 
L 275.117384 197.082 
z
" style="fill:#1f77b4;opacity:0.5;"/>
   </g>
   <g id="patch_70">
    <path clip-path="url(#pca33a1aa4c)" d="M 278.294363 273.312 
L 281.471341 273.312 
L 281.471341 201.042 
L 278.294363 201.042 
z
" style="fill:#1f77b4;opacity:0.5;"/>
   </g>
   <g id="patch_71">
    <path clip-path="url(#pca33a1aa4c)" d="M 281.471341 273.312 
L 284.64832 273.312 
L 284.64832 192.132 
L 281.471341 192.132 
z
" style="fill:#1f77b4;opacity:0.5;"/>
   </g>
   <g id="patch_72">
    <path clip-path="url(#pca33a1aa4c)" d="M 284.64832 273.312 
L 287.825298 273.312 
L 287.825298 201.042 
L 284.64832 201.042 
z
" style="fill:#1f77b4;opacity:0.5;"/>
   </g>
   <g id="patch_73">
    <path clip-path="url(#pca33a1aa4c)" d="M 287.825298 273.312 
L 291.002277 273.312 
L 291.002277 201.042 
L 287.825298 201.042 
z
" style="fill:#1f77b4;opacity:0.5;"/>
   </g>
   <g id="patch_74">
    <path clip-path="url(#pca33a1aa4c)" d="M 291.002277 273.312 
L 294.179256 273.312 
L 294.179256 200.052 
L 291.002277 200.052 
z
" style="fill:#1f77b4;opacity:0.5;"/>
   </g>
   <g id="patch_75">
    <path clip-path="url(#pca33a1aa4c)" d="M 294.179256 273.312 
L 297.356234 273.312 
L 297.356234 203.022 
L 294.179256 203.022 
z
" style="fill:#1f77b4;opacity:0.5;"/>
   </g>
   <g id="patch_76">
    <path clip-path="url(#pca33a1aa4c)" d="M 297.356234 273.312 
L 300.533213 273.312 
L 300.533213 217.872 
L 297.356234 217.872 
z
" style="fill:#1f77b4;opacity:0.5;"/>
   </g>
   <g id="patch_77">
    <path clip-path="url(#pca33a1aa4c)" d="M 300.533213 273.312 
L 303.710191 273.312 
L 303.710191 219.852 
L 300.533213 219.852 
z
" style="fill:#1f77b4;opacity:0.5;"/>
   </g>
   <g id="patch_78">
    <path clip-path="url(#pca33a1aa4c)" d="M 303.710191 273.312 
L 306.88717 273.312 
L 306.88717 214.902 
L 303.710191 214.902 
z
" style="fill:#1f77b4;opacity:0.5;"/>
   </g>
   <g id="patch_79">
    <path clip-path="url(#pca33a1aa4c)" d="M 306.88717 273.312 
L 310.064149 273.312 
L 310.064149 215.892 
L 306.88717 215.892 
z
" style="fill:#1f77b4;opacity:0.5;"/>
   </g>
   <g id="patch_80">
    <path clip-path="url(#pca33a1aa4c)" d="M 310.064149 273.312 
L 313.241127 273.312 
L 313.241127 207.972 
L 310.064149 207.972 
z
" style="fill:#1f77b4;opacity:0.5;"/>
   </g>
   <g id="patch_81">
    <path clip-path="url(#pca33a1aa4c)" d="M 313.241127 273.312 
L 316.418106 273.312 
L 316.418106 224.802 
L 313.241127 224.802 
z
" style="fill:#1f77b4;opacity:0.5;"/>
   </g>
   <g id="patch_82">
    <path clip-path="url(#pca33a1aa4c)" d="M 316.418106 273.312 
L 319.595084 273.312 
L 319.595084 213.912 
L 316.418106 213.912 
z
" style="fill:#1f77b4;opacity:0.5;"/>
   </g>
   <g id="patch_83">
    <path clip-path="url(#pca33a1aa4c)" d="M 319.595084 273.312 
L 322.772063 273.312 
L 322.772063 228.762 
L 319.595084 228.762 
z
" style="fill:#1f77b4;opacity:0.5;"/>
   </g>
   <g id="patch_84">
    <path clip-path="url(#pca33a1aa4c)" d="M 322.772063 273.312 
L 325.949041 273.312 
L 325.949041 238.662 
L 322.772063 238.662 
z
" style="fill:#1f77b4;opacity:0.5;"/>
   </g>
   <g id="patch_85">
    <path clip-path="url(#pca33a1aa4c)" d="M 325.949041 273.312 
L 329.12602 273.312 
L 329.12602 215.892 
L 325.949041 215.892 
z
" style="fill:#1f77b4;opacity:0.5;"/>
   </g>
   <g id="patch_86">
    <path clip-path="url(#pca33a1aa4c)" d="M 329.12602 273.312 
L 332.302999 273.312 
L 332.302999 221.832 
L 329.12602 221.832 
z
" style="fill:#1f77b4;opacity:0.5;"/>
   </g>
   <g id="patch_87">
    <path clip-path="url(#pca33a1aa4c)" d="M 332.302999 273.312 
L 335.479977 273.312 
L 335.479977 232.722 
L 332.302999 232.722 
z
" style="fill:#1f77b4;opacity:0.5;"/>
   </g>
   <g id="patch_88">
    <path clip-path="url(#pca33a1aa4c)" d="M 335.479977 273.312 
L 338.656956 273.312 
L 338.656956 225.792 
L 335.479977 225.792 
z
" style="fill:#1f77b4;opacity:0.5;"/>
   </g>
   <g id="patch_89">
    <path clip-path="url(#pca33a1aa4c)" d="M 338.656956 273.312 
L 341.833934 273.312 
L 341.833934 235.692 
L 338.656956 235.692 
z
" style="fill:#1f77b4;opacity:0.5;"/>
   </g>
   <g id="patch_90">
    <path clip-path="url(#pca33a1aa4c)" d="M 341.833934 273.312 
L 345.010913 273.312 
L 345.010913 241.632 
L 341.833934 241.632 
z
" style="fill:#1f77b4;opacity:0.5;"/>
   </g>
   <g id="patch_91">
    <path clip-path="url(#pca33a1aa4c)" d="M 345.010913 273.312 
L 348.187891 273.312 
L 348.187891 231.732 
L 345.010913 231.732 
z
" style="fill:#1f77b4;opacity:0.5;"/>
   </g>
   <g id="patch_92">
    <path clip-path="url(#pca33a1aa4c)" d="M 348.187891 273.312 
L 351.36487 273.312 
L 351.36487 248.562 
L 348.187891 248.562 
z
" style="fill:#1f77b4;opacity:0.5;"/>
   </g>
   <g id="patch_93">
    <path clip-path="url(#pca33a1aa4c)" d="M 351.36487 273.312 
L 354.541849 273.312 
L 354.541849 250.542 
L 351.36487 250.542 
z
" style="fill:#1f77b4;opacity:0.5;"/>
   </g>
   <g id="patch_94">
    <path clip-path="url(#pca33a1aa4c)" d="M 354.541849 273.312 
L 357.718827 273.312 
L 357.718827 241.632 
L 354.541849 241.632 
z
" style="fill:#1f77b4;opacity:0.5;"/>
   </g>
   <g id="patch_95">
    <path clip-path="url(#pca33a1aa4c)" d="M 357.718827 273.312 
L 360.895806 273.312 
L 360.895806 246.582 
L 357.718827 246.582 
z
" style="fill:#1f77b4;opacity:0.5;"/>
   </g>
   <g id="patch_96">
    <path clip-path="url(#pca33a1aa4c)" d="M 360.895806 273.312 
L 364.072784 273.312 
L 364.072784 248.562 
L 360.895806 248.562 
z
" style="fill:#1f77b4;opacity:0.5;"/>
   </g>
   <g id="patch_97">
    <path clip-path="url(#pca33a1aa4c)" d="M 364.072784 273.312 
L 367.249763 273.312 
L 367.249763 251.532 
L 364.072784 251.532 
z
" style="fill:#1f77b4;opacity:0.5;"/>
   </g>
   <g id="patch_98">
    <path clip-path="url(#pca33a1aa4c)" d="M 367.249763 273.312 
L 370.426741 273.312 
L 370.426741 261.432 
L 367.249763 261.432 
z
" style="fill:#1f77b4;opacity:0.5;"/>
   </g>
   <g id="patch_99">
    <path clip-path="url(#pca33a1aa4c)" d="M 370.426741 273.312 
L 373.60372 273.312 
L 373.60372 254.502 
L 370.426741 254.502 
z
" style="fill:#1f77b4;opacity:0.5;"/>
   </g>
   <g id="patch_100">
    <path clip-path="url(#pca33a1aa4c)" d="M 373.60372 273.312 
L 376.780699 273.312 
L 376.780699 260.442 
L 373.60372 260.442 
z
" style="fill:#1f77b4;opacity:0.5;"/>
   </g>
   <g id="patch_101">
    <path clip-path="url(#pca33a1aa4c)" d="M 376.780699 273.312 
L 379.957677 273.312 
L 379.957677 269.352 
L 376.780699 269.352 
z
" style="fill:#1f77b4;opacity:0.5;"/>
   </g>
   <g id="patch_102">
    <path clip-path="url(#pca33a1aa4c)" d="M 379.957677 273.312 
L 383.134656 273.312 
L 383.134656 269.352 
L 379.957677 269.352 
z
" style="fill:#1f77b4;opacity:0.5;"/>
   </g>
   <g id="matplotlib.axis_1">
    <g id="xtick_1">
     <g id="line2d_1">
      <path clip-path="url(#pca33a1aa4c)" d="M 59.578324 273.312 
L 59.578324 7.2 
" style="fill:none;stroke:#b0b0b0;stroke-linecap:square;stroke-width:0.8;"/>
     </g>
     <g id="line2d_2">
      <defs>
       <path d="M 0 0 
L 0 3.5 
" id="md85381db0e" style="stroke:#000000;stroke-width:0.8;"/>
      </defs>
      <g>
       <use style="stroke:#000000;stroke-width:0.8;" x="59.578324" xlink:href="#md85381db0e" y="273.312"/>
      </g>
     </g>
     <g id="text_1">
      <!-- 0.0 -->
      <g transform="translate(51.626761 287.910437)scale(0.1 -0.1)">
       <defs>
        <path d="M 2034 4250 
Q 1547 4250 1301 3770 
Q 1056 3291 1056 2328 
Q 1056 1369 1301 889 
Q 1547 409 2034 409 
Q 2525 409 2770 889 
Q 3016 1369 3016 2328 
Q 3016 3291 2770 3770 
Q 2525 4250 2034 4250 
z
M 2034 4750 
Q 2819 4750 3233 4129 
Q 3647 3509 3647 2328 
Q 3647 1150 3233 529 
Q 2819 -91 2034 -91 
Q 1250 -91 836 529 
Q 422 1150 422 2328 
Q 422 3509 836 4129 
Q 1250 4750 2034 4750 
z
" id="DejaVuSans-30" transform="scale(0.015625)"/>
        <path d="M 684 794 
L 1344 794 
L 1344 0 
L 684 0 
L 684 794 
z
" id="DejaVuSans-2e" transform="scale(0.015625)"/>
       </defs>
       <use xlink:href="#DejaVuSans-30"/>
       <use x="63.623047" xlink:href="#DejaVuSans-2e"/>
       <use x="95.410156" xlink:href="#DejaVuSans-30"/>
      </g>
     </g>
    </g>
    <g id="xtick_2">
     <g id="line2d_3">
      <path clip-path="url(#pca33a1aa4c)" d="M 111.351016 273.312 
L 111.351016 7.2 
" style="fill:none;stroke:#b0b0b0;stroke-linecap:square;stroke-width:0.8;"/>
     </g>
     <g id="line2d_4">
      <g>
       <use style="stroke:#000000;stroke-width:0.8;" x="111.351016" xlink:href="#md85381db0e" y="273.312"/>
      </g>
     </g>
     <g id="text_2">
      <!-- 0.5 -->
      <g transform="translate(103.399454 287.910437)scale(0.1 -0.1)">
       <defs>
        <path d="M 691 4666 
L 3169 4666 
L 3169 4134 
L 1269 4134 
L 1269 2991 
Q 1406 3038 1543 3061 
Q 1681 3084 1819 3084 
Q 2600 3084 3056 2656 
Q 3513 2228 3513 1497 
Q 3513 744 3044 326 
Q 2575 -91 1722 -91 
Q 1428 -91 1123 -41 
Q 819 9 494 109 
L 494 744 
Q 775 591 1075 516 
Q 1375 441 1709 441 
Q 2250 441 2565 725 
Q 2881 1009 2881 1497 
Q 2881 1984 2565 2268 
Q 2250 2553 1709 2553 
Q 1456 2553 1204 2497 
Q 953 2441 691 2322 
L 691 4666 
z
" id="DejaVuSans-35" transform="scale(0.015625)"/>
       </defs>
       <use xlink:href="#DejaVuSans-30"/>
       <use x="63.623047" xlink:href="#DejaVuSans-2e"/>
       <use x="95.410156" xlink:href="#DejaVuSans-35"/>
      </g>
     </g>
    </g>
    <g id="xtick_3">
     <g id="line2d_5">
      <path clip-path="url(#pca33a1aa4c)" d="M 163.123709 273.312 
L 163.123709 7.2 
" style="fill:none;stroke:#b0b0b0;stroke-linecap:square;stroke-width:0.8;"/>
     </g>
     <g id="line2d_6">
      <g>
       <use style="stroke:#000000;stroke-width:0.8;" x="163.123709" xlink:href="#md85381db0e" y="273.312"/>
      </g>
     </g>
     <g id="text_3">
      <!-- 1.0 -->
      <g transform="translate(155.172147 287.910437)scale(0.1 -0.1)">
       <defs>
        <path d="M 794 531 
L 1825 531 
L 1825 4091 
L 703 3866 
L 703 4441 
L 1819 4666 
L 2450 4666 
L 2450 531 
L 3481 531 
L 3481 0 
L 794 0 
L 794 531 
z
" id="DejaVuSans-31" transform="scale(0.015625)"/>
       </defs>
       <use xlink:href="#DejaVuSans-31"/>
       <use x="63.623047" xlink:href="#DejaVuSans-2e"/>
       <use x="95.410156" xlink:href="#DejaVuSans-30"/>
      </g>
     </g>
    </g>
    <g id="xtick_4">
     <g id="line2d_7">
      <path clip-path="url(#pca33a1aa4c)" d="M 214.896402 273.312 
L 214.896402 7.2 
" style="fill:none;stroke:#b0b0b0;stroke-linecap:square;stroke-width:0.8;"/>
     </g>
     <g id="line2d_8">
      <g>
       <use style="stroke:#000000;stroke-width:0.8;" x="214.896402" xlink:href="#md85381db0e" y="273.312"/>
      </g>
     </g>
     <g id="text_4">
      <!-- 1.5 -->
      <g transform="translate(206.94484 287.910437)scale(0.1 -0.1)">
       <use xlink:href="#DejaVuSans-31"/>
       <use x="63.623047" xlink:href="#DejaVuSans-2e"/>
       <use x="95.410156" xlink:href="#DejaVuSans-35"/>
      </g>
     </g>
    </g>
    <g id="xtick_5">
     <g id="line2d_9">
      <path clip-path="url(#pca33a1aa4c)" d="M 266.669095 273.312 
L 266.669095 7.2 
" style="fill:none;stroke:#b0b0b0;stroke-linecap:square;stroke-width:0.8;"/>
     </g>
     <g id="line2d_10">
      <g>
       <use style="stroke:#000000;stroke-width:0.8;" x="266.669095" xlink:href="#md85381db0e" y="273.312"/>
      </g>
     </g>
     <g id="text_5">
      <!-- 2.0 -->
      <g transform="translate(258.717533 287.910437)scale(0.1 -0.1)">
       <defs>
        <path d="M 1228 531 
L 3431 531 
L 3431 0 
L 469 0 
L 469 531 
Q 828 903 1448 1529 
Q 2069 2156 2228 2338 
Q 2531 2678 2651 2914 
Q 2772 3150 2772 3378 
Q 2772 3750 2511 3984 
Q 2250 4219 1831 4219 
Q 1534 4219 1204 4116 
Q 875 4013 500 3803 
L 500 4441 
Q 881 4594 1212 4672 
Q 1544 4750 1819 4750 
Q 2544 4750 2975 4387 
Q 3406 4025 3406 3419 
Q 3406 3131 3298 2873 
Q 3191 2616 2906 2266 
Q 2828 2175 2409 1742 
Q 1991 1309 1228 531 
z
" id="DejaVuSans-32" transform="scale(0.015625)"/>
       </defs>
       <use xlink:href="#DejaVuSans-32"/>
       <use x="63.623047" xlink:href="#DejaVuSans-2e"/>
       <use x="95.410156" xlink:href="#DejaVuSans-30"/>
      </g>
     </g>
    </g>
    <g id="xtick_6">
     <g id="line2d_11">
      <path clip-path="url(#pca33a1aa4c)" d="M 318.441788 273.312 
L 318.441788 7.2 
" style="fill:none;stroke:#b0b0b0;stroke-linecap:square;stroke-width:0.8;"/>
     </g>
     <g id="line2d_12">
      <g>
       <use style="stroke:#000000;stroke-width:0.8;" x="318.441788" xlink:href="#md85381db0e" y="273.312"/>
      </g>
     </g>
     <g id="text_6">
      <!-- 2.5 -->
      <g transform="translate(310.490225 287.910437)scale(0.1 -0.1)">
       <use xlink:href="#DejaVuSans-32"/>
       <use x="63.623047" xlink:href="#DejaVuSans-2e"/>
       <use x="95.410156" xlink:href="#DejaVuSans-35"/>
      </g>
     </g>
    </g>
    <g id="xtick_7">
     <g id="line2d_13">
      <path clip-path="url(#pca33a1aa4c)" d="M 370.214481 273.312 
L 370.214481 7.2 
" style="fill:none;stroke:#b0b0b0;stroke-linecap:square;stroke-width:0.8;"/>
     </g>
     <g id="line2d_14">
      <g>
       <use style="stroke:#000000;stroke-width:0.8;" x="370.214481" xlink:href="#md85381db0e" y="273.312"/>
      </g>
     </g>
     <g id="text_7">
      <!-- 3.0 -->
      <g transform="translate(362.262918 287.910437)scale(0.1 -0.1)">
       <defs>
        <path d="M 2597 2516 
Q 3050 2419 3304 2112 
Q 3559 1806 3559 1356 
Q 3559 666 3084 287 
Q 2609 -91 1734 -91 
Q 1441 -91 1130 -33 
Q 819 25 488 141 
L 488 750 
Q 750 597 1062 519 
Q 1375 441 1716 441 
Q 2309 441 2620 675 
Q 2931 909 2931 1356 
Q 2931 1769 2642 2001 
Q 2353 2234 1838 2234 
L 1294 2234 
L 1294 2753 
L 1863 2753 
Q 2328 2753 2575 2939 
Q 2822 3125 2822 3475 
Q 2822 3834 2567 4026 
Q 2313 4219 1838 4219 
Q 1578 4219 1281 4162 
Q 984 4106 628 3988 
L 628 4550 
Q 988 4650 1302 4700 
Q 1616 4750 1894 4750 
Q 2613 4750 3031 4423 
Q 3450 4097 3450 3541 
Q 3450 3153 3228 2886 
Q 3006 2619 2597 2516 
z
" id="DejaVuSans-33" transform="scale(0.015625)"/>
       </defs>
       <use xlink:href="#DejaVuSans-33"/>
       <use x="63.623047" xlink:href="#DejaVuSans-2e"/>
       <use x="95.410156" xlink:href="#DejaVuSans-30"/>
      </g>
     </g>
    </g>
    <g id="text_8">
     <!-- theta_gamma_pi0_vs_pi0 -->
     <g transform="translate(159.015469 301.588562)scale(0.1 -0.1)">
      <defs>
       <path d="M 1172 4494 
L 1172 3500 
L 2356 3500 
L 2356 3053 
L 1172 3053 
L 1172 1153 
Q 1172 725 1289 603 
Q 1406 481 1766 481 
L 2356 481 
L 2356 0 
L 1766 0 
Q 1100 0 847 248 
Q 594 497 594 1153 
L 594 3053 
L 172 3053 
L 172 3500 
L 594 3500 
L 594 4494 
L 1172 4494 
z
" id="DejaVuSans-74" transform="scale(0.015625)"/>
       <path d="M 3513 2113 
L 3513 0 
L 2938 0 
L 2938 2094 
Q 2938 2591 2744 2837 
Q 2550 3084 2163 3084 
Q 1697 3084 1428 2787 
Q 1159 2491 1159 1978 
L 1159 0 
L 581 0 
L 581 4863 
L 1159 4863 
L 1159 2956 
Q 1366 3272 1645 3428 
Q 1925 3584 2291 3584 
Q 2894 3584 3203 3211 
Q 3513 2838 3513 2113 
z
" id="DejaVuSans-68" transform="scale(0.015625)"/>
       <path d="M 3597 1894 
L 3597 1613 
L 953 1613 
Q 991 1019 1311 708 
Q 1631 397 2203 397 
Q 2534 397 2845 478 
Q 3156 559 3463 722 
L 3463 178 
Q 3153 47 2828 -22 
Q 2503 -91 2169 -91 
Q 1331 -91 842 396 
Q 353 884 353 1716 
Q 353 2575 817 3079 
Q 1281 3584 2069 3584 
Q 2775 3584 3186 3129 
Q 3597 2675 3597 1894 
z
M 3022 2063 
Q 3016 2534 2758 2815 
Q 2500 3097 2075 3097 
Q 1594 3097 1305 2825 
Q 1016 2553 972 2059 
L 3022 2063 
z
" id="DejaVuSans-65" transform="scale(0.015625)"/>
       <path d="M 2194 1759 
Q 1497 1759 1228 1600 
Q 959 1441 959 1056 
Q 959 750 1161 570 
Q 1363 391 1709 391 
Q 2188 391 2477 730 
Q 2766 1069 2766 1631 
L 2766 1759 
L 2194 1759 
z
M 3341 1997 
L 3341 0 
L 2766 0 
L 2766 531 
Q 2569 213 2275 61 
Q 1981 -91 1556 -91 
Q 1019 -91 701 211 
Q 384 513 384 1019 
Q 384 1609 779 1909 
Q 1175 2209 1959 2209 
L 2766 2209 
L 2766 2266 
Q 2766 2663 2505 2880 
Q 2244 3097 1772 3097 
Q 1472 3097 1187 3025 
Q 903 2953 641 2809 
L 641 3341 
Q 956 3463 1253 3523 
Q 1550 3584 1831 3584 
Q 2591 3584 2966 3190 
Q 3341 2797 3341 1997 
z
" id="DejaVuSans-61" transform="scale(0.015625)"/>
       <path d="M 3263 -1063 
L 3263 -1509 
L -63 -1509 
L -63 -1063 
L 3263 -1063 
z
" id="DejaVuSans-5f" transform="scale(0.015625)"/>
       <path d="M 2906 1791 
Q 2906 2416 2648 2759 
Q 2391 3103 1925 3103 
Q 1463 3103 1205 2759 
Q 947 2416 947 1791 
Q 947 1169 1205 825 
Q 1463 481 1925 481 
Q 2391 481 2648 825 
Q 2906 1169 2906 1791 
z
M 3481 434 
Q 3481 -459 3084 -895 
Q 2688 -1331 1869 -1331 
Q 1566 -1331 1297 -1286 
Q 1028 -1241 775 -1147 
L 775 -588 
Q 1028 -725 1275 -790 
Q 1522 -856 1778 -856 
Q 2344 -856 2625 -561 
Q 2906 -266 2906 331 
L 2906 616 
Q 2728 306 2450 153 
Q 2172 0 1784 0 
Q 1141 0 747 490 
Q 353 981 353 1791 
Q 353 2603 747 3093 
Q 1141 3584 1784 3584 
Q 2172 3584 2450 3431 
Q 2728 3278 2906 2969 
L 2906 3500 
L 3481 3500 
L 3481 434 
z
" id="DejaVuSans-67" transform="scale(0.015625)"/>
       <path d="M 3328 2828 
Q 3544 3216 3844 3400 
Q 4144 3584 4550 3584 
Q 5097 3584 5394 3201 
Q 5691 2819 5691 2113 
L 5691 0 
L 5113 0 
L 5113 2094 
Q 5113 2597 4934 2840 
Q 4756 3084 4391 3084 
Q 3944 3084 3684 2787 
Q 3425 2491 3425 1978 
L 3425 0 
L 2847 0 
L 2847 2094 
Q 2847 2600 2669 2842 
Q 2491 3084 2119 3084 
Q 1678 3084 1418 2786 
Q 1159 2488 1159 1978 
L 1159 0 
L 581 0 
L 581 3500 
L 1159 3500 
L 1159 2956 
Q 1356 3278 1631 3431 
Q 1906 3584 2284 3584 
Q 2666 3584 2933 3390 
Q 3200 3197 3328 2828 
z
" id="DejaVuSans-6d" transform="scale(0.015625)"/>
       <path d="M 1159 525 
L 1159 -1331 
L 581 -1331 
L 581 3500 
L 1159 3500 
L 1159 2969 
Q 1341 3281 1617 3432 
Q 1894 3584 2278 3584 
Q 2916 3584 3314 3078 
Q 3713 2572 3713 1747 
Q 3713 922 3314 415 
Q 2916 -91 2278 -91 
Q 1894 -91 1617 61 
Q 1341 213 1159 525 
z
M 3116 1747 
Q 3116 2381 2855 2742 
Q 2594 3103 2138 3103 
Q 1681 3103 1420 2742 
Q 1159 2381 1159 1747 
Q 1159 1113 1420 752 
Q 1681 391 2138 391 
Q 2594 391 2855 752 
Q 3116 1113 3116 1747 
z
" id="DejaVuSans-70" transform="scale(0.015625)"/>
       <path d="M 603 3500 
L 1178 3500 
L 1178 0 
L 603 0 
L 603 3500 
z
M 603 4863 
L 1178 4863 
L 1178 4134 
L 603 4134 
L 603 4863 
z
" id="DejaVuSans-69" transform="scale(0.015625)"/>
       <path d="M 191 3500 
L 800 3500 
L 1894 563 
L 2988 3500 
L 3597 3500 
L 2284 0 
L 1503 0 
L 191 3500 
z
" id="DejaVuSans-76" transform="scale(0.015625)"/>
       <path d="M 2834 3397 
L 2834 2853 
Q 2591 2978 2328 3040 
Q 2066 3103 1784 3103 
Q 1356 3103 1142 2972 
Q 928 2841 928 2578 
Q 928 2378 1081 2264 
Q 1234 2150 1697 2047 
L 1894 2003 
Q 2506 1872 2764 1633 
Q 3022 1394 3022 966 
Q 3022 478 2636 193 
Q 2250 -91 1575 -91 
Q 1294 -91 989 -36 
Q 684 19 347 128 
L 347 722 
Q 666 556 975 473 
Q 1284 391 1588 391 
Q 1994 391 2212 530 
Q 2431 669 2431 922 
Q 2431 1156 2273 1281 
Q 2116 1406 1581 1522 
L 1381 1569 
Q 847 1681 609 1914 
Q 372 2147 372 2553 
Q 372 3047 722 3315 
Q 1072 3584 1716 3584 
Q 2034 3584 2315 3537 
Q 2597 3491 2834 3397 
z
" id="DejaVuSans-73" transform="scale(0.015625)"/>
      </defs>
      <use xlink:href="#DejaVuSans-74"/>
      <use x="39.208984" xlink:href="#DejaVuSans-68"/>
      <use x="102.587891" xlink:href="#DejaVuSans-65"/>
      <use x="164.111328" xlink:href="#DejaVuSans-74"/>
      <use x="203.320312" xlink:href="#DejaVuSans-61"/>
      <use x="264.599609" xlink:href="#DejaVuSans-5f"/>
      <use x="314.599609" xlink:href="#DejaVuSans-67"/>
      <use x="378.076172" xlink:href="#DejaVuSans-61"/>
      <use x="439.355469" xlink:href="#DejaVuSans-6d"/>
      <use x="536.767578" xlink:href="#DejaVuSans-6d"/>
      <use x="634.179688" xlink:href="#DejaVuSans-61"/>
      <use x="695.458984" xlink:href="#DejaVuSans-5f"/>
      <use x="745.458984" xlink:href="#DejaVuSans-70"/>
      <use x="808.935547" xlink:href="#DejaVuSans-69"/>
      <use x="836.71875" xlink:href="#DejaVuSans-30"/>
      <use x="900.341797" xlink:href="#DejaVuSans-5f"/>
      <use x="950.341797" xlink:href="#DejaVuSans-76"/>
      <use x="1009.521484" xlink:href="#DejaVuSans-73"/>
      <use x="1061.621094" xlink:href="#DejaVuSans-5f"/>
      <use x="1111.621094" xlink:href="#DejaVuSans-70"/>
      <use x="1175.097656" xlink:href="#DejaVuSans-69"/>
      <use x="1202.880859" xlink:href="#DejaVuSans-30"/>
     </g>
    </g>
   </g>
   <g id="matplotlib.axis_2">
    <g id="ytick_1">
     <g id="line2d_15">
      <path clip-path="url(#pca33a1aa4c)" d="M 43.78125 273.312 
L 400.90125 273.312 
" style="fill:none;stroke:#b0b0b0;stroke-linecap:square;stroke-width:0.8;"/>
     </g>
     <g id="line2d_16">
      <defs>
       <path d="M 0 0 
L -3.5 0 
" id="mfbb3743571" style="stroke:#000000;stroke-width:0.8;"/>
      </defs>
      <g>
       <use style="stroke:#000000;stroke-width:0.8;" x="43.78125" xlink:href="#mfbb3743571" y="273.312"/>
      </g>
     </g>
     <g id="text_9">
      <!-- 0.0 -->
      <g transform="translate(20.878125 277.111219)scale(0.1 -0.1)">
       <use xlink:href="#DejaVuSans-30"/>
       <use x="63.623047" xlink:href="#DejaVuSans-2e"/>
       <use x="95.410156" xlink:href="#DejaVuSans-30"/>
      </g>
     </g>
    </g>
    <g id="ytick_2">
     <g id="line2d_17">
      <path clip-path="url(#pca33a1aa4c)" d="M 43.78125 242.936829 
L 400.90125 242.936829 
" style="fill:none;stroke:#b0b0b0;stroke-linecap:square;stroke-width:0.8;"/>
     </g>
     <g id="line2d_18">
      <g>
       <use style="stroke:#000000;stroke-width:0.8;" x="43.78125" xlink:href="#mfbb3743571" y="242.936829"/>
      </g>
     </g>
     <g id="text_10">
      <!-- 0.1 -->
      <g transform="translate(20.878125 246.736048)scale(0.1 -0.1)">
       <use xlink:href="#DejaVuSans-30"/>
       <use x="63.623047" xlink:href="#DejaVuSans-2e"/>
       <use x="95.410156" xlink:href="#DejaVuSans-31"/>
      </g>
     </g>
    </g>
    <g id="ytick_3">
     <g id="line2d_19">
      <path clip-path="url(#pca33a1aa4c)" d="M 43.78125 212.561658 
L 400.90125 212.561658 
" style="fill:none;stroke:#b0b0b0;stroke-linecap:square;stroke-width:0.8;"/>
     </g>
     <g id="line2d_20">
      <g>
       <use style="stroke:#000000;stroke-width:0.8;" x="43.78125" xlink:href="#mfbb3743571" y="212.561658"/>
      </g>
     </g>
     <g id="text_11">
      <!-- 0.2 -->
      <g transform="translate(20.878125 216.360877)scale(0.1 -0.1)">
       <use xlink:href="#DejaVuSans-30"/>
       <use x="63.623047" xlink:href="#DejaVuSans-2e"/>
       <use x="95.410156" xlink:href="#DejaVuSans-32"/>
      </g>
     </g>
    </g>
    <g id="ytick_4">
     <g id="line2d_21">
      <path clip-path="url(#pca33a1aa4c)" d="M 43.78125 182.186487 
L 400.90125 182.186487 
" style="fill:none;stroke:#b0b0b0;stroke-linecap:square;stroke-width:0.8;"/>
     </g>
     <g id="line2d_22">
      <g>
       <use style="stroke:#000000;stroke-width:0.8;" x="43.78125" xlink:href="#mfbb3743571" y="182.186487"/>
      </g>
     </g>
     <g id="text_12">
      <!-- 0.3 -->
      <g transform="translate(20.878125 185.985706)scale(0.1 -0.1)">
       <use xlink:href="#DejaVuSans-30"/>
       <use x="63.623047" xlink:href="#DejaVuSans-2e"/>
       <use x="95.410156" xlink:href="#DejaVuSans-33"/>
      </g>
     </g>
    </g>
    <g id="ytick_5">
     <g id="line2d_23">
      <path clip-path="url(#pca33a1aa4c)" d="M 43.78125 151.811316 
L 400.90125 151.811316 
" style="fill:none;stroke:#b0b0b0;stroke-linecap:square;stroke-width:0.8;"/>
     </g>
     <g id="line2d_24">
      <g>
       <use style="stroke:#000000;stroke-width:0.8;" x="43.78125" xlink:href="#mfbb3743571" y="151.811316"/>
      </g>
     </g>
     <g id="text_13">
      <!-- 0.4 -->
      <g transform="translate(20.878125 155.610535)scale(0.1 -0.1)">
       <defs>
        <path d="M 2419 4116 
L 825 1625 
L 2419 1625 
L 2419 4116 
z
M 2253 4666 
L 3047 4666 
L 3047 1625 
L 3713 1625 
L 3713 1100 
L 3047 1100 
L 3047 0 
L 2419 0 
L 2419 1100 
L 313 1100 
L 313 1709 
L 2253 4666 
z
" id="DejaVuSans-34" transform="scale(0.015625)"/>
       </defs>
       <use xlink:href="#DejaVuSans-30"/>
       <use x="63.623047" xlink:href="#DejaVuSans-2e"/>
       <use x="95.410156" xlink:href="#DejaVuSans-34"/>
      </g>
     </g>
    </g>
    <g id="ytick_6">
     <g id="line2d_25">
      <path clip-path="url(#pca33a1aa4c)" d="M 43.78125 121.436145 
L 400.90125 121.436145 
" style="fill:none;stroke:#b0b0b0;stroke-linecap:square;stroke-width:0.8;"/>
     </g>
     <g id="line2d_26">
      <g>
       <use style="stroke:#000000;stroke-width:0.8;" x="43.78125" xlink:href="#mfbb3743571" y="121.436145"/>
      </g>
     </g>
     <g id="text_14">
      <!-- 0.5 -->
      <g transform="translate(20.878125 125.235364)scale(0.1 -0.1)">
       <use xlink:href="#DejaVuSans-30"/>
       <use x="63.623047" xlink:href="#DejaVuSans-2e"/>
       <use x="95.410156" xlink:href="#DejaVuSans-35"/>
      </g>
     </g>
    </g>
    <g id="ytick_7">
     <g id="line2d_27">
      <path clip-path="url(#pca33a1aa4c)" d="M 43.78125 91.060974 
L 400.90125 91.060974 
" style="fill:none;stroke:#b0b0b0;stroke-linecap:square;stroke-width:0.8;"/>
     </g>
     <g id="line2d_28">
      <g>
       <use style="stroke:#000000;stroke-width:0.8;" x="43.78125" xlink:href="#mfbb3743571" y="91.060974"/>
      </g>
     </g>
     <g id="text_15">
      <!-- 0.6 -->
      <g transform="translate(20.878125 94.860193)scale(0.1 -0.1)">
       <defs>
        <path d="M 2113 2584 
Q 1688 2584 1439 2293 
Q 1191 2003 1191 1497 
Q 1191 994 1439 701 
Q 1688 409 2113 409 
Q 2538 409 2786 701 
Q 3034 994 3034 1497 
Q 3034 2003 2786 2293 
Q 2538 2584 2113 2584 
z
M 3366 4563 
L 3366 3988 
Q 3128 4100 2886 4159 
Q 2644 4219 2406 4219 
Q 1781 4219 1451 3797 
Q 1122 3375 1075 2522 
Q 1259 2794 1537 2939 
Q 1816 3084 2150 3084 
Q 2853 3084 3261 2657 
Q 3669 2231 3669 1497 
Q 3669 778 3244 343 
Q 2819 -91 2113 -91 
Q 1303 -91 875 529 
Q 447 1150 447 2328 
Q 447 3434 972 4092 
Q 1497 4750 2381 4750 
Q 2619 4750 2861 4703 
Q 3103 4656 3366 4563 
z
" id="DejaVuSans-36" transform="scale(0.015625)"/>
       </defs>
       <use xlink:href="#DejaVuSans-30"/>
       <use x="63.623047" xlink:href="#DejaVuSans-2e"/>
       <use x="95.410156" xlink:href="#DejaVuSans-36"/>
      </g>
     </g>
    </g>
    <g id="ytick_8">
     <g id="line2d_29">
      <path clip-path="url(#pca33a1aa4c)" d="M 43.78125 60.685803 
L 400.90125 60.685803 
" style="fill:none;stroke:#b0b0b0;stroke-linecap:square;stroke-width:0.8;"/>
     </g>
     <g id="line2d_30">
      <g>
       <use style="stroke:#000000;stroke-width:0.8;" x="43.78125" xlink:href="#mfbb3743571" y="60.685803"/>
      </g>
     </g>
     <g id="text_16">
      <!-- 0.7 -->
      <g transform="translate(20.878125 64.485022)scale(0.1 -0.1)">
       <defs>
        <path d="M 525 4666 
L 3525 4666 
L 3525 4397 
L 1831 0 
L 1172 0 
L 2766 4134 
L 525 4134 
L 525 4666 
z
" id="DejaVuSans-37" transform="scale(0.015625)"/>
       </defs>
       <use xlink:href="#DejaVuSans-30"/>
       <use x="63.623047" xlink:href="#DejaVuSans-2e"/>
       <use x="95.410156" xlink:href="#DejaVuSans-37"/>
      </g>
     </g>
    </g>
    <g id="ytick_9">
     <g id="line2d_31">
      <path clip-path="url(#pca33a1aa4c)" d="M 43.78125 30.310633 
L 400.90125 30.310633 
" style="fill:none;stroke:#b0b0b0;stroke-linecap:square;stroke-width:0.8;"/>
     </g>
     <g id="line2d_32">
      <g>
       <use style="stroke:#000000;stroke-width:0.8;" x="43.78125" xlink:href="#mfbb3743571" y="30.310633"/>
      </g>
     </g>
     <g id="text_17">
      <!-- 0.8 -->
      <g transform="translate(20.878125 34.109851)scale(0.1 -0.1)">
       <defs>
        <path d="M 2034 2216 
Q 1584 2216 1326 1975 
Q 1069 1734 1069 1313 
Q 1069 891 1326 650 
Q 1584 409 2034 409 
Q 2484 409 2743 651 
Q 3003 894 3003 1313 
Q 3003 1734 2745 1975 
Q 2488 2216 2034 2216 
z
M 1403 2484 
Q 997 2584 770 2862 
Q 544 3141 544 3541 
Q 544 4100 942 4425 
Q 1341 4750 2034 4750 
Q 2731 4750 3128 4425 
Q 3525 4100 3525 3541 
Q 3525 3141 3298 2862 
Q 3072 2584 2669 2484 
Q 3125 2378 3379 2068 
Q 3634 1759 3634 1313 
Q 3634 634 3220 271 
Q 2806 -91 2034 -91 
Q 1263 -91 848 271 
Q 434 634 434 1313 
Q 434 1759 690 2068 
Q 947 2378 1403 2484 
z
M 1172 3481 
Q 1172 3119 1398 2916 
Q 1625 2713 2034 2713 
Q 2441 2713 2670 2916 
Q 2900 3119 2900 3481 
Q 2900 3844 2670 4047 
Q 2441 4250 2034 4250 
Q 1625 4250 1398 4047 
Q 1172 3844 1172 3481 
z
" id="DejaVuSans-38" transform="scale(0.015625)"/>
       </defs>
       <use xlink:href="#DejaVuSans-30"/>
       <use x="63.623047" xlink:href="#DejaVuSans-2e"/>
       <use x="95.410156" xlink:href="#DejaVuSans-38"/>
      </g>
     </g>
    </g>
    <g id="text_18">
     <!-- normalized intensity -->
     <g transform="translate(14.798438 191.305219)rotate(-90)scale(0.1 -0.1)">
      <defs>
       <path d="M 3513 2113 
L 3513 0 
L 2938 0 
L 2938 2094 
Q 2938 2591 2744 2837 
Q 2550 3084 2163 3084 
Q 1697 3084 1428 2787 
Q 1159 2491 1159 1978 
L 1159 0 
L 581 0 
L 581 3500 
L 1159 3500 
L 1159 2956 
Q 1366 3272 1645 3428 
Q 1925 3584 2291 3584 
Q 2894 3584 3203 3211 
Q 3513 2838 3513 2113 
z
" id="DejaVuSans-6e" transform="scale(0.015625)"/>
       <path d="M 1959 3097 
Q 1497 3097 1228 2736 
Q 959 2375 959 1747 
Q 959 1119 1226 758 
Q 1494 397 1959 397 
Q 2419 397 2687 759 
Q 2956 1122 2956 1747 
Q 2956 2369 2687 2733 
Q 2419 3097 1959 3097 
z
M 1959 3584 
Q 2709 3584 3137 3096 
Q 3566 2609 3566 1747 
Q 3566 888 3137 398 
Q 2709 -91 1959 -91 
Q 1206 -91 779 398 
Q 353 888 353 1747 
Q 353 2609 779 3096 
Q 1206 3584 1959 3584 
z
" id="DejaVuSans-6f" transform="scale(0.015625)"/>
       <path d="M 2631 2963 
Q 2534 3019 2420 3045 
Q 2306 3072 2169 3072 
Q 1681 3072 1420 2755 
Q 1159 2438 1159 1844 
L 1159 0 
L 581 0 
L 581 3500 
L 1159 3500 
L 1159 2956 
Q 1341 3275 1631 3429 
Q 1922 3584 2338 3584 
Q 2397 3584 2469 3576 
Q 2541 3569 2628 3553 
L 2631 2963 
z
" id="DejaVuSans-72" transform="scale(0.015625)"/>
       <path d="M 603 4863 
L 1178 4863 
L 1178 0 
L 603 0 
L 603 4863 
z
" id="DejaVuSans-6c" transform="scale(0.015625)"/>
       <path d="M 353 3500 
L 3084 3500 
L 3084 2975 
L 922 459 
L 3084 459 
L 3084 0 
L 275 0 
L 275 525 
L 2438 3041 
L 353 3041 
L 353 3500 
z
" id="DejaVuSans-7a" transform="scale(0.015625)"/>
       <path d="M 2906 2969 
L 2906 4863 
L 3481 4863 
L 3481 0 
L 2906 0 
L 2906 525 
Q 2725 213 2448 61 
Q 2172 -91 1784 -91 
Q 1150 -91 751 415 
Q 353 922 353 1747 
Q 353 2572 751 3078 
Q 1150 3584 1784 3584 
Q 2172 3584 2448 3432 
Q 2725 3281 2906 2969 
z
M 947 1747 
Q 947 1113 1208 752 
Q 1469 391 1925 391 
Q 2381 391 2643 752 
Q 2906 1113 2906 1747 
Q 2906 2381 2643 2742 
Q 2381 3103 1925 3103 
Q 1469 3103 1208 2742 
Q 947 2381 947 1747 
z
" id="DejaVuSans-64" transform="scale(0.015625)"/>
       <path id="DejaVuSans-20" transform="scale(0.015625)"/>
       <path d="M 2059 -325 
Q 1816 -950 1584 -1140 
Q 1353 -1331 966 -1331 
L 506 -1331 
L 506 -850 
L 844 -850 
Q 1081 -850 1212 -737 
Q 1344 -625 1503 -206 
L 1606 56 
L 191 3500 
L 800 3500 
L 1894 763 
L 2988 3500 
L 3597 3500 
L 2059 -325 
z
" id="DejaVuSans-79" transform="scale(0.015625)"/>
      </defs>
      <use xlink:href="#DejaVuSans-6e"/>
      <use x="63.378906" xlink:href="#DejaVuSans-6f"/>
      <use x="124.560547" xlink:href="#DejaVuSans-72"/>
      <use x="163.923828" xlink:href="#DejaVuSans-6d"/>
      <use x="261.335938" xlink:href="#DejaVuSans-61"/>
      <use x="322.615234" xlink:href="#DejaVuSans-6c"/>
      <use x="350.398438" xlink:href="#DejaVuSans-69"/>
      <use x="378.181641" xlink:href="#DejaVuSans-7a"/>
      <use x="430.671875" xlink:href="#DejaVuSans-65"/>
      <use x="492.195312" xlink:href="#DejaVuSans-64"/>
      <use x="555.671875" xlink:href="#DejaVuSans-20"/>
      <use x="587.458984" xlink:href="#DejaVuSans-69"/>
      <use x="615.242188" xlink:href="#DejaVuSans-6e"/>
      <use x="678.621094" xlink:href="#DejaVuSans-74"/>
      <use x="717.830078" xlink:href="#DejaVuSans-65"/>
      <use x="779.353516" xlink:href="#DejaVuSans-6e"/>
      <use x="842.732422" xlink:href="#DejaVuSans-73"/>
      <use x="894.832031" xlink:href="#DejaVuSans-69"/>
      <use x="922.615234" xlink:href="#DejaVuSans-74"/>
      <use x="961.824219" xlink:href="#DejaVuSans-79"/>
     </g>
    </g>
   </g>
   <g id="patch_103">
    <path clip-path="url(#pca33a1aa4c)" d="M 60.013977 273.312 
L 60.013977 272.026686 
L 63.260523 272.026686 
L 63.260523 271.627324 
L 66.507068 271.627324 
L 66.507068 271.121234 
L 69.753614 271.121234 
L 69.753614 268.149361 
L 73.000159 268.149361 
L 73.000159 267.411999 
L 76.246705 267.411999 
L 76.246705 265.365706 
L 79.49325 265.365706 
L 79.49325 265.708449 
L 82.739795 265.708449 
L 82.739795 265.574813 
L 85.986341 265.574813 
L 85.986341 262.25418 
L 89.232886 262.25418 
L 89.232886 260.182725 
L 92.479432 260.182725 
L 92.479432 256.156745 
L 95.725977 256.156745 
L 95.725977 253.900901 
L 98.972523 253.900901 
L 98.972523 252.543291 
L 102.219068 252.543291 
L 102.219068 245.342275 
L 105.465614 245.342275 
L 105.465614 234.832316 
L 108.712159 234.832316 
L 108.712159 234.191182 
L 111.958705 234.191182 
L 111.958705 228.436749 
L 115.20525 228.436749 
L 115.20525 214.069556 
L 118.451795 214.069556 
L 118.451795 190.121118 
L 121.698341 190.121118 
L 121.698341 181.520374 
L 124.944886 181.520374 
L 124.944886 152.308816 
L 128.191432 152.308816 
L 128.191432 147.154966 
L 131.437977 147.154966 
L 131.437977 137.361313 
L 134.684523 137.361313 
L 134.684523 145.74009 
L 137.931068 145.74009 
L 137.931068 141.677895 
L 141.177614 141.677895 
L 141.177614 141.849447 
L 144.424159 141.849447 
L 144.424159 151.089663 
L 147.670705 151.089663 
L 147.670705 149.679894 
L 150.91725 149.679894 
L 150.91725 121.695389 
L 154.163795 121.695389 
L 154.163795 132.33317 
L 157.410341 132.33317 
L 157.410341 112.967452 
L 160.656886 112.967452 
L 160.656886 85.121062 
L 163.903432 85.121062 
L 163.903432 64.702428 
L 167.149977 64.702428 
L 167.149977 69.067572 
L 170.396523 69.067572 
L 170.396523 64.263565 
L 173.643068 64.263565 
L 173.643068 49.264361 
L 176.889614 49.264361 
L 176.889614 71.127014 
L 180.136159 71.127014 
L 180.136159 55.113239 
L 183.382705 55.113239 
L 183.382705 58.643963 
L 186.62925 58.643963 
L 186.62925 41.71634 
L 189.875795 41.71634 
L 189.875795 57.477862 
L 193.122341 57.477862 
L 193.122341 62.495804 
L 196.368886 62.495804 
L 196.368886 52.747821 
L 199.615432 52.747821 
L 199.615432 51.711398 
L 202.861977 51.711398 
L 202.861977 44.451099 
L 206.108523 44.451099 
L 206.108523 54.250139 
L 209.355068 54.250139 
L 209.355068 54.020589 
L 212.601614 54.020589 
L 212.601614 58.217525 
L 215.848159 58.217525 
L 215.848159 74.814617 
L 219.094705 74.814617 
L 219.094705 77.594026 
L 222.34125 77.594026 
L 222.34125 75.231665 
L 225.587795 75.231665 
L 225.587795 89.980068 
L 228.834341 89.980068 
L 228.834341 101.235879 
L 232.080886 101.235879 
L 232.080886 105.542101 
L 235.327432 105.542101 
L 235.327432 116.15813 
L 238.573977 116.15813 
L 238.573977 132.743191 
L 241.820523 132.743191 
L 241.820523 130.674848 
L 245.067068 130.674848 
L 245.067068 144.658989 
L 248.313614 144.658989 
L 248.313614 140.4888 
L 251.560159 140.4888 
L 251.560159 150.367874 
L 254.806705 150.367874 
L 254.806705 151.953445 
L 258.05325 151.953445 
L 258.05325 150.094881 
L 261.299795 150.094881 
L 261.299795 165.300401 
L 264.546341 165.300401 
L 264.546341 172.484068 
L 267.792886 172.484068 
L 267.792886 181.660335 
L 271.039432 181.660335 
L 271.039432 176.04684 
L 274.285977 176.04684 
L 274.285977 186.274392 
L 277.532523 186.274392 
L 277.532523 189.583455 
L 280.779068 189.583455 
L 280.779068 189.94514 
L 284.025614 189.94514 
L 284.025614 197.938385 
L 287.272159 197.938385 
L 287.272159 201.740354 
L 290.518705 201.740354 
L 290.518705 211.087699 
L 293.76525 211.087699 
L 293.76525 206.440234 
L 297.011795 206.440234 
L 297.011795 215.017741 
L 300.258341 215.017741 
L 300.258341 215.241957 
L 303.504886 215.241957 
L 303.504886 216.37234 
L 306.751432 216.37234 
L 306.751432 222.603851 
L 309.997977 222.603851 
L 309.997977 217.759499 
L 313.244523 217.759499 
L 313.244523 219.199066 
L 316.491068 219.199066 
L 316.491068 223.080785 
L 319.737614 223.080785 
L 319.737614 221.476392 
L 322.984159 221.476392 
L 322.984159 225.529413 
L 326.230705 225.529413 
L 326.230705 230.52395 
L 329.47725 230.52395 
L 329.47725 229.549431 
L 332.723795 229.549431 
L 332.723795 232.02082 
L 335.970341 232.02082 
L 335.970341 228.318876 
L 339.216886 228.318876 
L 339.216886 239.986101 
L 342.463432 239.986101 
L 342.463432 239.54024 
L 345.709977 239.54024 
L 345.709977 242.043234 
L 348.956523 242.043234 
L 348.956523 240.965899 
L 352.203068 240.965899 
L 352.203068 247.225838 
L 355.449614 247.225838 
L 355.449614 247.545689 
L 358.696159 247.545689 
L 358.696159 245.988198 
L 361.942705 245.988198 
L 361.942705 253.063823 
L 365.18925 253.063823 
L 365.18925 256.547335 
L 368.435795 256.547335 
L 368.435795 258.231387 
L 371.682341 258.231387 
L 371.682341 261.123746 
L 374.928886 261.123746 
L 374.928886 264.615604 
L 378.175432 264.615604 
L 378.175432 268.98271 
L 381.421977 268.98271 
L 381.421977 271.9563 
L 384.668523 271.9563 
L 384.668523 273.312 
L 384.668523 273.312 
" style="fill:none;stroke:#ff0000;stroke-linejoin:miter;"/>
   </g>
   <g id="patch_104">
    <path d="M 43.78125 273.312 
L 43.78125 7.2 
" style="fill:none;stroke:#000000;stroke-linecap:square;stroke-linejoin:miter;stroke-width:0.8;"/>
   </g>
   <g id="patch_105">
    <path d="M 400.90125 273.312 
L 400.90125 7.2 
" style="fill:none;stroke:#000000;stroke-linecap:square;stroke-linejoin:miter;stroke-width:0.8;"/>
   </g>
   <g id="patch_106">
    <path d="M 43.78125 273.312 
L 400.90125 273.312 
" style="fill:none;stroke:#000000;stroke-linecap:square;stroke-linejoin:miter;stroke-width:0.8;"/>
   </g>
   <g id="patch_107">
    <path d="M 43.78125 7.2 
L 400.90125 7.2 
" style="fill:none;stroke:#000000;stroke-linecap:square;stroke-linejoin:miter;stroke-width:0.8;"/>
   </g>
   <g id="legend_1">
    <g id="patch_108">
     <path d="M 339.37625 44.55625 
L 393.90125 44.55625 
Q 395.90125 44.55625 395.90125 42.55625 
L 395.90125 14.2 
Q 395.90125 12.2 393.90125 12.2 
L 339.37625 12.2 
Q 337.37625 12.2 337.37625 14.2 
L 337.37625 42.55625 
Q 337.37625 44.55625 339.37625 44.55625 
z
" style="fill:#ffffff;opacity:0.8;stroke:#cccccc;stroke-linejoin:miter;"/>
    </g>
    <g id="patch_109">
     <path d="M 341.37625 23.798437 
L 361.37625 23.798437 
L 361.37625 16.798437 
L 341.37625 16.798437 
z
" style="fill:#1f77b4;opacity:0.5;"/>
    </g>
    <g id="text_19">
     <!-- data -->
     <g transform="translate(369.37625 23.798437)scale(0.1 -0.1)">
      <use xlink:href="#DejaVuSans-64"/>
      <use x="63.476562" xlink:href="#DejaVuSans-61"/>
      <use x="124.755859" xlink:href="#DejaVuSans-74"/>
      <use x="163.964844" xlink:href="#DejaVuSans-61"/>
     </g>
    </g>
    <g id="patch_110">
     <path d="M 341.37625 38.476562 
L 361.37625 38.476562 
L 361.37625 31.476562 
L 341.37625 31.476562 
z
" style="fill:none;stroke:#ff0000;stroke-linejoin:miter;"/>
    </g>
    <g id="text_20">
     <!-- fit -->
     <g transform="translate(369.37625 38.476562)scale(0.1 -0.1)">
      <defs>
       <path d="M 2375 4863 
L 2375 4384 
L 1825 4384 
Q 1516 4384 1395 4259 
Q 1275 4134 1275 3809 
L 1275 3500 
L 2222 3500 
L 2222 3053 
L 1275 3053 
L 1275 0 
L 697 0 
L 697 3053 
L 147 3053 
L 147 3500 
L 697 3500 
L 697 3744 
Q 697 4328 969 4595 
Q 1241 4863 1831 4863 
L 2375 4863 
z
" id="DejaVuSans-66" transform="scale(0.015625)"/>
      </defs>
      <use xlink:href="#DejaVuSans-66"/>
      <use x="35.205078" xlink:href="#DejaVuSans-69"/>
      <use x="62.988281" xlink:href="#DejaVuSans-74"/>
     </g>
    </g>
   </g>
  </g>
 </g>
 <defs>
  <clipPath id="pca33a1aa4c">
   <rect height="266.112" width="357.12" x="43.78125" y="7.2"/>
  </clipPath>
 </defs>
</svg>
